<svg width="229" height="306" viewBox="0 0 229 306" fill="none" xmlns="http://www.w3.org/2000/svg">
<g filter="url(#filter0_d_7_401)">
<path d="M82.0936 19.1562C95.6699 6.92929 116.085 7.11831 129.422 18.9901C131.878 19.8742 133.98 20.9256 135.665 21.9325C140.481 24.8114 143.487 28.1585 144.877 29.8349C145.833 30.9881 146.641 32.1169 147.312 33.1405C149.918 34.7016 152.667 36.776 155.269 39.5419L155.857 40.1815L156.423 40.8231C159.208 44.0389 161.312 47.3019 161.884 48.1591C163.397 50.4295 167.248 55.9874 170.04 63.0751L170.307 63.7655L170.663 64.6933C172.473 69.3404 174.693 74.1205 177.029 79.8026C177.225 80.2782 179.198 84.236 181.363 90.0351C182.042 90.984 182.657 91.8723 183.161 92.6103C183.575 93.2164 183.986 93.8266 184.332 94.3378C184.696 94.8769 185.002 95.328 185.292 95.7509C185.564 96.1478 185.774 96.4494 185.934 96.6757C190.817 101.695 194.42 107.322 196.934 112.518L197.47 113.653L197.859 114.421C198.109 114.907 198.781 116.198 199.408 117.519C200.467 119.75 202.36 123.975 203.439 129.504C203.57 129.816 203.728 130.192 203.888 130.589C204.376 131.802 205.146 133.796 205.839 136.22C205.828 136.175 205.978 136.596 206.69 138.303C207.041 139.145 207.687 140.685 208.292 142.311C208.784 143.634 209.442 145.526 210.029 147.779C210.06 147.847 210.094 147.923 210.133 148.007C210.489 148.769 210.79 149.377 211.455 150.756C212.025 151.939 212.775 153.512 213.539 155.261C216.414 161.84 217.278 167.748 217.634 171.61C217.798 173.394 217.875 175.072 217.915 175.872C217.966 176.902 217.984 177.178 218.001 177.362C218.127 178.775 218.649 181.97 219.736 186.875C221.972 196.962 222.39 206.913 219.721 216.699C218.435 221.413 216.723 224.977 215.602 227.135C215.588 227.163 215.572 227.189 215.557 227.217C215.427 227.648 215.243 228.257 215.03 228.922C214.138 231.704 212.255 237.179 208.29 242.937C207.742 243.734 207.344 244.328 207.048 244.787C207.028 244.818 207.009 244.848 206.99 244.877C203.546 254.149 197.626 259.881 195.95 261.542C195.372 262.115 194.805 262.656 194.509 262.94C194.275 263.164 194.129 263.305 194.023 263.408C190.377 267.91 186.856 271.494 185.127 273.31C181.061 277.581 176.814 280.178 173.792 281.732C170.931 283.204 168.302 284.165 167.053 284.615C163.76 285.803 163.724 285.753 162.721 286.213C155.451 289.546 149.621 291.278 144.448 292.571C142.414 293.08 140.576 293.428 139.366 293.648C138.765 293.758 138.136 293.868 137.735 293.939C137.501 293.981 137.308 294.016 137.14 294.046C129.054 297.122 121.11 297.159 120.247 297.198C117.631 297.316 105.3 297.831 88.0135 297.464C76.9078 297.228 68.1403 293.819 61.5994 289.902C58.7926 288.222 56.5619 286.534 55.6522 285.849C48.8361 281.705 44.0246 276.711 42.1268 274.821C38.2823 270.993 37.4112 270.176 35.9666 269.09C29.8905 264.52 26.0523 259.304 23.9022 256.054C22.7752 254.35 21.8619 252.793 21.242 251.714C20.1403 249.796 20.6211 250.601 19.9637 249.468C18.9331 247.691 18.1367 246.096 17.5662 244.904C17.0823 243.893 16.5073 242.625 16.3631 242.311C16.279 242.129 16.2128 241.99 16.1649 241.89C13.1757 237.147 11.5102 232.459 10.5565 228.676C9.76946 227.115 8.89646 225.231 8.07111 223.057C5.51367 216.319 4.29929 209.228 4.24689 201.449C4.12647 183.572 4.65451 171.219 4.74396 169.054C4.9332 164.473 5.64811 159.566 5.65412 159.515C6.09811 155.745 6.70328 152.457 7.1131 150.259C7.60442 147.623 7.70917 147.034 7.75861 146.626C8.16548 143.266 8.81249 138.888 9.24201 135.836C10.2995 128.321 12.3531 121.59 14.6717 116.048C15.1108 114.998 15.3962 114.322 15.7039 113.572C15.9874 112.882 16.182 112.388 16.326 112C16.4548 111.653 16.5193 111.451 16.5447 111.37C18.1416 103.841 21.0759 96.9453 24.0106 91.1503C26.5444 86.1468 28.4119 82.8171 29.5779 80.7147C29.8818 80.167 30.0879 79.7872 30.2186 79.5438C31.621 76.0565 33.2812 73.2831 34.0565 72.0106C35.1581 70.2025 36.3381 68.4481 37.3162 67.0253C38.3164 65.5704 39.4139 64.0169 40.3768 62.6513C41.3903 61.2138 42.3383 59.8658 43.2654 58.5165C48.8331 50.4133 53.2338 45.6126 57.7899 41.0673C61.2506 37.6147 64.9328 34.5604 66.784 32.9892C69.2799 30.8707 69.5203 30.5602 69.2918 30.8183C72.8555 26.7926 76.4227 23.7361 78.8006 21.787C79.9184 20.8708 81.1409 19.9056 81.6551 19.495C82.4234 18.8815 82.3783 18.8998 82.0936 19.1562ZM210.398 149.286C210.372 149.173 210.347 149.064 210.321 148.96C210.346 149.068 210.373 149.177 210.398 149.286Z" fill="#FAFAFA"/>
<path d="M109.272 0.281296C115.784 0.383535 121.256 2.03191 123.663 2.80669C126.33 3.6655 128.998 4.72627 131.422 5.87114C135.243 6.26917 139.138 7.06651 143.094 8.27348L144.227 8.62993L145.224 8.96294C155.378 12.4691 161.154 17.8887 163.836 20.4493C172.191 28.4273 175.761 37.7978 176.793 40.2471C177.033 40.8175 177.378 41.5447 178.325 43.4288C179.175 45.121 180.498 47.7247 181.879 50.7745C181.852 50.7152 181.922 50.875 182.223 51.4424C182.689 52.3195 182.759 52.424 183.536 53.8663C184.088 54.8911 184.901 56.4215 185.712 58.1504C186.481 59.7918 187.453 62.0435 188.307 64.7149C188.333 64.7832 188.386 64.9205 188.474 65.1416C188.608 65.4763 188.745 65.8116 188.975 66.377C189.183 66.8875 189.45 67.5476 189.731 68.2618C190.777 70.9184 192.349 75.142 193.455 80.3262L193.67 81.376L193.89 82.462C193.953 82.7542 194.005 82.9819 194.048 83.1602C194.051 83.1729 194.053 83.1853 194.056 83.1973C195.974 86.9269 198.661 92.437 200.584 99.3477C200.729 99.8709 200.856 100.356 200.965 100.777C201.833 102.015 203.48 104.395 205.047 107.313C209.092 114.845 211.51 123.78 210.871 134.268C210.617 138.437 210.316 146.927 210.06 154.201C209.94 157.617 209.828 160.826 209.745 162.715C209.724 163.189 209.697 163.743 209.667 164.261C209.653 164.499 209.626 164.928 209.585 165.424C209.565 165.661 209.524 166.115 209.459 166.673C209.44 166.832 209.254 168.56 208.761 170.668C208.755 170.695 207.809 175.433 204.838 180.517C204.118 181.748 198.104 192.656 184.021 196.716C164.04 202.476 150.578 189.88 146.556 184.896C142.656 180.061 141.049 175.403 140.643 174.231C139.997 172.367 139.642 170.838 139.472 170.046C139.124 168.425 138.969 167.134 138.913 166.646C138.818 165.829 138.77 165.134 138.744 164.71C138.007 162.149 137.429 159.568 137.06 157.905C136.596 155.81 136.355 154.673 136.067 153.49C134.73 148.004 134.133 145.176 133.291 142.361C132.891 141.026 132.591 139.827 132.367 138.86C132.172 138.021 132.013 137.257 131.896 136.68C130.68 134.597 129.725 132.763 129.115 131.591C128.559 130.523 128.283 129.985 127.978 129.418C127.809 129.103 127.719 128.946 127.692 128.898C127.014 127.815 122.665 121.4 119.949 114.951C118.722 112.038 115.859 105.46 113.504 99.6651C113.227 98.9845 112.961 98.3169 112.729 97.7334C112.481 97.1085 112.288 96.6189 112.079 96.0948C111.859 95.5444 111.676 95.0953 111.52 94.7207C110.731 93.6675 110.045 92.6621 109.454 91.7383C109.052 92.3279 108.593 92.9946 108.155 93.6016C107.866 94.0015 107.755 94.1937 106.527 96.1329C105.497 97.7596 103.631 100.683 101.008 103.846C99.4962 105.67 97.8674 108.035 95.4342 111.685C94.5605 112.995 93.7352 114.14 93.2487 114.815C92.9134 115.281 92.7156 115.558 92.5788 115.75C89.8417 121.793 86.2516 126.097 84.5817 128.017C84.5679 128.055 84.5555 128.093 84.5416 128.131C84.3416 128.678 84.0587 129.437 83.7155 130.282C83.3763 131.118 82.8936 132.25 82.2643 133.523C82.0126 134.033 81.4013 135.258 80.5573 136.657C80.1943 137.259 79.2202 138.851 77.7448 140.688C77.0248 141.584 75.5671 143.32 73.4264 145.194C71.8866 146.543 66.7325 150.938 58.5329 152.965C47.4288 155.709 33.8685 153.136 24.1725 142.856C17.1411 135.4 15.5081 127.249 15.0778 124.917C14.0548 119.374 14.6596 114.871 14.7174 114.363C15.0016 111.865 15.508 109.864 15.6012 109.485C16.1335 107.325 16.9943 104.677 17.3405 103.6C18.919 98.6892 19.1589 97.8777 18.9518 98.8594C19.105 98.1331 20.2045 91.9305 21.9821 86.5977C23.3007 82.6419 24.9925 79.494 26.2506 77.3916C27.1831 75.8335 28.1164 74.4597 28.902 73.3575C29.8169 68.6484 31.2259 64.7044 32.027 62.5411C33.1267 59.5715 34.7087 55.8202 35.1774 54.6612C37.5146 48.8813 40.7228 44.4624 41.7633 43.001C42.572 41.8653 42.6726 41.7388 42.9352 41.3604C46.0126 35.9366 49.173 32.076 51.6999 29.2764C52.2778 28.6361 52.8105 28.0659 53.1852 27.6651C53.6191 27.201 53.8085 26.9995 54.0143 26.7754C54.0503 26.7363 54.08 26.7025 54.1051 26.6749C59.0984 20.1768 64.4064 15.8521 67.0915 13.6163C75.1996 6.86452 84.1218 5.30422 86.4879 4.88579C88.5721 4.51723 90.5924 4.29896 92.4577 4.17094C97.3101 1.68165 102.811 0.276413 108.639 0.276413L109.272 0.281296Z" fill="#FAFAFA"/>
<path d="M134.158 40.1399C147.016 39.0277 158.863 44.9163 165.941 54.6409C167.839 55.5585 169.434 56.4829 170.443 57.0979L171.434 57.7161L172.106 58.1516C178.632 62.4745 182.528 67.8289 184.692 71.4182C186.302 72.4568 187.663 73.5133 188.752 74.4446C189.687 75.1916 191.025 76.3238 192.461 77.7864C196.64 82.0422 202.382 89.8636 203.555 101.304C203.742 103.127 203.934 105.609 203.984 108.243C204.351 109.323 204.629 110.023 204.829 110.493C205.141 111.227 205.455 111.871 206.257 113.418C207.833 116.46 209.202 119.659 210.053 121.666C211.171 124.303 211.568 125.283 211.939 126.084C212.789 127.917 213.42 129.545 213.838 130.665C214.048 131.229 214.235 131.751 214.369 132.124C214.482 132.439 214.554 132.637 214.618 132.816C218.346 139.747 219.573 146.458 220.071 150.732C220.504 154.445 220.558 157.948 220.482 160.875C222.307 165.32 222.886 169.292 223.071 170.817L223.298 172.775L223.346 174.22C223.452 177.411 223.598 179.997 223.758 181.844C223.796 182.289 223.831 182.64 223.86 182.907L224.154 183.978L224.472 186.454C225.396 193.669 224.812 201.796 221.995 210.838C216.164 229.557 196.263 240.004 177.544 234.173C163.18 229.698 153.687 216.938 152.682 202.785C148.595 196.053 147.521 189.121 147.391 185.183C147.232 180.389 147.785 176.261 148.027 174.429C148.2 173.129 148.238 172.892 148.317 172.243C148.37 171.814 148.369 171.745 148.362 171.86C148.45 170.319 148.589 168.851 148.703 167.727C148.815 166.622 148.955 165.365 149.053 164.464C149.208 163.035 149.32 161.903 149.396 160.938C148.748 159.41 148.28 158.146 147.972 157.299C147.462 155.9 147.546 156.102 147.328 155.516C146.808 154.377 146.325 153.258 145.939 152.352C145.619 151.598 144.923 149.941 144.683 149.375C143.825 147.352 143.397 146.43 143.216 146.079C142.192 144.103 141.13 142.002 140.025 139.506C137.167 138.671 134.79 137.594 132.984 136.616C128.882 134.396 126.127 131.863 124.791 130.546C122.237 128.03 120.54 125.564 120.38 125.34C120.155 125.024 119.928 124.696 119.911 124.672L120.004 124.802L118.688 122.949C115.598 118.549 112.417 113.62 109.825 108.581C106.946 102.984 105.234 96.8411 104.29 92.971C103.213 88.5514 102.27 83.4223 101.85 78.5676C100.16 59.0345 114.625 41.8296 134.158 40.1399ZM116.122 104.359C116.151 104.493 116.16 104.51 116.131 104.392C116.128 104.381 116.125 104.37 116.122 104.359Z" fill="#FAFAFA"/>
</g>
<path d="M178.802 184.464C179.135 179.159 178.442 174.304 177.42 169.389C176.756 166.533 172.515 163.467 168.391 158.659C168.333 158.591 168.275 158.523 168.218 158.455C162.752 151.917 161.404 148.357 158.041 144.201C156.392 142.15 153.784 139.89 149.645 137.286C148.562 136.608 147.465 135.946 146.362 135.303C143.204 133.474 140.196 131.71 137.426 131.375C128.872 130.359 121.081 130.716 117.021 131.428C114.178 131.959 112.285 132.095 111.013 132.354C108.629 133.112 106.07 133.591 101.171 134.651C99.896 134.924 98.6902 135.149 97.5395 135.348C92.4045 136.208 88.887 137.988 84.0633 139.524C82.5208 139.968 80.9337 140.28 79.3198 140.641C77.977 140.957 76.1671 141.376 74.4263 142.436C71.8721 144.03 68.7577 145.552 65.8715 147.677C63.1302 149.437 60.8059 151.436 58.7398 153.865C55.8369 157.269 54.4418 161.556 53.5323 164.868C53.1094 166.363 52.7484 167.567 52.5712 168.608C51.8192 172.902 51.667 177.726 51.486 182.216C51.3142 183.702 52.6569 184.852 54.0429 185.937C55.4293 187.013 56.753 188.06 57.835 189.076C58.0957 189.326 58.3499 189.556 58.6021 189.775C59.0954 190.205 59.5825 190.606 59.9906 191.054C60.7488 191.922 61.1931 192.697 61.635 193.323C61.9117 193.73 61.9906 193.96 61.9246 194.016C61.9246 194.016 61.9246 194.016 61.9245 194.016C61.8412 194.084 61.5321 193.882 61.1231 193.395C60.6378 192.83 60.1291 192.143 59.5003 191.547C58.8786 190.974 58.0467 190.448 57.227 189.78C55.4739 188.312 53.1923 187.434 50.7655 185.342C49.9037 184.528 49.4064 183.274 49.3824 182.235C49.1937 175.533 48.9656 172.747 51.6051 164.289C51.9578 163.06 52.3629 161.693 52.9029 160.181C53.9523 157.259 55.225 154.625 57.0113 152.38C59.0569 149.727 61.7379 147.248 64.2202 145.505C66.8176 143.387 69.8077 141.736 72.7093 139.846C75.6754 137.879 79.1444 137.389 82.425 136.468C82.618 136.415 82.8072 136.36 82.9942 136.304C88.2841 134.418 92.5814 132.367 96.9656 131.561C100.769 130.717 104.762 129.963 109.117 128.118C113.833 126.478 118.042 126.478 123.99 126.454C129.674 126.549 134.081 126.807 137.912 127.204C142.656 127.832 145.675 129.797 148.76 131.245C152.83 133.416 157.064 135.248 162.327 140.381C164.018 142.14 165.723 144.234 167.475 146.508C169.392 148.996 171.306 151.436 173.429 153.838C176.483 157.847 181.852 160.604 183.503 168.63C184.15 176.711 184.721 183.599 183.048 191.66C181.508 196.234 179.1 200.087 177.075 203.055C176.149 204.42 175.355 205.821 174.603 207.112C173.059 209.792 171.076 212.92 168.222 215.561C164.489 219.051 160.111 222.688 154.825 225.561C150.972 227.785 146.35 230.797 141.185 232.577C138.048 233.685 134.83 235.007 131.347 236.131C130.463 236.414 129.554 236.687 128.599 236.931C117.669 238.559 106.976 238.725 95.2413 238.037C88.2685 237.364 81.5791 235.822 75.1553 232.624C72.5392 231.26 69.4799 229.998 66.6233 228.279C64.334 226.898 61.8885 225.155 59.961 222.571C55.4814 216.14 48.687 209.111 48.4073 199.194C48.5748 192.392 48.8861 185.77 49.9201 179.949C50.8862 174.704 52.2648 170.225 53.8776 166.905C54.8368 164.964 55.9066 163.265 57.3805 162.036C61.2009 158.083 64.294 154.854 68.7692 153.031C71.4655 151.841 74.4139 150.348 78.3581 148.393C82.5422 146.383 87.839 143.787 93.8196 143.16C97.6395 142.807 101.502 142.845 105.059 143.251C109.567 143.913 108.458 144.102 103.973 144.042C100.193 144.064 96.8093 144.283 93.9987 144.681C91.9602 144.976 90.2509 145.537 88.9566 146.15C82.9392 149.172 80.7064 150.951 72.5789 154.123C71.5698 154.515 70.6308 154.896 69.7495 155.262C63.8573 157.747 63.3267 161.058 59.5815 164.583C59.5379 164.619 59.4931 164.656 59.4472 164.695C57.625 166.907 55.6571 167.238 53.2521 180.458C52.8075 183.519 52.551 187.33 52.5196 192.067C52.502 194.547 52.5315 196.919 52.5777 199.197C53.4436 207.964 60.2096 214.139 64.0798 219.395C67.8444 223.751 73.2861 225.221 77.4528 227.321C77.5687 227.378 77.6855 227.436 77.8029 227.495C81.5793 229.371 88.3306 231.648 95.7362 232.464C103.759 233.237 112.968 233.154 120.798 232.499C122.751 232.315 125.322 232.104 127.203 231.658C130.717 230.692 134.799 228.9 139.268 227.268C143.626 225.73 147.545 223.216 152.119 220.558C156.879 217.982 160.986 214.582 164.382 211.391C166.85 209.078 168.386 206.464 169.613 204.246C170.513 202.607 171.341 201.107 172.199 199.809C175.235 195.127 176.332 193.446 177.875 189.971C178.295 189.091 178.627 186.968 178.802 184.464Z" fill="#FF9500"/>
<path d="M103.651 151.113C103.365 150.682 103.488 152.743 103.179 152.496C102.863 152.25 102.654 151.178 102.361 151.472C102.07 151.76 101.621 151.106 101.502 151.515C101.499 151.523 101.497 151.533 101.494 151.543C101.383 152.008 101.204 150.664 101.035 150.987C100.868 151.309 100.759 151.144 100.554 150.731C100.364 150.302 99.7906 150.084 99.9519 150.629C100.038 150.89 99.963 150.82 99.7994 150.698C99.6399 150.572 99.3972 150.396 99.2786 150.353C99.2047 150.327 99.1182 150.278 99.0315 150.224C98.9948 150.202 98.9298 150.143 98.8692 150.081C98.8692 150.081 98.8691 150.081 98.8691 150.081C98.7936 150.004 98.7256 149.922 98.7274 149.901C98.7366 149.801 98.6939 149.601 98.5829 149.192C98.4203 148.41 98.8957 149.043 99.1255 148.523C99.3796 148.002 99.6044 147.18 100.154 147.584C100.595 147.955 100.528 146.407 100.908 146.819C100.955 146.871 101.01 146.953 101.077 147.072C101.708 148.143 101.448 146.037 101.91 145.681C102.387 145.321 103.256 146.38 103.573 146.248C103.815 146.146 104.121 145.957 104.478 145.97C104.598 145.975 104.722 146.003 104.847 146.065C105.341 146.311 105.891 145.581 106.415 146.066C106.938 146.55 107.637 147.173 107.955 147.594C108.274 148.014 108.35 148.109 108.654 147.851C108.828 147.702 109.068 147.842 109.27 148.387C109.372 148.661 109.349 149.043 109.247 149.226C109.097 149.493 108.974 149.315 108.897 149.792C108.744 150.746 108.68 151.112 108.486 150.557C108.292 150.003 108.205 151.265 108.094 151.12C107.983 150.976 107.976 150.23 107.419 150.81C106.865 151.39 106.575 151.545 106.374 151.689C106.177 151.832 105.725 151.203 105.414 151.456C105.292 151.555 105.118 151.59 104.941 151.621C104.668 151.669 104.373 151.714 104.243 151.962C104.033 152.372 103.932 151.545 103.651 151.113Z" fill="#FF9500"/>
<path d="M119.736 159.083C118.175 157.98 115.709 157.483 112.868 157.102C111.019 158.089 110.237 164.742 98.4237 166.586C97.4268 167.469 97.0921 168.051 98.0627 167.361C99.4347 166.581 102.488 162.98 98.8591 163.425C96.3354 163.57 95.3383 162.675 94.0615 162.301C92.8622 161.882 91.7239 161.754 90.7502 162.429C89.3053 163.877 87.8472 165.69 86.5161 167.868C84.677 170.859 82.9911 172.966 81.9662 174.191C79.8144 176.746 78.9973 177.545 74.8439 185.514C75.5164 184.067 75.537 183.633 75.6049 183.336C75.6481 183.063 75.6243 183.034 75.6055 183.077C75.5612 183.178 75.5207 183.579 75.5515 184.002C75.6077 184.875 75.9184 185.89 76.57 186.698C79.3622 190.062 73.7848 191.655 72.1484 194.817C71.1327 190.536 68.8294 188.97 68.4093 188.615C67.8543 188.224 68.1971 188.424 69.3772 188.801C69.4781 188.835 69.5846 188.874 69.6953 188.917C68.5434 187.783 67.4913 187.342 67.4779 187.153C67.3989 186.957 67.8706 186.895 68.4478 186.851C69.6427 186.772 71.2833 186.853 72.8774 187.113C76.1484 187.628 79.53 188.869 83.4736 190.688C84.5165 191.16 85.7849 191.624 87.3064 192.069C93.446 194.412 104.187 194.192 110.065 188.828C110.637 188.162 112.055 185.18 111.978 183.138C112.005 181.445 112.416 179.909 113.174 178.4C112.568 179.444 112.578 179.97 112.657 179.827C112.759 179.686 112.911 179.049 113.306 177.641C113.075 178.94 113.13 180.947 113.888 182.737C114.627 184.543 115.792 185.737 116.618 186.377C118.346 187.642 119.054 187.614 119.513 187.706C119.955 187.748 120.112 187.673 120.189 187.595C120.262 187.513 120.238 187.414 120.176 187.314C119.898 186.904 119.104 186.489 118.472 186.107C119.664 185.734 120.726 184.774 120.961 184.185C121.236 183.58 121.034 183.336 120.741 183.394C120.457 182.942 119.881 183.08 119.434 183.462C119.318 183.553 119.245 183.51 119.148 183.223C119.051 182.953 118.889 182.327 118.452 181.719C118.02 181.107 117.45 180.76 117.134 180.66C116.803 180.551 116.652 180.592 116.586 180.64C116.502 180.702 116.566 180.8 116.657 180.883C117.715 181.631 119.429 182.417 120.488 183.256C120.963 183.61 121.186 184.348 121.186 185.077C121.186 185.078 121.186 185.078 121.186 185.079C121.185 185.987 120.845 186.88 120.221 186.993C119.537 187.116 118.773 187.286 117.887 187.482C116.948 187.647 116.159 188.002 114.348 187.881C113.634 187.772 112.202 187.563 110.982 185.792C109.885 183.97 110.089 182.654 109.935 182.088C109.734 180.825 109.596 179.268 110.143 177.279C110.393 176.041 111.234 173.032 115.218 171.249C115.582 171.094 115.945 170.964 116.313 170.857C118.119 169.782 119.662 169.109 121.741 168.867C122.819 168.783 123.924 168.687 126.014 169.333C127.057 169.72 128.541 170.189 130.504 172.239C132.585 174.168 133.781 178.876 133.116 181.321C133.077 181.378 133.273 184.046 130.795 188.318C129.768 189.588 128.588 190.994 127.231 192.977C125.711 195.012 124.825 197.385 120.965 201.811C120.556 202.241 120.089 202.689 119.559 203.133C110.775 212.33 100.324 219.195 87.2956 218.678C84.9344 218.54 82.431 218.154 79.6115 217.441C75.7943 216.471 72.7287 216.805 69.4121 217.589C65.9492 217.865 62.8199 221.385 51.3292 216.438C50.5549 216.4 49.2476 216.114 46.9585 214.758C45.0669 213.197 39.6911 211.288 37.0856 199.645C35.3527 192.785 34.4299 188.171 39.8538 175.274C40.5669 173.741 41.1542 172.112 42.9898 169.018C44.3057 169.295 46.1834 165.724 47.5938 162.851C49.0531 159.84 50.2486 156.967 51.2133 154.249C54.1341 146.6 54.2484 140.72 55.2913 134.37C57.3638 128.875 63.6638 121.529 68.7606 117.849C68.858 117.77 68.9514 117.693 69.0297 117.626C70.6515 115.994 79.8318 110.743 86.6338 109.743C93.6985 108.384 99.3432 108.816 104.093 109.552C104.392 110.579 114.499 110.035 126.252 114.704C126.267 115.55 130.628 116.862 136.316 119.352C141.889 121.836 146.474 125.061 149.795 127.739C151.661 129.452 154.347 131.393 156.734 132.905C161.451 136.256 167.816 138.91 175.235 150.642C175.599 151.067 176.997 152.936 178.89 156C180.593 159.241 184.005 163.406 184.66 174.206C184.302 178.53 186.572 182.734 181.018 196.896C180.97 196.799 180.842 196.79 180.582 197.239C180.326 197.673 179.959 198.553 179.519 199.724C179.333 200.213 179.144 200.755 178.951 201.334C178.617 201.86 178.217 203.775 177.449 206.904C176.148 209.997 177.112 215.115 167.104 224.53C168.635 223.287 168.928 222.804 168.953 222.853C168.947 222.903 168.595 223.44 167.975 224.344C166.549 226.066 164.937 229.839 157.177 234.521C158.213 233.939 150.439 240.201 142.016 242.111C133.22 244.433 126.636 244.97 121.32 245.381C120.174 245.28 117.052 245.717 112.543 245.929C111.479 245.972 110.321 246.007 109.074 246.01C99.0649 245.459 88.8848 244.788 75.6818 237.885C68.7244 233.814 64.3854 228.726 61.0558 223.016C60.2849 221.061 55.5257 213.418 55.7107 207.143C55.5847 200.878 57.3734 196.804 58.872 193.646C60.0471 191.333 61.2869 189.339 62.4721 187.686C65.03 184.121 67.4985 181.583 69.2861 179.777C71.8338 177.659 72.3989 174.492 78.5651 170.739C80.7507 169.69 83.0182 168.197 85.6654 165.984C85.8096 165.772 86.1168 165.407 86.5973 164.862C87.8848 163.306 91.9246 159.873 96.9305 159.438C100.211 159.134 103.616 159.297 107.166 160.139C108.945 160.573 110.747 161.162 112.63 162.146C113.573 162.649 114.546 163.239 115.55 164.14C116.521 165.009 117.767 166.488 117.898 168.378C117.874 168.576 117.845 168.771 117.811 168.965C117.306 171.724 115.771 172.53 114.579 172.382C113.336 172.19 112.215 171.368 111.075 170.31C111.058 170.527 111.084 170.766 111.135 170.978C111.244 171.418 111.378 171.666 111.38 171.806C111.389 171.947 111.301 172.005 111.163 172.051C110.881 172.133 110.412 172.156 109.915 172.192C108.907 172.26 107.754 172.338 106.678 172.524C104.508 172.899 102.555 173.68 101.327 175.82C100.673 176.963 100.108 178.022 99.6252 178.986C100.664 183.515 107.102 181.707 98.1942 187.047C96.558 187.702 94.5199 188.092 91.9559 188.191C90.1161 188.261 88.6143 188.617 87.3161 189.187C89.4202 188.083 89.9029 187.52 90.3375 187.563C90.7311 187.583 90.9519 188.025 91.1855 188.619C91.6171 189.843 92.0787 191.629 91.7557 193.831C91.7308 195.412 91.7658 196.294 91.0875 196.837C89.5653 198.09 86.6471 197.252 84.6125 201.169C84.0896 202.079 83.895 203.365 84.1655 203.233C84.2944 203.184 84.379 202.48 84.392 201.901C84.4502 201.39 84.5799 201.143 87.0138 203.54C87.0288 203.555 87.0439 203.571 87.059 203.586C88.5266 204.123 90.4186 204.407 90.6667 203.73C91.1778 203.087 94.2978 203.018 96.657 202.474C99.1486 201.99 101.499 201.377 103.53 200.74C104.666 200.126 108.204 198.708 113.119 197.459C113.349 197.402 113.589 197.346 113.838 197.292C119.114 195.954 126.899 196.293 131.459 196.17C130.341 196.794 128.383 198.661 135.591 194.589C130.972 197.538 131.449 198.477 131.998 197.511C132.891 196.574 133.795 194.261 139.028 189.658C134.131 193.866 134.044 196.089 133.561 196.495C133.087 197.24 133.219 195.421 134.054 190.781C134.546 188.307 135.077 183.778 137.896 177.247C136.543 180.391 136.932 180.657 136.858 179.897C136.868 179.115 136.817 177.372 136.731 175.268C136.802 178.076 137.359 179.408 137.512 179.923C137.696 180.439 137.613 180.249 137.301 179.78C136.667 178.757 135.237 176.85 133.195 173.38C134.018 175.051 133.587 174.474 132.62 174.068C131.654 173.589 130.253 172.988 128.887 172.609C126.201 171.849 124.071 170.608 122.174 168.795C121.576 167.733 121.895 166.36 122.039 164.685C122.079 163.008 122.573 161.146 119.736 159.083Z" fill="#FFA321"/>
<path d="M110.923 169.727C112.817 170.144 109.647 169.479 106.165 169.469C102.687 169.36 98.97 169.737 99.8436 169.507C99.9125 169.815 99.9933 170.13 100.087 170.451C101.188 174.583 104.354 179.424 107.754 181.855C111.151 184.388 114.129 184.925 116.146 184.87C120.197 184.633 121.569 182.667 121.813 182.216C121.791 181.981 121.712 181.988 121.632 182.342C121.433 183.366 121.74 182.319 121.678 181.469C121.671 180.617 121.373 180.038 121.937 181.844C123.286 185.383 119.192 174.673 119.234 177.461C119.46 180.001 118.176 179.459 114.588 177.754C114.727 177.436 114.843 177.106 114.93 176.769C115.321 175.434 115.554 173.761 115.112 172.95C114.707 172.109 113.975 172.13 113.543 172.56C112.63 173.487 112.795 175.459 114.661 177.55C115.764 178.815 115.703 180.344 114.249 182.265L115 180.547C114.327 181.011 112.475 182.906 109.337 184.159C106.137 185.355 104.522 183.988 103.765 183.621C103.021 183.204 102.527 182.473 102.113 181.702C101.94 181.373 101.767 180.653 101.646 179.934C101.646 179.933 101.646 179.933 101.646 179.933C101.497 179.037 101.419 178.145 101.521 178.01C101.741 177.712 102.016 177.196 102.018 176.434C102.043 175.72 101.526 174.52 99.5134 174.481C99.2013 174.458 98.8804 174.449 98.557 174.443C95.8151 174.555 95.434 174.574 95.6311 174.091C95.9066 173.846 96.0428 172.62 96.358 172.429C95.7668 173.912 98.0781 174.263 96.2743 172.374C95.0071 170.892 92.9642 169.104 92.2728 166.075C91.9588 164.55 91.9664 162.642 93.1518 160.182C94.272 157.811 97.1023 154.534 101.415 153.05C101.55 153.169 101.733 153.296 101.958 153.439C106.282 155.857 100.627 138.473 113.784 144.918C122.238 150.989 122.98 142.441 129.827 137.749C132.067 136.823 134.858 134.624 144.551 140.025C151.348 143.587 158.054 155.284 158.188 162.096C158.329 165.315 157.341 168.88 155.773 172.584C153.969 176.529 152.854 179.467 148.062 186.897C145.765 189.798 144.413 190.809 143.672 191.924C141.802 194.601 140.611 196.587 140.15 197.528C139.948 197.942 139.945 198.141 140.577 197.123C140.918 196.041 143.633 193.724 143.202 184.692C142.92 181.699 141.843 178.394 140.437 176.001C137.275 170.256 133.207 168.003 131.378 167.008C129.39 166 128.582 165.828 128.368 165.746C128.184 165.702 128.584 165.8 129.905 166.309C131.208 166.948 133.733 167.466 138.2 171.827C147.662 182.748 144.552 191.923 143.293 196.177C141.567 200.874 139.279 203.666 137.002 205.935C136.275 207.879 129.865 215.404 122.054 215.248C121.922 215.249 121.79 215.25 121.657 215.25C119.436 215.586 117.351 215.738 114.177 215.567C111.168 215.15 105.929 215.549 98.6348 209.475C98.032 207.123 92.2405 199.791 93.3501 191.261C95.1225 188.504 97.0058 184.954 99.0208 182.839C101.341 180.332 103.162 179.072 104.546 177.68C105.389 177.047 105.672 176.057 105.918 174.117C106.183 171.884 109.286 170.027 114.551 172.345C115.912 172.986 116.368 174.413 116.502 175.676C116.661 176.966 117.331 178.013 117.708 178.674C118.803 180.603 117.03 180.211 119.589 183.362C124.76 189.609 127.24 191.454 122.795 189.533C121.369 188.934 121.201 189.278 121.632 189.955C123.712 189.813 128.52 190.361 128.045 189.048C127.651 188.203 125.868 187.494 124.8 187.065C123.741 186.707 123.263 186.573 125.834 188.425C125.891 188.47 125.948 188.516 126.004 188.563C126.715 185.08 125.522 181.426 124.993 179.812C124.421 178.079 124.375 177.433 125.053 177.333C116.735 170.85 112.535 172.164 110.385 171.74C108.126 171.687 107.007 171.79 105.736 171.99C105.164 171.73 104.665 171.583 104.226 171.431C103.663 171.234 103.419 171.974 103.71 172.609C103.853 172.925 104.116 173.215 104.514 173.319C104.929 173.409 105.393 173.378 106.375 172.697C104.631 174.466 102.773 176.638 101.255 180.634C100.534 182.666 99.8293 185.217 99.9755 188.982C100.104 192.619 101.521 198.264 105.904 202.857C109.582 206.557 111.785 207.237 112.898 207.855C114.035 208.385 114.349 208.518 114.22 208.559C114.033 208.57 113.262 208.487 111.149 207.602C109.271 206.646 104.431 204.912 100.107 197.387C97.891 193.763 96.398 187.83 96.8771 182.942C97.2798 178.011 98.7999 174.574 100.021 172.215C102.579 167.56 104.45 165.832 105.75 164.262C108.339 161.388 109.005 160.198 107.514 159.605C106.434 159.186 105.615 160.288 105.412 162.09C104.597 165.02 105.737 166.284 106.902 167.474C108.124 168.603 109.659 169.376 110.923 169.727Z" fill="#FFAA32"/>
<path d="M99.9026 204.192C99.3809 200.288 100.029 217.617 99.6106 215.187C99.1522 212.76 98.4492 203.588 98.1455 205.686C98.0601 206.316 97.9188 206.194 97.758 205.818L100.321 205.437C100.601 204.452 100.479 202.111 101.845 204.423C104.068 207.612 99.6326 197.109 101.549 198.95C103.84 200.59 104.272 198.33 102.172 195.125C101.168 193.496 100.11 192.014 99.5926 191.524C99.0958 191.007 99.3469 191.271 101.471 192.113C105.762 193.666 98.279 191.07 96.3968 190.79C95.8205 190.673 95.0397 190.488 94.2302 190.288C93.8869 190.203 93.1774 189.997 92.4796 189.785C92.4791 189.785 92.4787 189.785 92.4782 189.785C91.6094 189.521 90.7596 189.247 90.6583 189.186C90.168 188.886 88.8161 188.281 85.8027 186.913C80.2518 184.206 86.5871 186.54 84.1898 184.178C81.8138 181.834 77.6279 176.08 83.5989 175.923C86.3476 176.17 85.2031 173.063 85.3289 170.041C85.2849 167.122 86.7816 164.435 90.0834 168.493C91.8872 170.846 92.4232 171.259 92.7341 170.432C92.9479 170.798 94.6471 169.732 94.8113 170.123C95.1535 168.252 94.7194 158.688 95.5228 156.938C96.6841 154.48 98.7495 164.25 99.4201 163.416C100.128 162.579 101.178 160.479 102.315 162.843C103.376 165.206 105.11 159.302 106.464 163.618C107.662 167.625 109.077 172.565 110.468 176.703C110.459 177.001 110.445 177.289 110.426 177.564C110.219 181.279 109.772 181.924 111.932 180.584C112.589 180.232 113.175 180.537 113.454 181.677C113.675 182.716 113.813 185.139 111.863 186.97C109.806 188.605 106.2 186.85 105.099 189.016C104.384 190.364 104.761 191.074 104.719 191.612C104.714 192.183 104.458 192.776 103.437 194.526C99.4371 201.573 99.1471 204.944 101.653 200.939C103.891 196.818 99.9159 206.671 100.604 205.624C100.915 205.023 101.678 202.972 102.039 201.991C103.02 201.409 103.482 201.418 103.417 203.624C103.219 208.482 102.963 209.682 102.833 210.841C102.742 211.996 102.62 206.54 102.2 208.499C101.868 210.456 101.063 208.664 100.818 211.892C100.608 215.117 100.386 208.099 99.9026 204.192Z" fill="#FF9500"/>
<path d="M110.284 198.531C108.906 195.02 112.479 210.281 111.546 209.748L116.029 208.27C116.145 208.184 116.245 208.064 116.327 207.909C118.008 204.415 113.146 196.446 114.805 197.863C116.44 199.239 111.986 194.708 113.485 198.247C114.786 201.902 108.778 192.226 108.808 195.079C108.805 195.105 108.803 195.131 108.8 195.157C108.352 198.116 106.669 197.069 105.108 193.702C103.442 190.322 102.19 187.396 103.743 191.689C105.48 195.91 102.428 188.6 101.411 187.002C101.123 186.492 100.741 185.787 100.344 185.054C100.176 184.744 99.8419 184.085 99.5183 183.431C99.5181 183.431 99.5179 183.43 99.5177 183.43C99.1146 182.616 98.73 181.81 98.7008 181.697C98.5608 181.146 98.0548 179.757 96.9706 176.634C95.0728 170.766 97.7623 176.984 97.4033 173.76C97.0428 170.535 96.4149 164.154 97.0784 168.214C97.3974 170.226 95.8463 167.459 93.823 165.643C91.8531 163.704 89.6852 162.75 92.3453 166.891C98.3309 174.57 87.2481 160.229 90.3638 155.663C90.9667 154.888 91.9325 154.339 93.169 154.007C93.7431 154.769 97.1962 151.689 97.6413 152.532C97.832 153.391 99.9245 159.807 99.9554 159.088C99.965 158.235 99.681 156.15 100.857 158.25C102.039 160.349 100.945 154.454 103.006 158.213C105.04 161.978 107.862 166.686 109.329 169.988C110.813 173.284 111.013 174.059 111.204 171.802C111.309 170.505 112.243 171.547 113.139 176.074C113.576 178.353 113.779 181.569 113.904 183.105C114.099 185.35 113.808 183.874 114.436 187.848C115.742 195.784 116.578 198.766 115.625 194.182C114.581 189.62 116.953 199.988 116.702 198.79C116.411 197.601 114.845 191.522 115.752 196.287C116.705 201.043 116.773 202.316 116.881 203.498C117.005 204.675 114.785 199.668 114.839 201.712C114.914 203.75 113.136 202.413 113.428 205.675C113.713 208.94 111.768 202.192 110.284 198.531Z" fill="#FF9500"/>
<path d="M145.285 130.441C147.055 131.414 148.308 133.058 149.863 134.34C151.796 135.927 154.048 137.36 155.552 139.384C156.909 141.21 158.073 143.127 159.109 145.068C159.209 145.254 159.307 145.439 159.402 145.623C160.507 147.747 161.508 149.939 162.333 152.248C163.149 154.546 163.795 156.971 163.977 159.461C164.08 160.755 164.005 162.065 163.971 163.219L163.966 163.187C163.967 163.502 164 163.847 164.036 164.209C164.076 164.609 164.115 165.03 164.12 165.454C164.125 165.77 164.11 166.079 164.087 166.383C164.045 166.915 163.975 167.432 163.904 167.946C163.894 168.018 163.852 168.086 163.786 168.137C163.721 168.187 163.636 168.215 163.549 168.215C163.462 168.215 163.378 168.186 163.312 168.136C163.247 168.085 163.206 168.017 163.196 167.946C163.125 167.431 163.052 166.922 162.953 166.436C162.898 166.165 162.835 165.901 162.759 165.652C162.684 165.404 162.595 165.158 162.497 164.902C162.826 164.739 163.062 164.557 163.124 164.302C163.155 164.172 163.14 163.998 163.047 163.886C162.963 163.786 162.841 163.722 162.725 163.657C162.613 163.595 162.506 163.532 162.448 163.436C162.448 163.431 162.444 163.416 162.444 163.411C162.44 163.404 162.436 163.396 162.432 163.388C162.349 163.213 162.18 163.057 162.002 162.891C161.938 162.832 161.872 162.772 161.81 162.709C161.683 162.162 161.56 161.65 161.418 161.148C161.429 160.951 161.431 160.762 161.392 160.614C161.356 160.477 161.26 160.37 161.145 160.263C161.12 160.187 161.094 160.114 161.068 160.04C160.901 159.56 160.714 159.09 160.51 158.623C160.495 158.221 160.46 157.794 160.316 157.262C160.256 157.039 160.221 156.794 160.188 156.569C160.138 156.232 160.083 155.913 159.927 155.673C159.821 155.509 159.795 155.32 159.761 155.117C159.714 154.84 159.672 154.585 159.443 154.419C159.299 154.315 159.149 154.243 159.006 154.169C158.78 154.056 158.576 153.948 158.501 153.816C158.356 153.561 158.13 153.366 157.941 153.218C157.711 153.034 157.51 152.867 157.513 152.643C157.513 152.609 157.516 152.568 157.519 152.522C157.539 152.281 157.556 151.873 157.223 151.515C157.104 151.386 156.929 151.293 156.76 151.208C156.516 151.088 156.278 150.971 156.212 150.729C156.202 150.693 156.218 150.639 156.233 150.59C156.252 150.528 156.269 150.474 156.226 150.474C156.102 150.473 155.948 150.445 155.781 150.414C155.658 150.392 155.527 150.368 155.396 150.353C155.025 149.851 154.648 149.351 154.278 148.867C154.162 148.715 154.044 148.561 153.925 148.405C153.868 148.331 153.811 148.257 153.754 148.184C153.81 147.975 153.85 147.773 153.857 147.583C153.865 147.336 153.752 147.086 153.61 146.774C153.504 146.543 153.377 146.271 153.267 145.938C153.056 145.312 152.642 144.814 152.315 144.543C152.246 144.486 152.175 144.429 152.1 144.37C151.814 144.146 151.454 143.86 150.833 143.3C150.244 142.769 149.789 142.298 149.44 141.949C149.263 141.772 149.113 141.624 148.991 141.522C148.781 141.346 148.529 141.125 148.272 140.909C147.873 140.571 147.461 140.245 147.203 140.09C147.111 140.035 147.012 139.98 146.905 139.922C146.608 139.76 146.25 139.571 145.797 139.268C145.32 138.951 145.066 138.706 144.822 138.417C144.723 138.299 144.698 138.111 144.67 137.916C144.63 137.64 144.583 137.348 144.317 137.239C144.256 137.213 144.18 137.2 144.101 137.187C143.955 137.163 143.797 137.137 143.691 137.03C143.654 136.993 143.637 136.937 143.62 136.882C143.601 136.822 143.582 136.762 143.538 136.73C143.371 136.611 143.199 136.511 143.044 136.422C142.845 136.308 142.677 136.215 142.592 136.125C142.441 135.964 142.213 135.887 141.984 135.812C141.808 135.755 141.628 135.697 141.479 135.603C141.05 135.332 140.391 135.08 139.673 134.891C139.404 134.821 139.231 134.638 139.016 134.408C138.904 134.29 138.779 134.158 138.618 134.021C138.586 133.993 138.552 133.964 138.516 133.936C138.401 133.844 138.259 133.86 138.127 133.875C138.005 133.888 137.892 133.901 137.817 133.829C137.751 133.766 137.753 133.628 137.755 133.497C137.757 133.351 137.757 133.213 137.662 133.197C137.611 133.189 137.53 133.222 137.434 133.262C137.396 133.278 137.355 133.294 137.313 133.31C137.325 133.287 137.335 133.266 137.342 133.25C137.391 133.138 137.328 133.04 137.268 132.945C137.244 132.907 137.219 132.869 137.202 132.831C137.14 132.689 136.948 132.59 136.793 132.531C136.727 132.506 136.682 132.447 136.631 132.378C136.585 132.317 136.533 132.247 136.455 132.188C136.41 132.154 136.385 132.106 136.364 132.065C136.349 132.036 136.336 132.011 136.319 132C136.305 131.989 136.279 132.017 136.25 132.048C136.229 132.071 136.207 132.095 136.185 132.109C136.135 132.141 136.087 132.138 136.063 132.111C136.051 132.099 136.045 132.082 136.04 132.065C136.033 132.046 136.026 132.026 136.011 132.014C135.94 131.959 135.849 131.967 135.754 131.976C135.65 131.985 135.541 131.995 135.451 131.923C135.423 131.901 135.397 131.864 135.373 131.828C135.347 131.791 135.321 131.754 135.294 131.737C135.186 131.668 135.045 131.711 134.916 131.75C134.83 131.776 134.75 131.801 134.687 131.791C134.571 131.773 134.477 131.852 134.409 131.91C134.373 131.94 134.344 131.965 134.321 131.968C134.305 131.959 134.288 131.95 134.272 131.94C134.259 131.927 134.245 131.914 134.229 131.911C134.227 131.911 134.226 131.911 134.225 131.911C134.136 131.853 134.053 131.786 133.969 131.719C133.782 131.57 133.594 131.422 133.355 131.391C133.303 131.385 133.24 131.41 133.176 131.436C133.098 131.468 133.018 131.501 132.955 131.476C132.805 131.419 132.672 131.301 132.54 131.186C132.341 131.013 132.144 130.845 131.903 130.892C131.824 130.908 131.739 130.948 131.654 130.989C131.606 131.012 131.559 131.035 131.512 131.054C131.536 131.001 131.556 130.95 131.574 130.902C131.611 130.805 131.644 130.721 131.701 130.659C131.838 130.513 132.007 130.306 132.047 130.13C132.058 130.083 132.076 130.031 132.094 129.98C132.14 129.85 132.187 129.718 132.123 129.633C132.079 129.575 131.965 129.44 131.845 129.514C131.819 129.531 131.795 129.571 131.767 129.615C131.718 129.695 131.66 129.79 131.568 129.789C131.553 129.789 131.536 129.789 131.519 129.787C131.451 129.782 131.374 129.777 131.328 129.839C131.274 129.911 131.254 130.005 131.232 130.115C131.202 130.258 131.166 130.428 131.044 130.61C131.019 130.646 130.991 130.653 130.969 130.658C130.954 130.662 130.942 130.665 130.937 130.676C130.933 130.69 130.929 130.719 130.924 130.757C130.907 130.89 130.877 131.122 130.738 131.093C130.7 131.085 130.66 131.063 130.625 131.042C130.573 131.013 130.53 130.988 130.513 131.023C130.507 131.036 130.501 131.051 130.496 131.066C130.452 131.049 130.409 131.033 130.365 131.016C130.32 130.957 130.238 130.939 130.136 130.916C130.112 130.911 130.086 130.905 130.059 130.899C129.973 130.866 129.887 130.833 129.801 130.801C129.735 130.764 129.668 130.714 129.602 130.645C129.468 130.508 129.37 130.314 129.274 130.125C129.233 130.045 129.193 129.966 129.15 129.892C129.174 129.891 129.197 129.887 129.215 129.879C129.343 129.825 129.426 129.677 129.503 129.54C129.554 129.449 129.603 129.364 129.659 129.315C129.763 129.226 129.788 129.097 129.806 129.002C129.816 128.952 129.824 128.912 129.84 128.891C129.853 128.874 129.875 128.87 129.896 128.865C129.915 128.862 129.935 128.858 129.95 128.845C130.135 128.695 130.122 128.576 130.103 128.404C130.092 128.309 130.08 128.197 130.097 128.054C130.12 127.904 130.136 127.863 130.223 127.823C130.186 127.737 130.148 127.65 130.109 127.563C130.086 127.562 130.058 127.603 130.015 127.672C129.938 127.795 129.789 127.809 129.672 127.821C129.618 127.826 129.571 127.831 129.541 127.845C129.384 127.922 129.384 128.084 129.384 128.226C129.384 128.305 129.384 128.377 129.358 128.426C129.347 128.447 129.349 128.472 129.351 128.496C129.353 128.515 129.355 128.535 129.351 128.553C129.319 128.687 129.218 128.767 129.126 128.842C129.072 128.885 129.022 128.926 128.987 128.974C128.977 128.989 128.968 129.004 128.959 129.019C128.946 129.041 128.934 129.061 128.918 129.078C128.883 129.116 128.826 129.133 128.763 129.151C128.731 129.161 128.698 129.171 128.665 129.185C128.623 129.202 128.597 129.252 128.57 129.304C128.551 129.341 128.531 129.378 128.505 129.407C128.457 129.459 128.384 129.464 128.316 129.469C128.286 129.472 128.258 129.474 128.233 129.48C128.222 129.482 128.216 129.49 128.212 129.503C128.098 129.52 127.989 129.54 127.884 129.559C127.354 129.658 126.898 129.748 126.303 129.483C126.19 129.433 126.062 129.411 125.93 129.405C125.533 129.268 125.129 129.131 124.729 128.997C124.67 128.86 124.589 128.739 124.485 128.636C124.29 128.444 124.068 128.371 123.801 128.284C123.604 128.22 123.389 128.15 123.14 128.021C122.723 127.805 122.29 127.611 121.789 127.472C121.287 127.332 120.709 127.206 120.296 127.136C120.076 127.098 119.846 126.958 119.637 126.829C119.348 126.648 119.073 126.487 118.883 126.656C118.822 126.71 118.758 126.809 118.697 126.905C118.653 126.973 118.611 127.039 118.571 127.088C118.478 127.062 118.384 127.036 118.291 127.01C118.135 126.869 117.895 126.71 117.626 126.827C117.53 126.802 117.435 126.776 117.343 126.751C117.149 126.698 116.94 126.645 116.744 126.594C116.68 126.577 116.615 126.56 116.55 126.543C116.55 126.543 116.549 126.543 116.548 126.543C116.414 126.509 116.277 126.475 116.146 126.442C116.09 126.428 116.034 126.414 115.979 126.4C115.839 126.365 115.685 126.33 115.545 126.296C115.47 126.278 115.394 126.261 115.32 126.243C115.193 126.214 115.065 126.186 114.942 126.158C114.748 126.114 114.534 126.07 114.337 126.029C114.304 126.022 114.273 126.001 114.251 125.969C114.228 125.938 114.215 125.898 114.215 125.857C114.215 125.816 114.228 125.776 114.251 125.744C114.274 125.713 114.306 125.692 114.339 125.686C114.539 125.648 114.758 125.613 114.958 125.579C115.085 125.559 115.216 125.539 115.348 125.52C115.425 125.509 115.502 125.498 115.58 125.487C115.726 125.466 115.886 125.447 116.032 125.428C116.09 125.42 116.148 125.413 116.207 125.406C116.345 125.389 116.488 125.374 116.63 125.359C116.63 125.359 116.631 125.359 116.632 125.358C116.699 125.351 116.767 125.344 116.835 125.337C117.041 125.315 117.261 125.296 117.467 125.277C117.576 125.267 117.69 125.258 117.805 125.249C117.869 125.244 117.933 125.239 117.997 125.235C118.031 125.232 118.064 125.23 118.099 125.228C118.896 125.17 119.682 125.132 120.485 125.113C121.285 125.093 122.077 125.09 122.879 125.104C123.673 125.117 124.478 125.149 125.272 125.194C130.338 125.505 135.445 126.271 140.488 128.2C140.764 128.308 141.04 128.42 141.314 128.536C141.747 128.718 142.175 128.905 142.598 129.098C143.291 129.413 143.961 129.738 144.647 130.098C144.853 130.206 145.069 130.322 145.285 130.441Z" fill="#FFF8E4" fill-opacity="0.94"/>
<path d="M55.915 191.658C56.2989 194.841 56.2697 198.076 56.7148 201.028C56.7859 201.542 56.97 202.146 57.2403 202.755C59.0832 206.74 62.9609 210.225 66.1719 214.221C66.173 214.222 66.1741 214.224 66.1752 214.225C69.4688 218.068 71.6329 223.209 74.0137 226.166C74.1801 226.371 74.351 226.57 74.5273 226.764C76.8402 229.41 80.4949 231.02 84.3566 233.432C84.8713 233.782 85.5045 234.077 86.2019 234.312C90.3805 235.635 95.6452 235.25 100.649 234.871C102.047 234.759 103.457 234.63 104.872 234.522L104.499 234.645C106.416 233.742 108.43 232.994 110.5 232.532C112.03 232.187 113.576 231.997 115.115 231.918C115.46 231.9 115.8 231.888 116.144 231.879C116.911 231.848 117.689 231.736 118.471 231.597C118.626 231.57 118.782 231.573 118.906 231.61C119.03 231.647 119.111 231.714 119.132 231.798C119.153 231.883 119.113 231.98 119.02 232.071C118.927 232.161 118.789 232.238 118.637 232.285C117.869 232.523 117.071 232.742 116.245 232.88C116.242 232.88 116.233 232.881 116.231 232.882C115.89 232.933 115.553 232.988 115.216 233.048C113.99 233.269 112.791 233.559 111.628 233.94C111.353 233.643 111.02 233.448 110.497 233.48C110.23 233.497 109.859 233.59 109.616 233.744C109.398 233.882 109.256 234.047 109.125 234.203C108.987 234.368 108.861 234.524 108.665 234.64C108.331 234.838 108.057 235.119 107.778 235.419C107.676 235.528 107.574 235.64 107.468 235.751C106.86 236.081 106.266 236.432 105.676 236.803C105.582 236.849 105.313 236.947 105.209 236.957C104.734 237.052 104.249 237.151 103.767 237.251C103.299 237.281 102.87 237.313 102.508 237.381C102.189 237.441 101.897 237.56 101.616 237.695C101.432 237.733 101.243 237.771 101.059 237.808C99.8626 238.05 98.6535 238.282 97.4328 238.49C96.4629 238.503 95.4466 238.515 94.1201 238.563C93.5487 238.583 92.9819 238.56 92.4338 238.527C91.6261 238.48 90.8693 238.412 90.1963 238.444C89.7494 238.465 89.2764 238.391 88.8059 238.304C88.1797 238.188 87.5529 238.047 86.9582 238.09C86.576 238.115 86.225 238.154 85.8848 238.179C85.3527 238.219 84.866 238.226 84.4527 238.103C83.6844 237.874 82.9816 237.692 82.3475 237.463C82.2592 237.431 82.1727 237.398 82.0883 237.364C81.6028 237.2 81.1875 237.051 80.8837 236.781C80.8315 236.735 80.773 236.68 80.7068 236.617C80.358 236.285 79.786 235.759 78.7414 235.361C78.3695 235.219 77.9861 235.143 77.6073 235.064C77.0562 234.949 76.5109 234.826 76.0334 234.483C75.9622 234.432 75.9031 234.351 75.8495 234.277C75.7813 234.183 75.7226 234.101 75.6569 234.105C75.4644 234.117 75.1834 234.088 74.8745 234.05C74.648 234.023 74.4056 233.989 74.1745 233.966C72.8066 233.163 71.4515 232.194 70.2288 231.042C69.9601 230.79 69.6971 230.529 69.4399 230.259C69.168 229.974 68.9073 229.686 68.6513 229.388C68.5349 228.988 68.4126 228.591 68.2639 228.202C68.0693 227.693 67.7234 227.115 67.3257 226.384C67.033 225.848 66.7129 225.23 66.394 224.515C65.8048 223.186 65.0039 222.019 64.4 221.328C64.2752 221.185 64.1425 221.035 64.0055 220.884C63.474 220.303 62.8166 219.581 61.535 218.234C61.5108 218.209 61.4866 218.184 61.4623 218.158C60.2434 216.886 59.1996 215.708 58.4368 214.812C58.0363 214.343 57.706 213.949 57.4439 213.65C56.996 213.141 56.4589 212.501 55.9279 211.84C55.0951 210.808 54.2874 209.712 53.8132 209.085C53.6436 208.862 53.4644 208.629 53.2724 208.371C52.7451 207.651 52.1016 206.776 51.3912 205.326C50.8668 204.235 50.5776 203.318 50.4144 202.402C50.368 202.117 50.3261 201.805 50.299 201.534C50.2553 201.124 50.3318 200.778 50.4087 200.394C50.523 199.879 50.6455 199.332 50.4822 198.659C50.4444 198.503 50.3872 198.337 50.3274 198.16C50.2193 197.848 50.1022 197.498 50.0835 197.135C50.0771 197.009 50.0992 196.894 50.1208 196.78C50.1446 196.655 50.1679 196.532 50.1528 196.397C50.0985 195.91 50.0294 195.419 49.9713 194.997C49.8948 194.439 49.836 193.99 49.8362 193.693C49.8381 193.18 49.7279 192.622 49.6198 192.063C49.5366 191.631 49.455 191.203 49.4236 190.776C49.3345 189.564 49.0997 187.909 48.8283 186.194C48.7257 185.546 48.7785 184.986 48.8517 184.271C48.8974 183.826 48.9515 183.319 48.9848 182.693C49.0038 182.341 48.9186 182.037 48.841 181.763C48.7695 181.511 48.704 181.269 48.7321 181.024C48.7571 180.807 48.8814 180.669 48.9995 180.538C49.1311 180.391 49.2549 180.251 49.2276 180.024C49.2131 179.904 49.1483 179.758 49.0718 179.585C49.0415 179.517 49.0096 179.441 48.9781 179.362C49.0038 179.366 49.0268 179.367 49.0442 179.367C49.1672 179.366 49.2309 179.131 49.2949 178.905C49.3203 178.814 49.3457 178.724 49.3746 178.651C49.4808 178.371 49.5034 177.862 49.5081 177.456C49.5099 177.286 49.5521 177.134 49.602 176.959C49.6463 176.808 49.6973 176.62 49.7326 176.394C49.7528 176.264 49.793 176.167 49.8266 176.087C49.851 176.029 49.8718 175.98 49.8792 175.932C49.8855 175.89 49.8521 175.854 49.8145 175.814C49.7874 175.786 49.7581 175.754 49.74 175.717C49.6966 175.628 49.6887 175.516 49.709 175.44C49.7184 175.405 49.7339 175.377 49.7493 175.35C49.7673 175.319 49.7853 175.288 49.7939 175.244C49.8334 175.041 49.8091 174.829 49.785 174.618C49.7581 174.392 49.7349 174.13 49.7998 173.865C49.8179 173.791 49.8482 173.714 49.8792 173.64C49.8831 173.631 49.8871 173.622 49.891 173.613C49.9273 173.529 49.9625 173.447 49.978 173.376C50.0407 173.085 49.9887 172.798 49.943 172.53C49.9126 172.352 49.8848 172.184 49.895 172.031C49.9137 171.751 49.8323 171.588 49.7724 171.465C49.7414 171.401 49.716 171.349 49.7139 171.298C49.724 171.253 49.7348 171.208 49.7457 171.164C49.7601 171.125 49.7749 171.084 49.779 171.043C49.7793 171.04 49.7793 171.037 49.7796 171.034C49.8464 170.788 49.9255 170.547 50.0068 170.308C50.1899 169.77 50.3825 169.245 50.478 168.659C50.4985 168.533 50.4877 168.396 50.4781 168.255C50.4665 168.082 50.4552 167.909 50.5047 167.745C50.6228 167.352 50.8103 166.978 51.0017 166.618C51.2922 166.068 51.5894 165.557 51.6853 165.008C51.7182 164.824 51.7245 164.643 51.7352 164.455C51.741 164.35 51.7475 164.244 51.7594 164.139C51.8038 164.182 51.849 164.214 51.8912 164.244C51.9782 164.305 52.0524 164.358 52.0847 164.475C52.1605 164.753 52.2958 165.075 52.4728 165.117C52.5207 165.128 52.5688 165.154 52.617 165.181C52.7381 165.248 52.8613 165.316 52.9954 165.157C53.0852 165.05 53.3124 164.767 53.3044 164.529C53.3029 164.477 53.2734 164.432 53.2408 164.381C53.1825 164.291 53.113 164.183 53.1801 163.98C53.1914 163.946 53.2047 163.909 53.2181 163.872C53.2721 163.724 53.3357 163.558 53.2999 163.466C53.2585 163.36 53.1654 163.332 53.0564 163.3C52.9147 163.258 52.7448 163.21 52.6339 162.964C52.6121 162.915 52.6285 162.851 52.6411 162.802C52.6501 162.767 52.656 162.742 52.6462 162.734C52.6348 162.725 52.6035 162.721 52.5637 162.717C52.4236 162.701 52.1771 162.673 52.3317 162.35C52.3739 162.262 52.4354 162.168 52.4913 162.083C52.5735 161.959 52.6439 161.854 52.6178 161.823C52.608 161.811 52.5964 161.8 52.5839 161.789C52.6431 161.689 52.7032 161.589 52.7642 161.489C52.8758 161.381 52.9801 161.188 53.1052 160.963C53.1359 160.908 53.1687 160.85 53.2035 160.79C53.3278 160.598 53.4596 160.398 53.5854 160.213C53.6966 160.07 53.826 159.923 53.979 159.777C54.2821 159.49 54.6137 159.289 54.9395 159.098C55.0751 159.02 55.2103 158.943 55.3428 158.861C55.3167 158.911 55.2952 158.957 55.2831 158.995C55.2004 159.26 55.279 159.437 55.3476 159.604C55.3941 159.715 55.4383 159.819 55.4331 159.936C55.4241 160.151 55.5444 160.208 55.6323 160.251C55.678 160.273 55.7152 160.291 55.7223 160.325C55.7279 160.352 55.711 160.394 55.6937 160.438C55.6786 160.476 55.6632 160.515 55.6621 160.546C55.6491 160.917 55.7958 160.897 56.0066 160.87C56.1228 160.855 56.2592 160.839 56.4004 160.884C56.5455 160.938 56.5751 160.972 56.5366 161.141C56.6679 161.076 56.8 161.012 56.9327 160.948C56.9565 160.904 56.9391 160.846 56.9051 160.758C56.8458 160.599 56.9766 160.318 57.0853 160.097C57.1354 159.994 57.1801 159.904 57.1956 159.846C57.2788 159.537 57.0998 159.518 56.9443 159.497C56.8577 159.487 56.7775 159.478 56.7516 159.422C56.7405 159.397 56.7109 159.399 56.6808 159.401C56.6576 159.402 56.6339 159.404 56.6181 159.393C56.5044 159.316 56.5261 159.11 56.5466 158.922C56.5586 158.814 56.5708 158.71 56.5568 158.637C56.5525 158.614 56.5461 158.594 56.5397 158.575C56.5303 158.547 56.5216 158.52 56.5211 158.488C56.5201 158.414 56.5683 158.299 56.623 158.172C56.6518 158.106 56.6785 158.042 56.7024 157.977C56.733 157.892 56.7089 157.834 56.6839 157.774C56.6663 157.731 56.6484 157.686 56.649 157.63C56.6501 157.528 56.7341 157.384 56.814 157.25C56.8488 157.191 56.8825 157.134 56.9081 157.084C56.918 157.064 56.9172 157.05 56.9086 157.04C57.0293 156.82 57.1462 156.607 57.2632 156.397C57.8424 155.361 58.3803 154.462 59.5171 153.459C59.7291 153.274 59.937 153.051 60.1413 152.813C60.7872 152.221 61.4438 151.647 62.1203 151.076C62.1943 151.014 62.2677 150.952 62.3405 150.89C62.5501 150.86 62.7775 150.782 63.0133 150.658C63.459 150.422 63.8238 150.079 64.244 149.66C64.5548 149.35 64.8966 148.997 65.3277 148.602C66.0526 147.94 66.7651 147.205 67.5247 146.318C68.2794 145.434 69.1626 144.399 69.8398 143.691C70.2063 143.303 70.6841 142.976 71.1409 142.699C71.7848 142.305 72.3807 142.018 72.6068 141.632C72.6787 141.509 72.7253 141.352 72.7752 141.198C72.7835 141.172 72.792 141.147 72.8007 141.121C72.8274 141.04 72.8561 140.962 72.89 140.893C73.0915 140.786 73.2942 140.684 73.4984 140.586C73.9101 140.495 74.5091 140.329 74.9873 139.954C75.2024 139.873 75.4188 139.796 75.6286 139.725C76.0856 139.571 76.5362 139.436 76.9931 139.315C77.1431 139.275 77.2925 139.237 77.4449 139.2C77.4464 139.199 77.4478 139.199 77.4493 139.199C77.7531 139.125 78.0633 139.056 78.3661 138.995C78.4976 138.969 78.6258 138.945 78.7575 138.921C79.0876 138.861 79.4249 138.807 79.7543 138.763C79.9285 138.74 80.1069 138.718 80.2821 138.699C80.5708 138.668 80.8612 138.643 81.1492 138.626C81.6203 138.598 82.0837 138.588 82.5582 138.611C82.6332 138.615 82.7108 138.635 82.7648 138.666C82.8191 138.697 82.8482 138.737 82.8482 138.778C82.848 138.819 82.8188 138.859 82.7667 138.891C82.7148 138.923 82.6414 138.945 82.5697 138.954C82.1153 139.01 81.6749 139.096 81.2307 139.199C80.9592 139.263 80.6871 139.334 80.4176 139.41C80.2541 139.456 80.0882 139.505 79.9266 139.555C79.6211 139.65 79.3094 139.754 79.0068 139.862C78.8862 139.906 78.769 139.949 78.6491 139.994C78.3725 140.099 78.0904 140.211 77.8165 140.327C77.8148 140.328 77.8132 140.329 77.8115 140.329C77.6752 140.387 77.5424 140.445 77.4093 140.505C77.0011 140.687 76.6032 140.879 76.2047 141.088C75.9991 141.196 75.7868 141.311 75.5791 141.43C75.4633 141.496 75.3491 141.563 75.2374 141.63C75.1764 141.667 75.1148 141.704 75.0531 141.742C74.6059 142.017 74.1747 142.31 73.7645 142.622C72.8944 143.284 72.1384 144.077 71.44 144.951C70.4224 146.227 69.5232 147.66 68.5489 149.1C67.5748 150.546 66.5214 152.003 65.2998 153.363C65.1347 153.547 64.9717 153.725 64.8009 153.905C59.1788 159.841 55.0812 166.383 54.9156 174.239C54.7665 176.349 54.8407 178.712 54.9644 181.031C55.0477 182.543 55.1624 184.099 55.2951 185.623C55.4291 187.163 55.5803 188.672 55.7506 190.216C55.8028 190.687 55.8571 191.165 55.915 191.658Z" fill="#FFC422" fill-opacity="0.94"/>
<path d="M179.132 187.579C178.535 191.468 176.77 194.917 175.146 198.398C173.161 202.739 170.789 207.106 168.236 210.612C167.601 211.502 166.998 212.383 166.542 213.181C164.664 216.54 162.22 219.22 159.727 221.636C157.632 223.671 155.354 225.53 153.48 227.292C152.242 228.498 150.96 229.682 149.551 230.798C147.579 232.372 145.243 233.778 142.766 234.572C140.488 235.33 138.188 235.496 136.028 235.541C134.413 235.573 132.84 235.544 131.277 235.565L131.349 235.557C129.857 235.685 128.372 235.762 126.896 235.826C125.557 235.89 124.208 235.913 122.927 236.06C122.845 236.07 122.763 236.082 122.687 236.095C122.681 236.097 122.662 236.1 122.656 236.101C121.736 236.112 121.028 236.445 120.304 237.012C120.197 237.093 120.073 237.153 119.958 237.174C119.843 237.193 119.743 237.174 119.682 237.112C119.62 237.05 119.603 236.948 119.629 236.832C119.657 236.714 119.732 236.587 119.833 236.483C120.173 236.139 120.543 235.805 121.007 235.532C121.46 235.249 122.08 235.108 122.474 235.02L122.42 235.032C122.521 234.999 122.623 234.97 122.725 234.942C123.879 234.642 124.974 234.462 126.078 234.252C126.295 234.587 126.564 234.829 127.027 234.896C127.264 234.929 127.599 234.915 127.838 234.82C128.051 234.734 128.205 234.608 128.35 234.488C128.501 234.362 128.645 234.243 128.841 234.182C129.174 234.078 129.476 233.884 129.791 233.68C129.905 233.605 130.022 233.529 130.142 233.455C130.426 233.394 130.708 233.331 130.991 233.267C131.009 233.265 131.064 233.256 131.083 233.256C131.861 233.138 132.635 233.031 133.401 232.926C133.815 232.936 134.193 232.941 134.509 232.903C134.793 232.869 135.046 232.774 135.295 232.66C135.455 232.636 135.616 232.612 135.774 232.587C136.8 232.426 137.798 232.24 138.742 231.99C139.505 231.939 140.298 231.85 141.26 231.54C141.349 231.511 141.439 231.482 141.528 231.454C141.862 231.347 142.192 231.248 142.51 231.142C143.109 230.942 143.666 230.715 144.086 230.401C144.366 230.191 144.701 230.035 145.033 229.866C145.479 229.639 145.924 229.389 146.193 228.997C146.362 228.751 146.497 228.502 146.618 228.271C146.812 227.901 146.969 227.579 147.19 227.365C147.601 226.965 147.885 226.533 148.129 226.151C148.423 225.692 148.662 225.302 149.016 225.09C149.068 225.058 149.131 225.024 149.203 224.985C149.463 224.842 149.824 224.644 150.208 224.277C150.399 224.093 150.6 223.876 150.8 223.618C151.021 223.333 151.184 223.018 151.342 222.714C151.575 222.269 151.793 221.85 152.188 221.556C152.246 221.513 152.329 221.491 152.404 221.47C152.5 221.443 152.584 221.42 152.591 221.362C152.612 221.193 152.677 220.965 152.751 220.714C152.804 220.531 152.858 220.338 152.901 220.149C153.739 219.247 154.556 218.352 155.337 217.452C155.696 217.038 156.046 216.625 156.389 216.208C156.691 216.112 156.988 215.995 157.265 215.842C157.628 215.641 157.989 215.285 158.439 214.817C158.769 214.472 159.147 214.067 159.604 213.608C160.454 212.759 161.056 211.705 161.328 210.996C161.384 210.853 161.437 210.709 161.49 210.557C161.494 210.547 161.498 210.537 161.501 210.527C161.803 209.753 162.207 208.82 163.099 207.264C163.941 205.802 164.704 204.673 165.257 203.819C165.542 203.382 165.769 203.027 165.937 202.741C166.218 202.262 166.568 201.675 166.905 201.086C167.435 200.163 167.925 199.233 168.162 198.685C168.247 198.491 168.331 198.283 168.42 198.059C168.663 197.445 168.952 196.692 169.358 195.691C169.783 194.637 170.082 194.001 170.423 193.353C170.561 193.091 170.782 192.886 171.005 192.683C171.322 192.391 171.655 192.066 171.761 191.528C171.786 191.402 171.796 191.261 171.806 191.114C171.823 190.843 171.837 190.558 171.944 190.286C171.982 190.192 172.041 190.115 172.099 190.04C172.164 189.956 172.225 189.877 172.254 189.775C172.363 189.395 172.45 189.005 172.518 188.672C172.608 188.24 172.677 187.864 172.754 187.647C172.892 187.259 172.926 186.79 172.948 186.337C172.966 185.989 172.979 185.626 173.033 185.291C173.083 184.981 173.123 184.628 173.15 184.241C173.207 183.421 173.212 182.485 173.155 181.539C173.124 181.012 173.227 180.574 173.348 180.009C173.423 179.656 173.504 179.258 173.555 178.757C173.583 178.472 173.502 178.234 173.425 178.015C173.354 177.813 173.287 177.628 173.311 177.432C173.333 177.259 173.453 177.144 173.568 177.033C173.695 176.91 173.814 176.793 173.777 176.611C173.757 176.514 173.686 176.4 173.6 176.265C173.566 176.211 173.53 176.154 173.494 176.094C173.52 176.095 173.543 176.094 173.56 176.093C173.683 176.083 173.732 175.89 173.779 175.7C173.798 175.623 173.817 175.547 173.839 175.484C173.924 175.251 173.899 174.823 173.86 174.496C173.843 174.358 173.867 174.228 173.895 174.075C173.92 173.94 173.948 173.787 173.952 173.595C173.954 173.485 173.98 173.398 174.002 173.326C174.017 173.273 174.031 173.229 174.031 173.189C174.031 173.154 173.993 173.131 173.95 173.104C173.919 173.085 173.885 173.064 173.862 173.037C173.805 172.972 173.78 172.882 173.788 172.816C173.792 172.785 173.803 172.76 173.813 172.735C173.826 172.706 173.839 172.677 173.84 172.639C173.845 172.466 173.786 172.302 173.724 172.134C173.656 171.947 173.585 171.754 173.595 171.525C173.598 171.454 173.615 171.376 173.631 171.301C173.647 171.227 173.663 171.155 173.665 171.093C173.665 171.089 173.665 171.085 173.665 171.081C173.664 170.834 173.549 170.6 173.444 170.399C173.374 170.263 173.308 170.128 173.282 170.008C173.234 169.783 173.114 169.67 173.026 169.588C172.98 169.547 172.942 169.513 172.928 169.474C172.926 169.437 172.925 169.4 172.924 169.363C172.928 169.329 172.932 169.293 172.925 169.261C172.925 169.258 172.924 169.256 172.923 169.253C172.923 169.042 172.935 168.843 172.945 168.637C172.968 168.18 172.989 167.731 172.879 167.269C172.855 167.171 172.798 167.076 172.739 166.979C172.667 166.86 172.593 166.735 172.578 166.605C172.541 166.291 172.564 165.962 172.584 165.64C172.615 165.154 172.641 164.679 172.455 164.279C172.394 164.146 172.308 164.024 172.222 163.9C172.173 163.831 172.125 163.762 172.08 163.692C172.14 163.698 172.195 163.696 172.246 163.695C172.351 163.693 172.442 163.691 172.53 163.751C172.737 163.893 173.015 164.047 173.188 163.994C173.235 163.979 173.289 163.974 173.344 163.97C173.482 163.959 173.622 163.949 173.655 163.774C173.678 163.657 173.722 163.354 173.586 163.194C173.556 163.159 173.507 163.144 173.452 163.127C173.354 163.096 173.239 163.059 173.181 162.894C173.172 162.867 173.162 162.836 173.152 162.805C173.114 162.679 173.07 162.54 172.988 162.501C172.894 162.456 172.802 162.488 172.696 162.525C172.557 162.573 172.392 162.63 172.161 162.54C172.115 162.523 172.091 162.476 172.073 162.441C172.061 162.416 172.051 162.397 172.038 162.398C172.024 162.398 171.996 162.413 171.962 162.431C171.839 162.495 171.626 162.605 171.561 162.336C171.543 162.264 171.537 162.178 171.531 162.101C171.522 161.988 171.514 161.894 171.475 161.889C171.46 161.888 171.444 161.888 171.427 161.889C171.413 161.8 171.399 161.711 171.384 161.623C171.404 161.501 171.365 161.344 171.316 161.149C171.304 161.102 171.291 161.052 171.279 161C171.248 160.826 171.217 160.653 171.185 160.479C171.171 160.339 171.166 160.188 171.177 160.024C171.197 159.695 171.287 159.389 171.372 159.089C171.408 158.963 171.443 158.837 171.472 158.711C171.491 158.751 171.51 158.788 171.53 158.814C171.666 158.996 171.846 159.036 172.013 159.074C172.123 159.099 172.228 159.122 172.308 159.187C172.454 159.304 172.577 159.257 172.668 159.222C172.716 159.204 172.754 159.189 172.783 159.203C172.806 159.214 172.825 159.248 172.843 159.283C172.86 159.314 172.877 159.346 172.898 159.364C173.151 159.581 173.239 159.476 173.367 159.319C173.437 159.233 173.52 159.132 173.649 159.062C173.788 158.995 173.833 158.994 173.927 159.12C173.971 158.992 174.015 158.863 174.059 158.734C174.043 158.692 173.989 158.671 173.902 158.645C173.747 158.598 173.628 158.345 173.532 158.148C173.488 158.057 173.45 157.978 173.416 157.936C173.237 157.717 173.107 157.833 172.992 157.934C172.929 157.99 172.87 158.041 172.811 158.031C172.786 158.026 172.768 158.048 172.75 158.069C172.735 158.086 172.721 158.103 172.703 158.109C172.572 158.149 172.433 158.032 172.303 157.924C172.229 157.862 172.157 157.804 172.093 157.779C172.073 157.772 172.054 157.767 172.036 157.762C172.008 157.756 171.983 157.749 171.958 157.735C171.901 157.701 171.844 157.615 171.781 157.521C171.749 157.473 171.715 157.422 171.679 157.376C171.632 157.316 171.573 157.308 171.511 157.299C171.467 157.293 171.421 157.286 171.378 157.261C171.3 157.217 171.239 157.096 171.181 156.986C171.157 156.938 171.132 156.891 171.108 156.853C171.098 156.837 171.086 156.832 171.073 156.834C170.97 156.656 170.868 156.488 170.766 156.326C170.256 155.515 169.808 154.845 169.45 153.732C169.382 153.523 169.274 153.309 169.152 153.109C168.994 152.728 168.828 152.354 168.653 151.991C168.484 151.649 168.313 151.303 168.142 150.953C168.168 150.75 168.157 150.521 168.106 150.27C168.017 149.805 167.812 149.382 167.575 148.888C167.399 148.52 167.203 148.112 167.02 147.615C166.71 146.776 166.371 145.927 165.925 145.006C165.481 144.089 164.952 143.052 164.564 142.325C164.352 141.929 164.218 141.464 164.094 141.03C163.919 140.42 163.762 139.873 163.432 139.669C163.327 139.604 163.185 139.564 163.046 139.525C162.948 139.497 162.851 139.469 162.771 139.434C162.694 139.263 162.618 139.092 162.541 138.921C162.489 138.571 162.357 138.056 161.992 137.689C161.913 137.513 161.835 137.337 161.759 137.165C161.594 136.794 161.433 136.428 161.272 136.061C161.219 135.942 161.165 135.819 161.112 135.698C161.111 135.697 161.111 135.695 161.11 135.694C161.003 135.45 160.894 135.203 160.788 134.96C160.743 134.856 160.698 134.752 160.652 134.649C160.536 134.383 160.421 134.119 160.306 133.856C160.246 133.717 160.185 133.577 160.124 133.437C160.026 133.211 159.925 132.979 159.827 132.753C159.667 132.382 159.51 132.017 159.351 131.647C159.325 131.587 159.313 131.522 159.318 131.467C159.324 131.412 159.346 131.37 159.382 131.35C159.418 131.33 159.466 131.334 159.516 131.358C159.565 131.383 159.613 131.428 159.651 131.481C159.879 131.812 160.106 132.14 160.335 132.473C160.474 132.676 160.618 132.884 160.757 133.087C160.844 133.213 160.93 133.338 161.016 133.464C161.178 133.7 161.341 133.937 161.505 134.177C161.569 134.27 161.632 134.364 161.696 134.457C161.847 134.677 161.999 134.9 162.15 135.121C162.151 135.122 162.151 135.124 162.152 135.125C162.227 135.234 162.301 135.343 162.375 135.451C162.6 135.782 162.825 136.112 163.053 136.448C163.172 136.623 163.294 136.803 163.416 136.984C163.484 137.084 163.552 137.184 163.619 137.282C163.655 137.336 163.692 137.39 163.729 137.445C164.579 138.701 165.421 139.95 166.267 141.211C167.111 142.468 167.952 143.727 168.79 144.984C169.629 146.241 170.467 147.5 171.304 148.752C171.575 149.157 171.855 149.574 172.126 149.976C176.172 156.376 177.497 163.61 178.63 170.534C178.964 172.651 179.362 174.902 179.541 177.274C179.657 178.75 179.687 180.285 179.643 181.757C179.612 182.839 179.546 183.886 179.452 184.942C179.414 185.357 179.371 185.769 179.323 186.179C179.269 186.632 179.205 187.107 179.132 187.579Z" fill="#FFC422" fill-opacity="0.94"/>
<path d="M42.3949 164.492C41.3719 167.073 40.2717 169.859 39.6661 172.821C39.541 173.435 39.4438 174.084 39.3822 174.737C38.9665 179.353 39.7554 184.233 40.0191 189C40.1892 191.842 40.4286 195.03 40.8274 197.407C41.1178 198.858 41.7679 200.359 42.5967 202.037C43.1181 203.101 43.6966 204.237 44.2203 205.462C45.74 209.109 46.7559 212.575 48.0717 215.946C48.587 217.285 49.1323 218.604 49.7255 219.898C51.0537 222.866 52.8901 225.474 55.2437 227.867C55.3951 228.024 55.5479 228.18 55.7032 228.336C57.6628 230.317 60.4942 231.651 63.3429 232.758C63.6649 232.883 63.9884 233.005 64.3129 233.125L64.2965 233.12C65.3565 233.479 66.4134 233.848 67.4646 234.241C67.9768 234.432 68.487 234.63 68.994 234.837C69.5023 235.045 70.0107 235.252 70.5191 235.46C70.6597 235.518 70.7844 235.603 70.8652 235.699C70.946 235.795 70.9766 235.894 70.949 235.977C70.9212 236.06 70.8368 236.12 70.7141 236.149C70.5915 236.177 70.4406 236.169 70.2937 236.131C69.7633 235.991 69.233 235.851 68.7026 235.711C68.175 235.572 67.6436 235.443 67.1098 235.319C66.0433 235.072 64.9701 234.848 63.8925 234.633C63.8877 234.631 63.8732 234.628 63.8685 234.626C63.7528 234.6 63.6355 234.572 63.519 234.545C63.436 234.147 63.2599 233.811 62.8233 233.547C62.6002 233.413 62.2581 233.275 61.979 233.25C61.7288 233.229 61.5196 233.269 61.3198 233.306C61.1109 233.344 60.9111 233.379 60.6864 233.334C60.3048 233.257 59.908 233.266 59.4864 233.265C59.333 233.265 59.1762 233.263 59.0161 233.256C57.8679 232.843 56.7247 232.353 55.6157 231.719C55.2232 231.419 54.8721 231.128 54.556 230.9C54.3177 230.729 54.0713 230.595 53.8172 230.468C53.7724 230.447 53.7273 230.427 53.6821 230.407C53.5363 230.292 53.3898 230.175 53.245 230.058C52.3065 229.301 51.3822 228.495 50.5006 227.619C49.9249 226.836 49.3429 225.997 48.6154 224.902C48.3023 224.429 48.0373 223.934 47.7977 223.457C47.443 222.75 47.1426 222.08 46.7945 221.538C46.782 221.519 46.7696 221.499 46.7574 221.479C46.5466 221.135 46.3952 220.74 46.2488 220.345C46.0414 219.787 45.8434 219.227 45.4902 218.803C45.268 218.537 45.0418 218.3 44.8339 218.082C44.502 217.731 44.2151 217.423 44.0603 217.097C43.7699 216.484 43.4357 215.992 43.1425 215.555C42.7904 215.031 42.4992 214.591 42.4264 214.129C42.4156 214.06 42.4057 213.979 42.395 213.887C42.3391 213.407 42.2518 212.636 41.7471 211.702C41.5666 211.368 41.3354 211.084 41.1076 210.805C40.7763 210.401 40.4557 210.016 40.315 209.521C40.2943 209.448 40.3002 209.358 40.3062 209.277C40.3136 209.173 40.3201 209.083 40.2679 209.055C40.1138 208.968 39.9187 208.817 39.7043 208.653C39.5478 208.534 39.3805 208.408 39.216 208.303C39.1526 208.181 39.0883 208.059 39.0249 207.941C38.5094 206.98 37.9026 205.998 37.2634 204.925C36.9358 204.374 36.6004 203.798 36.2727 203.188C36.2598 202.8 36.2335 202.408 36.1746 202.008C36.0988 201.485 35.877 200.856 35.653 200.004C35.5576 199.638 35.4632 199.232 35.388 198.779C35.3292 198.433 35.2909 198.073 35.2726 197.748C35.184 196.236 34.9662 194.813 34.753 193.884C34.708 193.685 34.6636 193.499 34.6148 193.287C34.4329 192.493 34.204 191.505 33.9163 189.6C33.6469 187.808 33.5269 186.261 33.4504 185.102C33.4112 184.509 33.3835 184.017 33.3523 183.639C33.2989 182.992 33.2506 182.196 33.2136 181.393C33.1541 180.137 33.128 178.867 33.0896 178.139C33.0755 177.881 33.058 177.61 33.0414 177.314C32.9968 176.502 32.9486 175.508 33.0226 174.122C33.0732 173.207 33.1664 172.495 33.2868 171.872C33.3559 171.518 33.4356 171.178 33.5234 170.847C33.6213 170.476 33.8143 170.174 34.0166 169.863C34.304 169.424 34.6071 168.972 34.6965 168.291C34.7172 168.133 34.7242 167.959 34.7324 167.776C34.747 167.444 34.7672 167.08 34.8893 166.731C34.9316 166.611 34.9964 166.512 35.0603 166.414C35.1307 166.307 35.1997 166.203 35.2382 166.074C35.3823 165.59 35.5156 165.118 35.6427 164.695C35.8058 164.152 35.9581 163.696 36.0911 163.427C36.3278 162.948 36.4931 162.385 36.6847 161.813C36.8309 161.375 36.992 160.932 37.2065 160.523C37.8238 159.363 38.6345 157.696 40.0648 156.039C40.1388 155.954 40.2145 155.873 40.292 155.796C40.6596 155.424 41.0546 155.16 41.5468 154.832C41.9005 154.597 42.301 154.333 42.7791 153.971C43.0461 153.77 43.2087 153.52 43.3554 153.292C43.4946 153.078 43.6162 152.888 43.8133 152.754C43.9855 152.638 44.164 152.648 44.3362 152.655C44.5281 152.662 44.7082 152.669 44.8495 152.509C44.9253 152.423 44.9879 152.281 45.0596 152.116C45.0883 152.05 45.1177 151.981 45.1525 151.908C45.1669 151.93 45.1815 151.948 45.1931 151.961C45.275 152.052 45.4831 151.953 45.6838 151.859C45.7632 151.822 45.8455 151.782 45.9167 151.757C46.1793 151.663 46.5536 151.354 46.8318 151.102C46.9484 150.996 47.0804 150.93 47.2358 150.853C47.373 150.785 47.5272 150.708 47.7049 150.587C47.8059 150.518 47.8977 150.485 47.9766 150.456C48.0331 150.435 48.081 150.417 48.1173 150.392C48.1488 150.37 48.1487 150.323 48.1485 150.271C48.1483 150.233 48.1482 150.192 48.1597 150.155C48.1868 150.067 48.2561 149.988 48.32 149.952C48.3497 149.936 48.3784 149.929 48.4068 149.923C48.44 149.915 48.473 149.907 48.5077 149.885C48.6684 149.779 48.7811 149.628 48.899 149.47C49.0294 149.296 49.1641 149.117 49.3726 148.984C49.4374 148.943 49.5172 148.908 49.594 148.875C49.6743 148.84 49.7516 148.806 49.8075 148.767C50.0379 148.605 50.1793 148.368 50.3084 148.15C50.396 148.004 50.4771 147.868 50.5761 147.768C50.7587 147.584 50.7936 147.415 50.8208 147.29C50.8346 147.225 50.8455 147.172 50.8729 147.135C50.9054 147.111 50.9405 147.086 50.9742 147.062C51.008 147.043 51.0428 147.024 51.0687 146.999C51.0707 146.997 51.0725 146.995 51.0744 146.993C51.2644 146.864 51.459 146.746 51.6528 146.628C51.8706 146.495 52.0895 146.362 52.2956 146.217C52.5004 146.074 52.6966 145.916 52.8779 145.73C52.9568 145.65 53.0154 145.542 53.0748 145.432C53.1475 145.298 53.2223 145.16 53.3376 145.066C53.6127 144.841 53.9312 144.661 54.245 144.484C54.717 144.217 55.1786 143.955 55.4659 143.555C55.5607 143.423 55.6363 143.275 55.7118 143.126C55.7539 143.043 55.7966 142.959 55.842 142.878C55.8658 142.934 55.8938 142.981 55.92 143.026C55.9738 143.117 56.0199 143.195 56.0058 143.307C55.9726 143.573 55.9644 143.906 56.1006 144.025C56.1377 144.058 56.1691 144.103 56.2003 144.148C56.2787 144.262 56.3592 144.377 56.5396 144.305C56.6613 144.256 56.9667 144.122 57.0517 143.909C57.0702 143.863 57.0611 143.811 57.0507 143.753C57.0321 143.65 57.0101 143.527 57.1396 143.382C57.1614 143.358 57.1858 143.332 57.2109 143.305C57.3111 143.2 57.4242 143.082 57.4229 142.987C57.4212 142.878 57.347 142.815 57.2607 142.742C57.1483 142.646 57.0147 142.533 56.9923 142.276C56.9879 142.226 57.0218 142.178 57.0474 142.141C57.0655 142.116 57.0791 142.096 57.0728 142.085C57.0655 142.073 57.0387 142.056 57.0049 142.036C56.8853 141.964 56.6768 141.839 56.9098 141.625C56.9726 141.567 57.0538 141.512 57.1269 141.462C57.2351 141.388 57.3233 141.328 57.3097 141.289C57.3043 141.275 57.2971 141.261 57.289 141.246C57.3697 141.183 57.4515 141.118 57.5321 141.055C57.6607 141.004 57.8007 140.878 57.9716 140.725C58.0134 140.687 58.0576 140.648 58.104 140.607C58.2646 140.482 58.4246 140.356 58.5853 140.231C58.7191 140.142 58.8721 140.052 59.0404 139.973C59.3809 139.812 59.7279 139.731 60.0653 139.654C60.2076 139.621 60.3505 139.587 60.4884 139.55C60.4546 139.588 60.4258 139.625 60.4068 139.657C60.2757 139.878 60.3093 140.066 60.3399 140.238C60.3605 140.353 60.3787 140.462 60.348 140.569C60.2917 140.764 60.3901 140.853 60.4625 140.919C60.5001 140.953 60.5305 140.981 60.5293 141.014C60.5283 141.041 60.5025 141.075 60.4759 141.11C60.453 141.141 60.4285 141.173 60.4198 141.201C60.3137 141.545 60.4558 141.57 60.6618 141.607C60.7755 141.628 60.9093 141.651 61.0311 141.735C61.1542 141.828 61.1754 141.868 61.0931 142.017C61.2364 141.993 61.3768 141.971 61.5195 141.947C61.5532 141.912 61.551 141.852 61.5403 141.76C61.5204 141.595 61.7165 141.362 61.8691 141.18C61.9396 141.096 62.0015 141.022 62.0287 140.972C62.1726 140.701 62.0072 140.636 61.863 140.577C61.7837 140.545 61.7094 140.516 61.6966 140.456C61.691 140.43 61.6627 140.424 61.634 140.418C61.6118 140.413 61.5891 140.408 61.5764 140.394C61.4849 140.291 61.5463 140.105 61.6039 139.932C61.637 139.832 61.6688 139.737 61.6695 139.665C61.6698 139.643 61.6674 139.622 61.6648 139.603C61.661 139.574 61.6576 139.547 61.663 139.517C61.6751 139.447 61.7406 139.352 61.8134 139.247C61.8506 139.193 61.8902 139.137 61.9235 139.081C61.9672 139.009 61.9542 138.949 61.9409 138.886C61.9315 138.841 61.9221 138.795 61.932 138.742C61.9498 138.646 62.0532 138.53 62.147 138.424C62.1882 138.377 62.228 138.332 62.2591 138.291C62.2718 138.274 62.2733 138.26 62.2667 138.249C62.4184 138.065 62.5567 137.891 62.6965 137.717C62.8097 137.575 62.9217 137.436 63.0354 137.298C63.5866 136.619 64.1428 135.997 65.0785 135.329C65.2935 135.175 65.4978 134.988 65.6979 134.785C66.4117 134.227 67.1331 133.658 67.8636 133.09C68.0834 133.061 68.3194 132.992 68.5739 132.878C69.0511 132.665 69.4616 132.353 69.9553 131.988C70.3201 131.719 70.7311 131.421 71.2482 131.121C72.1173 130.618 73.0101 130.105 74.003 129.52C74.6347 129.147 75.3324 128.754 75.9692 128.414C76.3271 128.222 76.6651 128.044 76.9589 127.891C77.4035 127.658 77.9204 127.512 78.4024 127.384C79.0806 127.204 79.6877 127.061 79.9482 126.733C80.0311 126.628 80.0939 126.484 80.1548 126.345C80.1983 126.245 80.2417 126.148 80.2912 126.068C80.4891 125.997 80.6851 125.929 80.8833 125.861C81.2734 125.828 81.8516 125.731 82.3143 125.396C82.5219 125.332 82.7247 125.272 82.9266 125.213C83.3597 125.087 83.7913 124.969 84.2228 124.858C84.3657 124.822 84.5074 124.787 84.6509 124.751C84.6523 124.751 84.6537 124.751 84.6551 124.751C84.9455 124.679 85.2379 124.611 85.5245 124.549C85.6493 124.522 85.7728 124.495 85.8952 124.47C86.212 124.404 86.5281 124.344 86.8418 124.289C87.0088 124.26 87.1745 124.233 87.3444 124.207C87.6151 124.165 87.8945 124.127 88.1695 124.095C88.6162 124.043 89.0636 124.007 89.514 123.996C89.5902 123.995 89.6631 124.008 89.717 124.035C89.7709 124.062 89.802 124.1 89.8053 124.141C89.8086 124.181 89.784 124.223 89.737 124.26C89.6899 124.295 89.6238 124.323 89.5515 124.337C89.1243 124.425 88.7031 124.537 88.2848 124.662C88.0273 124.74 87.7666 124.824 87.5148 124.91C87.3566 124.963 87.2029 125.017 87.0478 125.073C86.7569 125.179 86.4638 125.289 86.1713 125.404C86.0584 125.449 85.9445 125.495 85.8294 125.541C85.5651 125.649 85.2954 125.762 85.0282 125.877C85.0266 125.878 85.0249 125.879 85.0233 125.879C84.8928 125.936 84.7637 125.993 84.634 126.05C84.239 126.226 83.845 126.408 83.451 126.596C83.2443 126.696 83.0348 126.798 82.8233 126.903C82.7071 126.96 82.5907 127.019 82.476 127.077C82.4129 127.109 82.3507 127.141 82.2873 127.173C80.8324 127.919 79.4279 128.725 78.0624 129.602C77.7202 129.822 77.3815 130.046 77.0464 130.275C76.0536 130.951 75.1055 131.672 74.1977 132.44C72.9802 133.466 71.8315 134.578 70.6715 135.732C69.0812 137.319 67.4587 138.966 65.7638 140.552C62.388 143.717 59.0757 146.934 55.6584 150.139C53.0166 152.596 50.4412 154.995 47.8914 157.467C46.8455 158.479 45.7785 159.52 44.7344 160.548C44.7222 160.561 44.7099 160.573 44.6976 160.586C44.0333 161.271 43.4097 162.257 42.8735 163.392C42.7099 163.738 42.5504 164.104 42.3949 164.492Z" fill="#FFC422" fill-opacity="0.94"/>
<defs>
<filter id="filter0_d_7_401" x="0.229126" y="0.276413" width="228.648" height="305.317" filterUnits="userSpaceOnUse" color-interpolation-filters="sRGB">
<feFlood flood-opacity="0" result="BackgroundImageFix"/>
<feColorMatrix in="SourceAlpha" type="matrix" values="0 0 0 0 0 0 0 0 0 0 0 0 0 0 0 0 0 0 127 0" result="hardAlpha"/>
<feOffset dy="4"/>
<feGaussianBlur stdDeviation="2"/>
<feComposite in2="hardAlpha" operator="out"/>
<feColorMatrix type="matrix" values="0 0 0 0 0 0 0 0 0 0 0 0 0 0 0 0 0 0 0.25 0"/>
<feBlend mode="normal" in2="BackgroundImageFix" result="effect1_dropShadow_7_401"/>
<feBlend mode="normal" in="SourceGraphic" in2="effect1_dropShadow_7_401" result="shape"/>
</filter>
</defs>
</svg>
