<svg width="279" height="224" viewBox="0 0 279 224" fill="none" xmlns="http://www.w3.org/2000/svg">
<path d="M95 101.5C106.333 101.5 115.5 110.466 115.5 121.5C115.5 132.534 106.333 141.5 95 141.5C83.6667 141.5 74.5 132.534 74.5 121.5C74.5 110.466 83.6667 101.5 95 101.5Z" fill="white" stroke="black"/>
<ellipse cx="96.5" cy="117" rx="13.5" ry="12" fill="black"/>
<ellipse cx="103" cy="114.5" rx="2" ry="2.5" fill="#D9D9D9"/>
<ellipse cx="97.5" cy="111" rx="2.5" ry="2" fill="#D9D9D9"/>
<path d="M34.2698 155.595C22.1266 154.411 11.019 163.868 15.4005 175.255C18.1024 182.277 22.3313 188.725 27.8072 194.171C33.2832 199.618 39.8814 203.939 47.1655 206.85C54.4496 209.76 62.2535 211.193 70.061 211.054C77.8684 210.915 85.5015 209.207 92.4552 206.043C99.4089 202.879 105.525 198.331 110.398 192.7C115.272 187.069 118.792 180.484 120.726 173.379C123.974 161.443 111.979 152.784 99.7191 154.434L72.8039 158.055C69.0934 158.554 65.3376 158.623 61.6113 158.259L34.2698 155.595Z" fill="black"/>
<path d="M36 101.5C47.3333 101.5 56.5 110.466 56.5 121.5C56.5 132.534 47.3333 141.5 36 141.5C24.6667 141.5 15.5 132.534 15.5 121.5C15.5 110.466 24.6667 101.5 36 101.5Z" fill="white" stroke="black"/>
<ellipse cx="35.5" cy="127" rx="13.5" ry="12" fill="black"/>
<ellipse cx="40" cy="121.5" rx="2" ry="2.5" fill="#D9D9D9"/>
<ellipse cx="42.5" cy="125" rx="2.5" ry="2" fill="#D9D9D9"/>
<path d="M51.0662 167.714C51.0096 168.137 50.9102 168.782 50.4669 169.699C50.5753 169.478 50.7571 168.986 50.5078 168.336C50.241 167.687 49.7488 167.457 49.5687 167.39C49.3209 167.329 49.4969 167.4 49.7136 167.379C49.7253 167.379 49.7372 167.378 49.7495 167.377C49.9101 167.37 50.092 167.348 50.3173 167.319C50.6874 167.273 51.1821 167.201 52.0042 167.154C52.37 167.134 52.7978 167.118 53.3091 167.11C53.7774 167.07 54.2451 167.037 54.7104 167.009C55.434 166.966 56.1555 166.936 56.8499 166.903C57.1938 166.886 57.5384 166.868 57.8326 166.842C57.9785 166.83 58.1188 166.812 58.1856 166.801C58.2147 166.797 58.2335 166.787 58.1477 166.82C58.1036 166.839 58.0303 166.862 57.8631 166.979C57.7259 167.08 57.3435 167.383 57.2205 168.008C57.437 167.006 57.5124 166.023 57.8215 164.709C58.0833 163.655 58.2531 162.333 58.4084 161.079C58.4884 160.486 58.4577 159.49 58.3797 159.163C58.382 159.152 58.3886 159.187 58.468 159.286C58.5396 159.383 58.7411 159.537 58.9189 159.583C59.0003 159.61 59.0686 159.619 59.1078 159.622C59.1548 159.626 59.1656 159.623 59.1245 159.628C58.03 159.749 56.6665 159.91 56.0649 160.032C56.0196 160.043 55.9748 160.053 55.9307 160.063C55.0001 160.29 53.9389 160.484 53.1372 160.388C52.7764 160.37 52.4063 160.239 52.1399 160.064C51.737 159.811 51.5161 159.507 51.3637 159.266C51.2881 159.145 51.2289 159.031 51.1845 158.943C51.1631 158.9 51.1442 158.861 51.1403 158.852C51.1395 158.848 51.14 158.85 51.1643 158.886C51.1766 158.903 51.1966 158.932 51.24 158.982C51.2952 159.037 51.3479 159.13 51.6243 159.277C51.5947 159.262 51.5588 159.244 51.5051 159.21C51.4782 159.193 51.4466 159.172 51.407 159.142C51.3841 159.112 51.1977 159.029 51.006 158.632C50.9127 158.433 50.8374 158.065 50.9557 157.707C51.0661 157.357 51.3025 157.132 51.4646 157.023C51.7936 156.813 51.9706 156.823 52.0175 156.809C52.1134 156.796 52.1677 156.796 52.2115 156.796C52.3486 156.799 52.3661 156.806 52.3961 156.809C52.4539 156.818 52.4761 156.823 52.4997 156.828C52.5463 156.838 52.5755 156.846 52.6057 156.854C52.6632 156.87 52.7112 156.886 52.7588 156.903C52.8534 156.936 52.9422 156.972 53.0354 157.017C53.2207 157.108 53.4217 157.214 53.6627 157.45C54.7968 158.852 54.357 159.89 54.2241 160.745C53.9516 162.273 52.4943 163.448 52.2921 163.937C51.8422 164.846 51.3652 165.815 51.0917 166.638C51.1002 166.597 51.1129 166.564 51.1026 166.443C51.0939 166.381 51.0852 166.29 51.0021 166.135C50.9298 165.986 50.6908 165.75 50.427 165.688C50.3211 165.653 50.134 165.687 50.0886 165.72C50.0353 165.75 50.0656 165.742 50.1062 165.698C50.6003 165.152 51.0602 163.856 51.7181 162.705C51.7248 162.694 51.7315 162.682 51.7383 162.67C52.2333 161.819 52.5109 160.785 53.1051 159.592C53.1248 159.551 53.146 159.509 53.1672 159.467C53.2092 159.392 53.2315 159.333 53.3562 159.172C53.3961 159.127 53.4285 159.076 53.5678 158.968C53.6444 158.92 53.7332 158.825 54.0542 158.762C54.2137 158.734 54.4631 158.746 54.6777 158.848C54.9035 158.955 55.0209 159.085 55.1071 159.202C55.3539 159.606 55.2884 159.669 55.3152 159.76C55.3235 159.842 55.3232 159.887 55.3234 159.927C55.3157 160.207 55.294 160.293 55.2764 160.43C55.2211 160.827 55.1635 161.208 55.1031 161.57C54.9636 162.406 54.8049 163.152 54.6349 163.755C54.4733 164.331 54.2663 164.933 54.0434 165.505C53.9321 165.792 53.8178 166.069 53.7156 166.323C53.6155 166.562 53.5241 166.843 53.524 166.832C53.4615 167.234 53.3803 167.406 53.3797 167.422C53.3736 167.424 53.3873 167.448 53.3765 167.251C53.3699 167.194 53.3653 167.12 53.3137 166.973C53.2642 166.838 53.1332 166.555 52.7921 166.358C52.4485 166.166 52.1418 166.198 51.9986 166.225C51.8461 166.256 51.7766 166.292 51.7268 166.315C51.5142 166.434 51.5694 166.424 51.5626 166.425C51.5707 166.42 51.5929 166.4 51.6166 166.377C51.6726 166.321 51.726 166.267 51.7767 166.215C52.3786 165.523 52.9252 164.797 53.4182 164.031C53.4632 163.988 53.509 163.944 53.5549 163.9C54.153 163.339 54.5629 162.528 55.5021 161.054C55.504 161.051 55.506 161.048 55.508 161.045C55.7979 160.612 56.2063 160.194 56.3229 159.989C56.3397 159.965 56.31 159.999 56.4499 159.762C56.4935 159.712 56.4666 159.684 56.7212 159.471C56.7998 159.417 56.9064 159.332 57.157 159.279C57.3934 159.214 57.816 159.32 57.981 159.465C58.3353 159.765 58.304 159.875 58.3541 159.963C58.4371 160.229 58.4122 160.231 58.423 160.293C58.4295 160.385 58.4287 160.432 58.4289 160.482C58.4279 160.699 58.4208 160.92 58.4057 161.151C58.3586 161.823 58.2318 162.157 58.1333 162.423C58.1037 162.5 58.0749 162.574 58.0486 162.647C57.9578 162.9 57.9428 163.181 57.912 163.512C57.8736 163.94 57.7995 164.46 57.5266 165.033C57.359 165.386 57.2276 165.688 57.1379 165.95C57.0179 166.27 57.0027 166.687 56.9258 167.11C56.917 167.106 56.9673 167.234 56.9132 166.951C56.881 166.878 56.846 166.648 56.4641 166.453C56.0546 166.285 55.8089 166.432 55.7311 166.463C55.5633 166.555 55.5804 166.563 55.5651 166.564C55.6994 166.367 55.7867 166.19 55.8578 166.029C55.9274 165.873 55.9806 165.734 56.0444 165.596C56.2541 165.155 56.5707 164.549 56.8032 164.003C57.0046 163.605 57.037 162.773 57.4448 161.765C57.455 161.733 57.4635 161.702 57.4706 161.671C57.5054 161.517 57.5633 161.322 57.5637 161.046C57.5635 161.113 57.5701 161.182 57.5836 161.249C57.6817 161.666 57.8937 161.785 57.9437 161.83C58.01 161.875 58.0172 161.873 58.0074 161.87C57.9836 161.86 57.8945 161.833 57.794 161.811C57.5872 161.764 57.3225 161.724 57.0393 161.693C56.1007 161.595 55.392 161.52 54.8454 161.441C54.3181 161.364 53.7526 161.06 53.4167 160.666C53.1366 160.348 52.9881 160.026 52.8893 159.75C52.7854 159.457 52.7326 159.173 52.6947 158.945C52.6764 158.835 52.6592 158.729 52.65 158.703C52.6484 158.696 52.6375 158.699 52.682 158.826C52.7096 158.891 52.7412 158.997 52.9025 159.188C53.0408 159.369 53.4459 159.622 53.7938 159.636C53.621 159.623 53.4701 159.599 53.2803 159.541C53.1821 159.509 53.0816 159.477 52.9108 159.382C52.822 159.328 52.7195 159.277 52.5355 159.089C52.447 158.99 52.322 158.854 52.2133 158.564C52.0976 158.288 52.0921 157.778 52.2549 157.452C52.3963 157.112 52.7128 156.802 52.978 156.664C53.2474 156.517 53.4598 156.476 53.6256 156.451C54.521 156.387 54.7647 156.557 55.1895 156.691C56.1421 157.095 56.5311 157.734 56.8101 158.143C56.8819 158.258 56.9438 158.377 56.9923 158.482C57.7178 161.196 56.8564 162.552 56.4716 164.198C56.4113 164.398 56.3426 164.596 56.2812 164.754L56.2946 164.694C56.1358 165.223 55.9262 165.622 55.7345 165.923L55.7505 165.829C55.7108 165.877 55.666 165.985 55.6166 166.085C55.2873 166.765 54.863 166.98 54.5513 166.898C54.2288 166.815 54.032 166.4 53.8457 165.889C53.8171 165.806 53.7873 165.719 53.7711 165.577C53.7736 165.562 53.78 165.518 53.7837 165.503C53.7482 165.067 53.7825 164.609 53.8117 164.2C53.814 164.19 53.82 164.16 53.8228 164.15C53.8555 163.927 53.8967 163.723 53.944 163.521C54.1326 162.72 54.2992 161.948 54.3848 161.208C54.4861 160.509 54.4102 159.653 54.3109 159.602C54.3107 159.602 54.3105 159.602 54.3104 159.602C54.1683 159.364 54.0184 159.286 54.0878 159.339C54.0065 159.308 53.8926 159.281 53.8675 159.282C53.8597 159.28 53.8645 159.294 53.9983 159.281C54.0661 159.271 54.1786 159.256 54.3536 159.162C54.5251 159.076 54.7565 158.853 54.8559 158.616C55.0029 158.323 55.0007 157.859 54.8979 157.609C54.8015 157.348 54.6928 157.229 54.6189 157.145C54.4652 156.986 54.3935 156.954 54.3359 156.917C54.2273 156.855 54.1897 156.846 54.1554 156.833C54.0929 156.812 54.0716 156.809 54.0281 156.803C54.3968 156.819 54.8191 157.061 54.9992 157.272C55.202 157.494 55.2629 157.649 55.312 157.758C55.4032 157.985 55.4175 158.095 55.4382 158.191C55.4722 158.376 55.4826 158.479 55.4966 158.572C55.5212 158.752 55.5477 158.86 55.565 158.902C55.5827 158.946 55.5733 158.891 55.5046 158.827C55.4373 158.761 55.3562 158.738 55.3717 158.742C55.6427 158.794 55.9177 158.842 56.1964 158.889C56.668 158.97 57.1492 159.043 57.6623 159.135C57.9217 159.183 58.1837 159.232 58.4964 159.314C58.6556 159.358 58.8217 159.403 59.0607 159.508C59.1841 159.566 59.3222 159.625 59.5376 159.796C59.7247 159.944 60.1482 160.373 60.1466 161.053C60.1444 161.678 59.9944 162.349 59.6788 162.936C59.6775 162.939 59.6763 162.941 59.675 162.943C59.6447 162.999 59.6102 163.076 59.5755 163.17C59.3977 164.015 59.1458 165.569 58.6636 166.475C58.2885 167.249 57.8579 167.729 57.4917 168.096C57.4544 168.133 57.4173 168.169 57.3802 168.205C57.3278 168.259 57.2737 168.314 57.18 168.392C57.0811 168.467 56.9786 168.568 56.6636 168.691C56.507 168.746 56.2599 168.818 55.9138 168.775C55.5689 168.739 55.1911 168.522 55.0063 168.319C54.6345 167.901 54.6351 167.677 54.5893 167.524C54.5058 166.971 54.5759 166.859 54.614 166.613C54.619 166.592 54.6234 166.57 54.6273 166.547C54.6431 166.455 54.6563 166.312 54.6864 166.043C54.7081 165.858 54.7418 165.61 54.8117 165.331C55.1016 164.201 55.542 163.106 55.7722 162.064C55.8849 161.592 55.9905 161.046 56.0446 160.489C56.047 160.474 56.049 160.461 56.0516 160.465C56.053 160.469 56.0542 160.475 56.058 160.501C56.0671 160.536 56.0506 160.539 56.122 160.762C56.1539 160.84 56.1636 160.903 56.3049 161.104C56.3666 161.185 56.4841 161.329 56.6995 161.454C56.8915 161.577 57.2664 161.661 57.5145 161.62C58.0184 161.534 58.1304 161.364 58.2246 161.298C58.3081 161.222 58.3429 161.176 58.3706 161.142C58.4644 161.016 58.4564 161.01 58.4663 160.994C58.4745 160.974 58.4587 160.998 58.4425 161.025C58.4201 161.062 58.3901 161.113 58.351 161.174C57.8552 161.864 57.5421 162.049 57.3518 162.303C57.1242 162.587 56.9404 162.872 56.8336 163.076C56.448 163.827 55.8864 164.715 55.3303 165.453C54.8024 166.162 54.2942 166.743 54.0548 167.112C53.8474 167.431 53.622 167.686 53.3312 167.971C53.2561 168.045 53.1871 168.116 53.0352 168.235C52.9952 168.265 52.9483 168.3 52.8731 168.346C52.7875 168.39 52.7143 168.462 52.4001 168.523C52.2405 168.549 51.9319 168.561 51.617 168.373C51.3041 168.183 51.1768 167.917 51.1244 167.774C51.0284 167.48 51.0545 167.384 51.0521 167.293C51.0589 167.161 51.074 167.094 51.0857 167.034C51.1511 166.739 51.2232 166.563 51.2259 166.565C51.3261 166 51.4854 165.715 51.6358 165.315C51.9533 164.531 52.1852 164.018 52.3752 163.562C52.64 162.923 52.8256 162.435 52.9428 161.662C53.0251 161.11 53.1082 160.54 53.1954 160.018C53.21 159.941 53.2206 159.805 53.2145 159.892C53.2149 159.912 53.2132 159.938 53.2242 160.013C53.2315 160.055 53.239 160.109 53.2785 160.212C53.298 160.263 53.3362 160.346 53.3983 160.431C53.478 160.539 53.5859 160.658 53.7946 160.758C53.9931 160.853 54.223 160.867 54.3728 160.842C54.5161 160.82 54.6174 160.775 54.6765 160.746C54.8076 160.677 54.847 160.636 54.8829 160.607C54.9491 160.546 54.964 160.524 54.9782 160.507C55.0197 160.452 54.9946 160.482 54.9834 160.503C54.9577 160.545 54.9314 160.59 54.9052 160.636C54.7695 160.872 54.6332 161.202 54.4904 161.564C54.3008 162.044 54.0932 162.583 53.8274 163.067C53.6979 163.303 53.557 163.51 53.4129 163.692C53.3336 163.784 53.2552 163.878 53.1821 163.968C53.1255 164.038 53.072 164.106 53.0212 164.174C52.8814 164.456 52.7451 164.753 52.6043 165.055C52.5905 165.109 52.5763 165.166 52.5612 165.225C52.4826 165.523 52.3931 165.892 52.1623 166.359C52.0152 166.646 51.8481 166.928 51.5492 167.224C51.3957 167.371 51.2019 167.531 50.9073 167.651C50.6191 167.773 50.2003 167.805 49.8776 167.703C49.5601 167.624 49.2794 167.349 49.1793 167.145C49.0684 166.936 49.0464 166.781 49.0334 166.652C49.015 166.398 49.0526 166.228 49.1042 166.057C49.1059 166.052 49.1076 166.048 49.1092 166.043C49.3139 165.472 49.5533 164.987 49.7939 164.403C49.9584 164.007 50.1356 163.558 50.3146 163.116C50.3273 163.085 50.3399 163.054 50.3524 163.023C50.7376 162.157 51.2484 161.675 51.4635 161.394C51.559 161.282 51.6562 161.21 51.7497 161.132C51.7502 161.132 51.7506 161.131 51.7511 161.131C51.7574 161.126 51.7637 161.12 51.7699 161.115C51.913 160.851 52.0051 160.578 52.0619 160.268C52.1174 159.97 52.1403 159.671 52.1166 159.437C52.0989 159.198 52.0031 159.074 52.0197 159.122C52.0343 159.137 52.0454 159.147 52.053 159.154C52.0781 159.185 52.0573 159.18 52.0288 159.181C52.0172 159.18 52.0035 159.18 51.9949 159.182C51.9911 159.183 51.9877 159.184 51.9937 159.188C51.9977 159.19 52.0017 159.192 52.0224 159.197C52.034 159.2 52.0447 159.203 52.0924 159.209C52.1316 159.209 52.1176 159.225 52.3316 159.208C52.3572 159.204 52.3908 159.206 52.5227 159.169C52.6377 159.125 52.8627 159.08 53.1193 158.733C53.2402 158.564 53.3242 158.302 53.3141 158.073C53.3073 157.844 53.2361 157.674 53.1742 157.562C53.0458 157.342 52.9392 157.272 52.8924 157.231C52.7844 157.148 52.738 157.129 52.7006 157.109C52.9934 157.266 53.0402 157.366 53.0982 157.423C53.1507 157.486 53.1743 157.521 53.1982 157.555C53.2392 157.614 53.2626 157.652 53.282 157.682C53.3206 157.742 53.3452 157.778 53.3684 157.809C53.4135 157.871 53.4473 157.905 53.4733 157.922C53.5261 157.959 53.5325 157.908 53.4749 157.841C53.4427 157.797 53.3317 157.731 53.2173 157.714C53.521 157.682 53.9261 157.606 54.502 157.405C54.7314 157.328 54.9869 157.236 55.2549 157.146C55.6705 157.014 55.9934 156.942 56.2877 156.871C56.5979 156.798 56.8927 156.8 57.1914 156.806C57.4698 156.812 57.752 156.821 58.0524 156.779C58.2029 156.758 58.3637 156.724 58.5347 156.689C58.6299 156.669 58.7294 156.649 58.8309 156.63C58.9145 156.616 59.0288 156.602 59.1693 156.6C59.3379 156.603 59.7123 156.597 60.2084 156.871C60.7123 157.145 61.0556 157.684 61.1845 158.087C61.203 158.14 61.2179 158.188 61.2327 158.24C61.3466 158.658 61.3733 158.995 61.3981 159.346C61.4823 160.03 61.5133 160.639 61.4711 161.361C61.4525 161.649 61.4322 161.937 61.4096 162.226C61.4266 162.413 61.4559 162.578 61.5017 162.711C61.5346 162.807 61.5771 162.891 61.6204 162.977C61.6792 163.094 61.7398 163.216 61.7791 163.38C61.8098 163.508 61.8091 163.656 61.7767 163.751C61.7616 163.796 61.7401 163.828 61.7205 163.858C61.698 163.893 61.678 163.923 61.6728 163.962C61.6691 163.991 61.6771 164.023 61.6867 164.062C61.7019 164.124 61.7214 164.206 61.7043 164.324C61.6504 164.692 61.576 165.102 61.4615 165.56C61.4473 165.615 61.4333 165.671 61.4198 165.728C61.3289 166.116 61.2558 166.589 61.2088 166.986C61.1587 167.416 61.0241 168.052 60.8572 168.692C60.8039 168.986 60.6617 169.282 60.5308 169.465C60.0925 170.037 59.8239 170.091 59.6192 170.2C59.4342 170.279 59.2988 170.315 59.1798 170.344C58.9576 170.396 58.7916 170.416 58.6471 170.432C58.3545 170.462 58.1246 170.47 57.9135 170.482C57.499 170.502 57.111 170.548 56.73 170.593C56.2762 170.647 55.851 170.697 55.4861 170.676C55.4125 170.672 55.3174 170.627 55.2013 170.571C55.1186 170.531 55.0206 170.486 54.9139 170.446C54.4546 170.473 53.9971 170.501 53.5411 170.533C53.5256 170.541 53.5095 170.549 53.4934 170.557C53.4931 170.557 53.4929 170.558 53.4926 170.558C53.2132 170.703 52.8548 170.892 52.3736 170.943C52.238 170.958 52.095 170.962 51.9366 170.95C51.7577 170.938 51.6408 170.891 51.5321 170.85C51.4268 170.809 51.3304 170.773 51.1976 170.781C51.0458 170.79 50.8706 170.848 50.6684 170.912C50.3827 170.999 50.048 171.108 49.5711 171.068C49.5381 171.065 49.5024 171.061 49.4649 171.057C49.2085 171.026 48.7712 170.977 48.2808 170.723C48.0003 170.592 47.4983 170.29 47.2637 169.65C47.0052 168.998 47.1839 168.447 47.3406 168.138C47.6047 167.685 47.8756 166.659 48.2108 165.794C48.2762 165.619 48.3432 165.445 48.4119 165.271C48.9589 163.892 49.5069 162.515 50.0256 161.141C50.3076 160.394 50.6779 159.717 51.0517 159.255C51.4282 158.797 51.7619 158.567 52.0848 158.589C52.4085 158.61 52.6774 159.05 52.75 159.705C52.8275 160.36 52.7339 161.165 52.5127 161.955C52.1502 163.244 51.7689 164.519 51.3803 165.787C51.3641 165.853 51.3474 165.921 51.3301 165.988C51.3058 166.083 51.283 166.179 51.2614 166.275C51.1797 166.655 51.1366 167.022 51.0986 167.395C51.088 167.5 51.0773 167.607 51.0662 167.714Z" fill="#FAFAFA"/>
<ellipse cx="191.5" cy="39.5" rx="87.5" ry="39.5" fill="#D9D9D9"/>
<line x1="145.416" y1="59.2774" x2="127.416" y2="86.2774" stroke="#D9D9D9"/>
<line x1="155.236" y1="71.4407" x2="127.236" y2="86.4407" stroke="#D9D9D9"/>
<path d="M138.347 71.0569C138.265 71.5112 137.603 72.8393 136.997 73.8616C136.676 74.4024 136.642 75.0074 136.6 75.3195C136.484 76.1712 138.717 73.723 139.572 72.9735C140.237 72.3904 140.966 72.0579 141.714 71.7652C141.924 71.6833 142.129 71.5587 142.091 71.6392C141.639 72.5951 140.764 72.6371 140.263 72.9691C140 73.1434 140.054 73.552 140.012 73.8011C139.991 73.9248 140.052 74.0501 140.197 74.1343C142.576 75.5186 146.921 74.3846 146.361 74.5712C145.221 74.9507 144.466 75.6328 143.883 75.717C142.859 75.865 143.549 73.1801 143.424 72.9311C143.28 72.6415 142.967 72.5135 142.8 72.3893C142.725 72.3335 142.798 72.1828 142.923 72.1191C143.589 71.7776 144.583 72.345 145.542 72.5747C146.292 72.8456 146.957 73.094 147.457 73.303C147.583 73.3448 147.706 73.386 148.083 73.4285" stroke="#D9D9D9" stroke-width="3" stroke-linecap="round"/>
<path d="M141.093 76.0497C140.639 76.0497 139.723 76.2145 138.912 76.4647C138.198 76.685 137.601 77.0882 137.101 77.4421C136.559 77.8259 136.103 78.1292 135.748 78.5442C135.657 78.6509 135.644 78.7932 135.725 78.8569C135.807 78.9206 136.013 78.9206 136.181 78.8588C136.805 78.6293 137.097 78.0893 137.596 77.6948C138.087 77.3075 138.719 77.2155 139.323 76.9041C139.905 76.6039 140.342 76.3418 140.862 76.1751C141.459 75.9841 142.047 75.9249 142.404 75.8419C143.169 75.664 140.971 76.3393 140.471 76.7556C140.222 76.881 139.971 77.0058 139.702 77.1512C139.556 77.2143 139.391 77.2555 138.971 77.4227" stroke="#D9D9D9" stroke-width="3" stroke-linecap="round"/>
<path d="M135.024 79.6393C134.863 79.6764 134.439 79.863 133.806 80.2233C133.351 80.482 132.604 80.8555 132.203 81.0653C131.802 81.2752 131.765 81.2999 131.802 81.2879C132.304 81.1231 132.973 80.6772 133.38 80.4022C133.94 80.0241 134.511 79.4407 134.63 79.2901C134.685 79.2202 134.192 79.5232 133.48 80.1037C133.108 80.4071 133.001 80.476 132.957 80.4762C132.768 80.477 133.56 79.9668 133.849 79.6403C133.942 79.536 133.975 79.4149 134.037 79.334C134.098 79.2543 133.605 79.4865 132.837 79.967C132.346 80.2743 132.239 80.4254 132.108 80.5629C132.014 80.6614 132.002 80.8004 131.94 80.8628C131.873 80.9299 132.333 80.3939 133.17 79.57C133.678 79.0692 133.949 78.8413 134.193 78.5475C134.347 78.3615 134.536 78.229 134.96 77.7558C135.513 77.137 135.548 76.8427 135.692 76.3193C135.778 76.0067 135.935 75.8933 136.073 75.7183C136.133 75.6416 136.223 75.5808 136.229 75.4997C136.253 75.2182 135.774 75.5673 135.618 75.6363C135.426 75.7211 135.238 75.8918 134.782 76.2968C134.549 76.5038 134.45 76.7034 134.344 76.86C134.244 77.0065 134.113 77.1282 133.969 77.2968C133.743 77.5622 133.514 77.9016 133.345 78.0715C133.211 78.2053 133.139 78.4021 133.007 78.5273C132.852 78.676 132.777 78.8892 132.664 79.0766C132.635 79.1246 132.614 79.1762 132.62 79.1893C132.694 79.3577 133.074 78.7918 133.704 78.168C134.074 77.8015 134.361 77.4422 134.673 77.0183C134.885 76.7312 135.023 76.5677 135.123 76.4362C135.246 76.2753 135.522 76.3549 135.779 76.2985C135.848 76.2832 135.552 76.9608 135.083 77.9031C134.849 78.3757 134.775 78.6389 134.663 78.9499C134.512 79.3669 134.537 79.8619 134.543 80.2176C134.552 80.7361 134.587 81.3999 134.655 81.4438C134.786 81.528 135.072 81.3014 135.372 81.1268C135.613 80.986 136.008 80.79 136.476 80.5217C137.018 80.2108 137.408 80.0395 137.819 79.8527C138.514 79.5363 139.082 79.4647 139.182 79.4087C139.234 79.3797 139.282 79.3403 139.202 79.3521C139.123 79.3639 138.912 79.4258 138.452 79.5874C137.991 79.7491 137.286 80.0088 136.892 80.1611C136.327 80.3796 136.162 80.4756 135.98 80.5445C135.725 80.6415 135.525 80.7131 135.262 80.7135C135.04 80.7138 134.912 80.6386 134.837 80.6013C134.797 80.5812 134.762 80.5393 134.855 80.4831C134.947 80.4269 135.169 80.3527 135.55 80.265C135.93 80.1774 136.462 80.0784 137.07 79.8915C137.677 79.7045 138.345 79.4325 138.726 79.2862C139.176 79.1134 139.48 79.0282 139.904 78.8724C140.273 78.7368 140.506 78.6779 140.624 78.6281C140.775 78.5647 140.263 78.7135 139.29 78.9818C138.92 79.0835 138.81 79.1388 138.79 79.1457C138.447 79.2633 139.581 78.5288 140.242 78.0239C140.611 77.7423 140.868 77.6663 141.024 77.5913C141.066 77.5716 141.118 77.5786 141.125 77.591C141.204 77.7332 140.82 77.9645 140.514 78.3577C140.448 78.4426 140.395 78.4771 140.5 78.422C141.195 78.0549 141.38 77.9038 141.555 77.7914C141.78 77.6469 141.967 77.5044 142.316 77.2922C142.585 77.1291 142.865 77.0173 143.178 76.8796C143.379 76.7916 143.528 76.7168 143.678 76.6485C143.716 76.6295 143.753 76.6172 143.754 76.6108C143.754 76.6044 143.717 76.6044 143.679 76.6044" stroke="#D9D9D9" stroke-linecap="round"/>
<path d="M134.574 79.5644C134.463 79.9364 134.213 80.6614 134.131 80.9125C134.072 81.0933 134.025 81.2497 133.963 81.3997C133.877 81.605 133.725 81.7742 133.607 81.8932C133.576 81.9246 133.551 81.9616 133.513 81.9992C133.476 82.0369 133.426 82.074 133.543 82.0374C134.297 81.8014 134.449 81.6131 134.642 81.5442C134.729 81.5134 134.799 81.4629 134.861 81.4256C134.923 81.3884 134.528 81.5108 133.923 81.798C133.374 82.0586 132.652 81.9001 132.495 81.8379C132.182 81.7138 132.65 81.1523 132.782 80.8269C132.827 80.7144 132.913 80.6513 132.963 80.6322C133.186 80.5467 132.951 81.0871 132.882 81.3244C132.846 81.4511 132.813 81.624 132.875 81.7431C133.178 82.3275 133.936 80.7398 134.173 80.509C134.266 80.4184 134.287 80.3647 134.064 80.5C133.842 80.6352 133.372 80.9567 132.883 81.2521C132.394 81.5476 131.899 81.8072 131.601 81.9781C131.303 82.1489 131.217 82.2231 131.135 82.2799C131.053 82.3366 130.979 82.3737 131.083 82.2383C131.442 81.77 131.839 81.3516 131.957 81.1395C132.005 81.0532 132.014 81.0017 131.903 81.0813C131.536 81.3442 131.29 81.6371 131.234 81.7182C131.209 81.7548 131.166 81.7622 131.214 81.6759C131.263 81.5895 131.399 81.4041 131.284 81.5558C130.794 82.1996 130.378 82.7859 130.285 82.9354C130.104 83.2258 129.917 83.3973 129.835 83.5667C129.754 83.7341 129.592 83.8852 129.485 84.0536C129.396 84.1941 129.305 84.3348 129.198 84.4721C129.044 84.6707 128.88 84.8095 128.799 84.8719C128.759 84.9028 128.705 84.9095 128.804 84.8232C129.134 84.5328 129.626 84.249 130.032 84.0618C130.545 83.8248 131.012 83.6993 131.389 83.5925C131.704 83.5032 131.925 83.2872 132.263 83.0933C132.516 82.9479 132.75 82.7499 132.944 82.6558C133.223 82.5203 133.684 82.2268 133.869 82.0436C134.336 81.5822 132.927 82.2988 132.565 82.4488C132.239 82.5837 131.953 82.7859 131.759 82.8737C131.564 82.9616 131.416 83.0485 131.303 83.0553C131.173 83.063 131.599 82.6015 131.943 82.2705C132.048 82.1698 131.978 82.1744 131.915 82.1931C131.613 82.2834 130.759 82.7709 130.304 83.011C130.264 83.0321 130.229 83.0609 130.259 83.0798C130.29 83.0987 130.389 83.1111 130.52 83.1174C130.651 83.1238 130.812 83.1238 130.978 83.0864" stroke="#D9D9D9" stroke-linecap="round"/>
<path d="M168.719 54.9219C168.719 55.0781 168.641 55.2083 168.484 55.3125C168.328 55.4167 168.139 55.5013 167.918 55.5664C167.71 55.6315 167.495 55.6771 167.273 55.7031C167.065 55.7292 166.909 55.7422 166.805 55.7422C166.544 55.7422 166.329 55.7161 166.16 55.6641C166.004 55.625 165.815 55.5469 165.594 55.4297C165.529 55.3906 165.372 55.2279 165.125 54.9414C164.891 54.6419 164.591 54.2578 164.227 53.7891C163.875 53.3203 163.471 52.7865 163.016 52.1875C162.573 51.5885 162.111 50.9766 161.629 50.3516C161.16 49.7135 160.691 49.082 160.223 48.457C159.767 47.819 159.344 47.2396 158.953 46.7188C158.562 46.1849 158.224 45.7227 157.938 45.332C157.664 44.9284 157.469 44.6484 157.352 44.4922L157.234 44.5312C157.312 46.0807 157.41 47.6302 157.527 49.1797C157.658 50.7161 157.872 52.2396 158.172 53.75C158.211 53.9062 158.25 54.069 158.289 54.2383C158.341 54.4076 158.367 54.5833 158.367 54.7656C158.367 55.0651 158.27 55.2539 158.074 55.332C157.879 55.4232 157.664 55.4688 157.43 55.4688C157.299 55.4688 157.143 55.4622 156.961 55.4492C156.779 55.4362 156.59 55.4102 156.395 55.3711C156.199 55.332 156.017 55.2799 155.848 55.2148C155.691 55.1628 155.568 55.0911 155.477 55C155.294 54.8438 155.177 54.681 155.125 54.5117C155.086 54.3424 155.047 54.1406 155.008 53.9062C154.63 51.2891 154.389 48.6654 154.285 46.0352C154.194 43.3919 154.148 40.7552 154.148 38.125C154.148 36.9792 154.155 35.8529 154.168 34.7461C154.181 33.6393 154.201 32.513 154.227 31.3672C154.07 31.3542 153.921 31.3021 153.777 31.2109C153.647 31.1198 153.53 31.0091 153.426 30.8789C153.322 30.7357 153.237 30.5924 153.172 30.4492C153.12 30.293 153.094 30.1432 153.094 30C153.094 29.8568 153.126 29.7135 153.191 29.5703C153.27 29.4271 153.361 29.2969 153.465 29.1797C153.582 29.0625 153.706 28.9518 153.836 28.8477C153.966 28.7435 154.083 28.6589 154.188 28.5938V28.2422C154.188 28.112 154.188 27.9622 154.188 27.793C154.201 27.6237 154.227 27.4674 154.266 27.3242C154.318 27.168 154.396 27.0443 154.5 26.9531C154.604 26.849 154.76 26.7969 154.969 26.7969C155.242 26.7969 155.516 26.8424 155.789 26.9336C156.062 27.0247 156.297 27.1875 156.492 27.4219C157.469 27.0312 158.497 26.8359 159.578 26.8359C160.529 26.8359 161.395 27.0247 162.176 27.4023C162.957 27.7799 163.621 28.2878 164.168 28.9258C164.728 29.5638 165.158 30.2995 165.457 31.1328C165.757 31.9661 165.906 32.8385 165.906 33.75C165.906 34.7266 165.724 35.6771 165.359 36.6016C164.995 37.513 164.52 38.3789 163.934 39.1992C163.348 40.0195 162.677 40.7747 161.922 41.4648C161.18 42.1419 160.424 42.7344 159.656 43.2422C160.88 44.8698 162.117 46.4844 163.367 48.0859C164.63 49.6745 165.919 51.263 167.234 52.8516C167.312 52.9427 167.43 53.0794 167.586 53.2617C167.755 53.444 167.924 53.6458 168.094 53.8672C168.263 54.0755 168.406 54.2773 168.523 54.4727C168.654 54.668 168.719 54.8177 168.719 54.9219ZM163.016 33.4375C163.016 32.9557 162.931 32.4544 162.762 31.9336C162.592 31.4128 162.352 30.944 162.039 30.5273C161.727 30.0977 161.349 29.7461 160.906 29.4727C160.477 29.1992 159.995 29.0625 159.461 29.0625C159.031 29.0625 158.602 29.1276 158.172 29.2578C157.755 29.375 157.352 29.5312 156.961 29.7266C156.987 31.6667 157.007 33.6068 157.02 35.5469C157.046 37.487 157.078 39.4271 157.117 41.3672L157.469 41.4062C158.146 41.0286 158.81 40.5534 159.461 39.9805C160.125 39.4076 160.717 38.7695 161.238 38.0664C161.772 37.3633 162.202 36.6211 162.527 35.8398C162.853 35.0456 163.016 34.2448 163.016 33.4375ZM182.273 50.7422C182.273 50.9635 182.182 51.1784 182 51.3867C181.831 51.5951 181.622 51.7969 181.375 51.9922C181.128 52.1875 180.874 52.3698 180.613 52.5391C180.353 52.6953 180.138 52.8255 179.969 52.9297C179.526 53.2161 179.083 53.4831 178.641 53.7305C178.211 53.9779 177.762 54.1927 177.293 54.375C176.837 54.5573 176.362 54.7005 175.867 54.8047C175.385 54.9089 174.878 54.9609 174.344 54.9609L174.031 55C173.602 55 173.172 54.9544 172.742 54.8633C172.326 54.7591 171.935 54.6094 171.57 54.4141C171.206 54.2057 170.88 53.9453 170.594 53.6328C170.307 53.3203 170.086 52.9427 169.93 52.5C169.812 52.1484 169.721 51.7318 169.656 51.25C169.591 50.7682 169.539 50.2669 169.5 49.7461C169.474 49.2253 169.448 48.7174 169.422 48.2227C169.409 47.7148 169.396 47.2656 169.383 46.875C169.188 42.8906 169.031 38.9062 168.914 34.9219C168.888 34.4661 168.868 34.0104 168.855 33.5547C168.842 33.099 168.836 32.6432 168.836 32.1875C168.836 31.4062 168.882 30.7422 168.973 30.1953C169.064 29.6484 169.246 29.1992 169.52 28.8477C169.793 28.4961 170.184 28.2422 170.691 28.0859C171.212 27.9297 171.896 27.8516 172.742 27.8516C173.589 27.8516 174.435 27.8581 175.281 27.8711C176.141 27.8841 177 27.8906 177.859 27.8906C178.12 27.8906 178.38 27.8841 178.641 27.8711C178.901 27.8451 179.161 27.8646 179.422 27.9297C179.578 27.9557 179.715 28.0013 179.832 28.0664C179.949 28.1185 180.008 28.2422 180.008 28.4375C180.008 28.9062 179.852 29.2578 179.539 29.4922C179.227 29.7135 178.855 29.8633 178.426 29.9414C177.996 30.0195 177.547 30.0586 177.078 30.0586C176.622 30.0456 176.245 30.0391 175.945 30.0391H173.406C173.146 30.0391 172.885 30.0391 172.625 30.0391C172.365 30.0391 172.104 30.0521 171.844 30.0781C171.766 30.2734 171.714 30.4753 171.688 30.6836C171.661 30.8919 171.648 31.1068 171.648 31.3281C171.648 32.7474 171.681 34.1471 171.746 35.5273C171.824 36.9076 171.896 38.3073 171.961 39.7266C172.768 39.6615 173.569 39.5833 174.363 39.4922C175.158 39.401 175.958 39.2969 176.766 39.1797C176.883 39.1797 176.987 39.1732 177.078 39.1602C177.182 39.1471 177.286 39.1406 177.391 39.1406C177.664 39.1406 177.853 39.2122 177.957 39.3555C178.074 39.4987 178.133 39.7005 178.133 39.9609C178.133 40.1432 178.12 40.3125 178.094 40.4688C178.081 40.625 178.042 40.7812 177.977 40.9375C177.885 41.1979 177.736 41.3867 177.527 41.5039C177.319 41.6211 177.085 41.7057 176.824 41.7578C176.564 41.7969 176.29 41.8164 176.004 41.8164C175.73 41.8164 175.49 41.8229 175.281 41.8359C174.734 41.862 174.194 41.8815 173.66 41.8945C173.139 41.9076 172.612 41.9271 172.078 41.9531C172.091 42.2266 172.111 42.6367 172.137 43.1836C172.163 43.7305 172.189 44.349 172.215 45.0391C172.254 45.7161 172.293 46.4193 172.332 47.1484C172.384 47.8776 172.436 48.5677 172.488 49.2188C172.54 49.8568 172.599 50.4167 172.664 50.8984C172.729 51.3802 172.794 51.7057 172.859 51.875C173.003 52.1484 173.165 52.3307 173.348 52.4219C173.53 52.5 173.771 52.5391 174.07 52.5391C174.552 52.5391 175.06 52.4479 175.594 52.2656C176.128 52.0703 176.648 51.8294 177.156 51.543C177.664 51.2435 178.146 50.918 178.602 50.5664C179.07 50.2148 179.474 49.8698 179.812 49.5312C179.956 49.4141 180.099 49.2969 180.242 49.1797C180.385 49.0495 180.555 48.9844 180.75 48.9844C180.945 48.9844 181.134 49.043 181.316 49.1602C181.499 49.2773 181.661 49.4271 181.805 49.6094C181.948 49.7786 182.059 49.9674 182.137 50.1758C182.228 50.3841 182.273 50.5729 182.273 50.7422ZM197.117 44.2578C197.117 44.5312 197.02 44.8177 196.824 45.1172C196.629 45.4167 196.414 45.638 196.18 45.7812C196.115 45.8203 196.004 45.8594 195.848 45.8984C195.691 45.9375 195.522 45.9766 195.34 46.0156C195.171 46.0417 195.001 46.0742 194.832 46.1133C194.676 46.1393 194.552 46.1589 194.461 46.1719L194.93 49.0625C195.073 49.9609 195.177 50.8659 195.242 51.7773C195.32 52.6758 195.49 53.5677 195.75 54.4531C195.776 54.5312 195.802 54.6029 195.828 54.668C195.854 54.7331 195.867 54.8177 195.867 54.9219C195.867 55.0911 195.815 55.2214 195.711 55.3125C195.62 55.4036 195.503 55.4688 195.359 55.5078C195.229 55.5599 195.086 55.5924 194.93 55.6055C194.773 55.6185 194.63 55.625 194.5 55.625H194.227C193.823 55.625 193.51 55.5924 193.289 55.5273C193.081 55.4622 192.918 55.3516 192.801 55.1953C192.684 55.0391 192.605 54.8438 192.566 54.6094C192.527 54.362 192.482 54.0625 192.43 53.7109C192.117 51.3281 191.766 48.9453 191.375 46.5625C190.568 46.6667 189.754 46.7643 188.934 46.8555C188.126 46.9466 187.312 47.0312 186.492 47.1094L185.867 50.9375C185.841 51.1719 185.802 51.4909 185.75 51.8945C185.711 52.2982 185.659 52.7148 185.594 53.1445C185.542 53.5612 185.477 53.9518 185.398 54.3164C185.333 54.681 185.255 54.9479 185.164 55.1172C185.086 55.2734 185.014 55.3841 184.949 55.4492C184.884 55.5143 184.76 55.5469 184.578 55.5469C184.344 55.5469 184.109 55.5013 183.875 55.4102C183.654 55.332 183.452 55.2148 183.27 55.0586C183.1 54.9154 182.964 54.7396 182.859 54.5312C182.755 54.3229 182.703 54.0885 182.703 53.8281C182.703 53.5677 182.729 53.3073 182.781 53.0469C182.846 52.7865 182.898 52.526 182.938 52.2656C183.081 51.4062 183.211 50.5534 183.328 49.707C183.445 48.8477 183.576 47.9948 183.719 47.1484C183.628 47.1354 183.523 47.1159 183.406 47.0898C183.289 47.0508 183.172 47.0052 183.055 46.9531C182.951 46.901 182.859 46.8359 182.781 46.7578C182.703 46.6797 182.664 46.5885 182.664 46.4844C182.664 46.3542 182.71 46.237 182.801 46.1328C182.905 46.0156 183.022 45.9115 183.152 45.8203C183.296 45.7161 183.439 45.6315 183.582 45.5664C183.725 45.4883 183.849 45.4297 183.953 45.3906C184.227 43.5677 184.487 41.7513 184.734 39.9414C184.982 38.1315 185.203 36.3021 185.398 34.4531C185.451 33.9583 185.496 33.457 185.535 32.9492C185.574 32.4414 185.613 31.9336 185.652 31.4258C185.704 30.918 185.763 30.4167 185.828 29.9219C185.906 29.4271 186.01 28.9323 186.141 28.4375C186.258 27.9688 186.453 27.5911 186.727 27.3047C187 27.0182 187.404 26.875 187.938 26.875C188.094 26.875 188.243 26.888 188.387 26.9141C188.543 26.9401 188.68 26.9922 188.797 27.0703C189.135 27.2396 189.487 27.7018 189.852 28.457C190.216 29.2122 190.581 30.1302 190.945 31.2109C191.31 32.2786 191.655 33.4375 191.98 34.6875C192.319 35.9375 192.625 37.1484 192.898 38.3203C193.172 39.4922 193.406 40.5534 193.602 41.5039C193.797 42.4414 193.94 43.138 194.031 43.5938C194.305 43.5547 194.578 43.5221 194.852 43.4961C195.125 43.457 195.398 43.4375 195.672 43.4375C195.802 43.4375 195.952 43.444 196.121 43.457C196.29 43.4701 196.447 43.5091 196.59 43.5742C196.746 43.6263 196.87 43.7109 196.961 43.8281C197.065 43.9323 197.117 44.0755 197.117 44.2578ZM190.984 44.1016C190.646 42.2526 190.275 40.4232 189.871 38.6133C189.48 36.7904 189.018 34.974 188.484 33.1641C188.25 35.1302 187.996 37.0833 187.723 39.0234C187.449 40.9635 187.156 42.9036 186.844 44.8438C187.547 44.7396 188.237 44.6289 188.914 44.5117C189.604 44.3815 190.294 44.2448 190.984 44.1016ZM211.434 41.0156C211.434 42.4089 211.31 43.7826 211.062 45.1367C210.815 46.4779 210.405 47.7344 209.832 48.9062C209.272 50.0781 208.53 51.1458 207.605 52.1094C206.681 53.0599 205.548 53.8411 204.207 54.4531C203.868 54.6094 203.497 54.7526 203.094 54.8828C202.703 55.013 202.293 55.1237 201.863 55.2148C201.447 55.306 201.03 55.3776 200.613 55.4297C200.197 55.4818 199.806 55.5078 199.441 55.5078C199.298 55.5078 199.135 55.5013 198.953 55.4883C198.784 55.4883 198.621 55.4622 198.465 55.4102C198.309 55.3711 198.178 55.2995 198.074 55.1953C197.97 55.0911 197.918 54.9479 197.918 54.7656C197.918 54.6094 197.951 54.4466 198.016 54.2773C198.081 54.1081 198.165 53.9453 198.27 53.7891C198.387 53.6328 198.51 53.4961 198.641 53.3789C198.771 53.2487 198.908 53.151 199.051 53.0859C198.986 52.9818 198.921 52.6888 198.855 52.207C198.803 51.7253 198.751 51.1133 198.699 50.3711C198.66 49.6289 198.621 48.8021 198.582 47.8906C198.543 46.9661 198.504 46.0156 198.465 45.0391C198.439 44.0625 198.413 43.0924 198.387 42.1289C198.374 41.1523 198.361 40.2539 198.348 39.4336C198.335 38.6133 198.322 37.9036 198.309 37.3047C198.309 36.6927 198.309 36.25 198.309 35.9766C198.309 34.7526 198.328 33.5482 198.367 32.3633C198.406 31.1784 198.426 29.974 198.426 28.75C198.283 28.75 198.146 28.7109 198.016 28.6328C197.898 28.5547 197.84 28.4375 197.84 28.2812C197.84 28.0729 197.892 27.8841 197.996 27.7148C198.1 27.5326 198.23 27.3763 198.387 27.2461C198.556 27.1159 198.738 27.0182 198.934 26.9531C199.142 26.875 199.337 26.8359 199.52 26.8359C199.702 26.8359 199.878 26.8555 200.047 26.8945C200.216 26.9206 200.392 26.9531 200.574 26.9922C202.306 27.4089 203.849 28.0404 205.203 28.8867C206.557 29.7331 207.69 30.7617 208.602 31.9727C209.526 33.1836 210.229 34.5508 210.711 36.0742C211.193 37.5977 211.434 39.2448 211.434 41.0156ZM208.543 40.6641C208.543 39.362 208.387 38.138 208.074 36.9922C207.762 35.8333 207.293 34.7786 206.668 33.8281C206.056 32.8646 205.281 32.0182 204.344 31.2891C203.419 30.5469 202.345 29.9349 201.121 29.4531V29.5312C201.121 32.8906 201.173 36.224 201.277 39.5312C201.395 42.8255 201.564 46.1458 201.785 49.4922C201.824 50 201.857 50.5078 201.883 51.0156C201.922 51.5104 201.98 52.0052 202.059 52.5C203.283 52.0964 204.311 51.4714 205.145 50.625C205.978 49.7786 206.642 48.8151 207.137 47.7344C207.645 46.6406 208.003 45.4818 208.211 44.2578C208.432 43.0208 208.543 41.8229 208.543 40.6641ZM222.957 26.9922C222.957 27.2656 222.872 27.7669 222.703 28.4961C222.534 29.2122 222.319 30.0521 222.059 31.0156C221.798 31.9661 221.505 32.9818 221.18 34.0625C220.854 35.1302 220.535 36.1589 220.223 37.1484C219.91 38.125 219.624 38.9974 219.363 39.7656C219.103 40.5339 218.908 41.0938 218.777 41.4453C218.921 42.6042 219.018 43.7565 219.07 44.9023C219.122 46.0482 219.181 47.2005 219.246 48.3594C219.311 49.3359 219.37 50.319 219.422 51.3086C219.487 52.2982 219.52 53.2812 219.52 54.2578C219.52 54.5573 219.441 54.7917 219.285 54.9609C219.142 55.1172 218.921 55.1953 218.621 55.1953C218.504 55.1953 218.348 55.1758 218.152 55.1367C217.957 55.1107 217.755 55.0651 217.547 55C217.352 54.9479 217.163 54.8828 216.98 54.8047C216.811 54.7266 216.694 54.6484 216.629 54.5703C216.473 54.388 216.375 54.2188 216.336 54.0625C216.297 53.8932 216.277 53.6979 216.277 53.4766C216.277 51.4583 216.258 49.4531 216.219 47.4609C216.18 45.4688 216.16 43.4635 216.16 41.4453L216.004 41.2891C215.926 41.1719 215.835 41.0091 215.73 40.8008C215.639 40.5794 215.542 40.3516 215.438 40.1172C215.346 39.8828 215.262 39.6549 215.184 39.4336C215.105 39.2122 215.04 39.0365 214.988 38.9062C214.559 37.7083 214.155 36.5104 213.777 35.3125C213.4 34.1146 212.996 32.9167 212.566 31.7188C212.501 31.5104 212.397 31.2305 212.254 30.8789C212.111 30.5143 211.967 30.1367 211.824 29.7461C211.681 29.3555 211.557 28.9909 211.453 28.6523C211.336 28.3008 211.277 28.0339 211.277 27.8516C211.277 27.7083 211.316 27.5911 211.395 27.5C211.473 27.4089 211.57 27.3438 211.688 27.3047C211.805 27.2526 211.928 27.2201 212.059 27.207C212.189 27.194 212.306 27.1875 212.41 27.1875C212.749 27.1875 213.061 27.207 213.348 27.2461C213.647 27.2721 213.947 27.3828 214.246 27.5781C214.324 27.6302 214.448 27.8711 214.617 28.3008C214.786 28.7305 214.975 29.2643 215.184 29.9023C215.392 30.5404 215.607 31.2305 215.828 31.9727C216.062 32.7148 216.277 33.431 216.473 34.1211C216.668 34.8112 216.844 35.4232 217 35.957C217.156 36.4909 217.267 36.862 217.332 37.0703C217.762 35.4036 218.191 33.75 218.621 32.1094C219.064 30.4688 219.441 28.8021 219.754 27.1094C219.78 26.9531 219.806 26.7839 219.832 26.6016C219.871 26.4062 219.917 26.2305 219.969 26.0742C220.034 25.918 220.125 25.7878 220.242 25.6836C220.359 25.5664 220.522 25.5078 220.73 25.5078C220.9 25.5078 221.108 25.5469 221.355 25.625C221.616 25.7031 221.863 25.8138 222.098 25.957C222.332 26.0872 222.534 26.2435 222.703 26.4258C222.872 26.5951 222.957 26.7839 222.957 26.9922ZM228.406 49.6875C228.406 50.2604 228.146 50.5469 227.625 50.5469C227.469 50.5469 227.273 50.5273 227.039 50.4883C226.818 50.4492 226.59 50.3906 226.355 50.3125C226.121 50.2344 225.906 50.1432 225.711 50.0391C225.529 49.9219 225.398 49.7917 225.32 49.6484C225.216 49.4661 225.164 49.2773 225.164 49.082C225.164 48.8737 225.164 48.6589 225.164 48.4375C225.086 45.5469 224.982 42.6758 224.852 39.8242C224.734 36.9596 224.617 34.0755 224.5 31.1719C224.474 30.5599 224.448 29.9479 224.422 29.3359C224.396 28.7109 224.383 28.0859 224.383 27.4609C224.383 27.1615 224.415 26.9401 224.48 26.7969C224.546 26.6406 224.747 26.5625 225.086 26.5625C225.255 26.5625 225.438 26.5885 225.633 26.6406C225.828 26.6797 226.01 26.7448 226.18 26.8359C226.362 26.9141 226.518 27.0182 226.648 27.1484C226.792 27.2656 226.896 27.4089 226.961 27.5781C227 27.6823 227.046 28.0273 227.098 28.6133C227.163 29.1992 227.228 29.9544 227.293 30.8789C227.358 31.7904 227.423 32.8255 227.488 33.9844C227.553 35.1432 227.618 36.3411 227.684 37.5781C227.762 38.8021 227.833 40.026 227.898 41.25C227.964 42.4609 228.022 43.5872 228.074 44.6289C228.139 45.6706 228.191 46.582 228.23 47.3633C228.283 48.1445 228.328 48.7109 228.367 49.0625C228.367 49.1667 228.374 49.2708 228.387 49.375C228.4 49.4792 228.406 49.5833 228.406 49.6875ZM225.359 52.8906C225.359 52.7604 225.405 52.6628 225.496 52.5977C225.587 52.5195 225.698 52.4674 225.828 52.4414C225.971 52.4023 226.108 52.3828 226.238 52.3828C226.382 52.3828 226.505 52.3828 226.609 52.3828C226.74 52.3828 226.889 52.3893 227.059 52.4023C227.241 52.4023 227.41 52.4284 227.566 52.4805C227.723 52.5195 227.853 52.5911 227.957 52.6953C228.074 52.7865 228.133 52.9167 228.133 53.0859C228.133 53.151 228.126 53.2943 228.113 53.5156C228.113 53.724 228.107 53.9518 228.094 54.1992C228.094 54.4466 228.081 54.6745 228.055 54.8828C228.042 55.0781 228.029 55.1823 228.016 55.1953C227.938 55.3385 227.814 55.4167 227.645 55.4297C227.475 55.4557 227.312 55.4688 227.156 55.4688C226.766 55.4688 226.473 55.4492 226.277 55.4102C226.082 55.3711 225.939 55.293 225.848 55.1758C225.77 55.0586 225.711 54.8958 225.672 54.6875C225.646 54.4792 225.607 54.2057 225.555 53.8672C225.529 53.7109 225.49 53.5547 225.438 53.3984C225.385 53.2422 225.359 53.0729 225.359 52.8906Z" fill="black"/>
</svg>
