<svg width="229" height="326" viewBox="0 0 229 326" fill="none" xmlns="http://www.w3.org/2000/svg">
<g filter="url(#filter0_d_7_401)">
<path d="M105.851 45.5351C103.537 47.6192 99.3682 50.4005 95.8725 54.3492C92.4753 58.1867 87.2953 61.7763 82.8621 66.199C79.4807 69.5725 76.5887 72.7059 72.5249 78.6204C68.2711 84.8113 64.0419 90.3691 63.1008 92.9238C61.9845 95.9544 60.0826 98.4967 55.6808 107.189C53.4544 111.585 51.9551 115.449 51.2511 118.83C50.4633 122.612 48.9299 126.142 47.4208 129.749C46.143 132.803 44.9846 136.597 44.3956 140.783C43.9028 144.285 43.3535 147.987 43.0015 150.894C42.5626 154.518 41.4994 158.666 40.9104 163.667C40.7022 165.435 40.3283 167.734 40.2133 170.519C40.1351 172.414 39.6313 184.136 39.7463 201.21C39.8015 209.4 42.1825 212.575 44.3851 216.528C47.1946 221.569 50.31 226.279 52.5162 229.775C56.3255 235.811 64 240.457 68.4228 243.716C75.3763 248.839 79.8091 249.533 88.6232 253.471C92.918 255.39 96.9982 256.503 100.264 256.855C103.999 257.258 109.545 257.897 114.191 259.291C124.658 262.432 130.233 258.134 133.719 256.977C137.098 255.855 139.992 255.346 145.676 252.223C149.302 250.232 151.145 246.758 152.664 244.089C155.153 239.716 157.195 233.989 158.819 228.764C160.563 223.154 160.68 219.811 161.496 216.44C162.194 213.557 163.469 210.749 164.399 206.222C165.23 202.179 165.56 196.125 166.375 191.35C166.708 189.402 166.724 187.51 167.072 181.86C167.888 168.644 166.961 158.241 165.232 151.775C161.722 138.646 157.209 129.195 155.585 126.413C152.249 120.701 151.633 114.097 150.235 108.991C148.057 101.034 146.056 97.8275 144.195 93.3002C142.574 89.3557 139.1 81.6003 137.106 76.3341C135.945 73.2667 134.207 70.6427 132.345 67.851C131.418 66.4604 130.484 65.0593 129.442 63.8988C128.472 62.8182 125.619 62.9612 122.486 63.4213C117.827 64.1053 114.243 72.4411 111.783 77.7003C109.5 82.5787 107.482 87.33 104.589 94.9801C100.682 105.313 99.1172 115.672 98.1902 121.471C97.4774 125.93 96.7891 129.397 96.6741 132.872C96.5434 136.819 96.0921 146.53 96.2071 158.606C96.2608 164.252 96.7891 176.008 97.1341 193.42C97.4076 207.22 101.431 210.721 103.749 215.018C104.263 215.972 105.14 216.074 105.955 216.193C106.771 216.311 107.691 216.311 108.855 215.391C114.727 210.75 115.135 202.412 117.345 185.025C119.93 164.684 116.306 158.931 115.846 157.306C115.617 156.497 114.466 156.142 113.302 157.516C109.907 161.521 108.186 172.328 106.443 183.819C104.849 194.333 108.165 200.489 110.835 203.524C112.071 204.93 115.588 204.692 119.415 204.58C126.281 204.38 131.6 192.891 139.975 180.009C146.139 170.528 146.739 159.886 147.437 153.968C148.216 147.347 148.371 143.136 147.562 139.072C146.756 135.023 142.822 130.603 139.783 126.406C136.863 122.375 133.984 117.359 131.763 113.163C130.024 109.875 129.55 106.889 128.627 104.097C127.412 100.425 125.605 96.6704 124.674 92.4846C123.951 89.2309 123.514 85.9777 122.468 81.9139C121.459 77.9924 120.266 74.825 119.098 71.4547C118.045 68.4146 117.938 65.0663 117.585 58.2248C117.47 55.981 117.003 54.1436 117.118 53.091C117.525 49.3752 120.015 61.3023 121.761 65.0419C122.992 67.6781 123.04 70.6148 124.549 75.1421C125.75 78.7459 129.076 81.7675 131.631 85.0228C133.665 87.6148 135.35 90.1321 137.789 92.3452C140.253 94.5802 142.083 97.7996 143.718 100.361C145.318 102.87 149.277 106.387 151.734 109.653C154.448 113.26 157.655 118.711 159.98 120.924C162.106 122.948 163.929 125.681 165.211 128.473C166.585 131.464 168.348 134.046 168.7 136.953C169.117 140.398 170.899 143.108 171.718 146.014C172.888 150.166 175.081 154.023 175.785 157.167C176.63 160.938 179.027 164.939 181.01 169.477C182.582 173.075 182.289 176.566 182.641 180.515C182.979 184.306 183.92 189.336 185.077 194.557C187.822 206.942 184.157 210.024 182.763 213.394C181.533 216.367 181.132 219.783 179.051 222.804C176.378 226.686 174.635 229.541 173.816 232.218C172.854 235.363 169.519 237.209 166.738 240.694C164.12 243.975 161.628 246.508 159.415 248.832C157.404 250.945 153.501 251.387 147.928 253.942C143.191 256.113 139.56 257.2 135.838 258.131C132.163 259.049 127.947 259.291 124.681 260.8C123.313 261.433 121.2 261.62 118.648 261.735C116.531 261.83 105.028 262.317 88.7661 261.972C80.9165 261.805 77.5227 257.451 74.6091 255.817C71.8119 254.247 69.6182 252.098 67.1751 249.665C63.5544 246.06 61.0167 243.51 57.3049 240.719C54.2731 238.438 52.4291 234.686 50.6725 231.657C49.0795 228.91 48.2328 226.084 46.2602 223.062C44.0742 219.714 44.7476 215.405 43.817 212.14C42.7819 208.507 42.6565 203.319 42.5345 187.562C42.4887 181.647 44.7337 177.068 47.1733 173.109C47.7588 172.174 48.2189 171.254 48.5709 170.435C48.9229 169.616 49.1529 168.926 49.3899 168.215" stroke="#FAFAFA" stroke-width="71" stroke-linecap="round"/>
<path d="M108.639 35.7764C110.946 35.7764 114.675 37.1566 116.763 38.2126C119.269 39.4803 119.555 43.89 120.715 46.9187C122.015 50.311 124.894 53.4117 128.027 56.6774C130.599 59.3576 132.785 62.2502 135.12 65.0419C137.194 67.522 138.138 71.5349 140.578 74.222C142.725 76.5874 144.634 81.9767 146.391 86.2984C148.658 91.8755 151.145 97.5626 152.664 101.17C153.981 104.296 155.801 106.861 157.889 110.231C159.751 113.238 161.377 117.08 163.58 120.454C166.239 124.526 166.257 128.693 167.302 132.188C168.494 136.172 169.505 140.766 170.558 145.084C171.367 148.406 172.07 152.169 172.879 154.961C173.326 156.506 174.161 159.363 174.161 161.468C174.161 168.421 174.858 141.602 175.437 132.108C175.856 125.224 172.544 122.461 169.526 117.697C167.567 114.605 167.191 111.768 166.382 108.862C165.391 105.3 163.943 102.247 162.318 99.1031C160.598 95.7738 159.76 92.9482 158.83 88.1908C157.833 83.0963 155.578 79.0072 154.532 75.637C153.561 72.5045 151.173 69.0255 149.538 65.4148C147.477 60.8618 145.596 57.6358 144.077 54.0286C142.803 51.006 141.637 48.3372 139.319 46.1241C137.956 44.8225 136.528 43.4509 133.297 42.4053C121.78 38.6783 118.411 43.904 115.045 44.371C109.057 45.2016 105.405 45.9951 102.146 46.4621C97.6142 47.1116 94.2519 50.1774 91.1082 52.6101C87.4612 55.4322 85.4133 58.068 83.4372 61.3232C81.5134 64.4921 78.6798 68.7467 75.8882 72.7059C73.4684 76.1377 72.1694 79.4394 69.2662 83.6252C67.3359 86.4082 66.8161 89.4351 64.3869 92.8053C63.797 93.6237 63.5679 94.3144 63.3344 94.0948C60.5875 91.512 63.0939 85.7547 63.5609 81.3319C63.9554 77.5957 66.3421 72.2877 68.0882 67.9695C69.3171 64.9304 71.9185 62.2781 73.6611 59.1414C76.6216 53.8125 79.586 51.8224 82.1407 48.4522C84.4827 45.3625 87.0165 43.2209 89.8082 40.8962C92.1335 38.9599 101.362 39.2616 106.199 40.5303C111.936 42.0347 98.6711 48.7694 94.3738 53.6382C83.4997 65.9588 81.468 69.9178 79.3699 72.8244C77.1767 75.8629 75.8917 78.5193 73.6785 81.189C70.8149 84.6434 68.2241 88.501 65.896 91.9932C63.9745 94.8755 61.9507 97.1026 60.3161 100.936C58.9925 104.041 56.1374 106.164 54.2762 108.956C52.3077 111.909 51.4811 115.686 50.439 117.794C48.5596 121.597 53.0982 108.98 53.6872 106.189C54.2759 103.398 54.7293 100.616 55.6599 97.824C56.6159 94.9559 59.5947 91.7911 61.8113 88.6474C62.6199 87.8319 64 86.9118 65.0561 86.2077C66.1121 85.5037 66.8022 85.0437 67.5132 84.5697" stroke="#FAFAFA" stroke-width="71" stroke-linecap="round"/>
<path d="M137.218 75.5081C137.678 80.8265 139.532 88.7241 141.393 92.3417C143.209 95.8713 145.805 99.8768 148.824 104.073C149.507 105.023 149.988 105.927 150.34 105.136C153.128 98.8704 148.845 93.1991 148.716 86.5632C148.694 85.462 151.152 86.8908 152.427 87.6994C155.461 89.6223 156.484 95.9176 158.241 101.051C159.337 104.254 161.6 106.861 164.392 109.074C165.869 110.245 166.954 111.748 167.766 112.333C168.722 113.022 168.585 108.29 168.24 104.923C168.032 102.895 166.264 102.003 165.915 101.647C162.913 98.5852 167.414 110.109 169.39 116.606C171.395 123.197 172.99 126.379 174.736 129.749C176.494 133.141 178.33 137.991 179.734 141.02C180.972 143.69 181.592 146.593 183.216 149.385C186.659 155.303 184.157 167.727 183.805 173.886C183.596 177.541 182.763 180.748 182.871 184.007C182.885 184.431 183.906 183.564 184.261 182.749C185.63 179.61 185.774 177.054 186.701 175.2C187.168 174.266 187.628 173.346 187.865 175.402C188.102 182.519 188.562 188.423 189.259 190.963C189.496 192.814 189.496 195.804 188.102 200.279" stroke="#FAFAFA" stroke-width="71" stroke-linecap="round"/>
</g>
<path d="M178.802 184.464C179.135 179.159 178.442 174.304 177.42 169.389C176.756 166.533 172.515 163.467 168.391 158.659C168.333 158.591 168.275 158.523 168.218 158.455C162.752 151.917 161.404 148.357 158.041 144.201C156.392 142.15 153.784 139.89 149.645 137.286C148.562 136.608 147.465 135.946 146.362 135.303C143.204 133.474 140.196 131.71 137.426 131.375C128.872 130.359 121.081 130.716 117.021 131.428C114.178 131.959 112.285 132.095 111.013 132.354C108.629 133.112 106.07 133.591 101.171 134.651C99.896 134.924 98.6902 135.149 97.5395 135.348C92.4045 136.208 88.887 137.988 84.0633 139.524C82.5208 139.968 80.9337 140.28 79.3198 140.641C77.977 140.957 76.1671 141.376 74.4263 142.436C71.8721 144.03 68.7577 145.552 65.8715 147.677C63.1302 149.437 60.8059 151.436 58.7398 153.865C55.8369 157.269 54.4418 161.556 53.5323 164.868C53.1094 166.363 52.7484 167.567 52.5712 168.608C51.8192 172.902 51.667 177.726 51.486 182.216C51.3142 183.702 52.6569 184.852 54.0429 185.937C55.4293 187.013 56.753 188.06 57.835 189.076C58.0957 189.326 58.3499 189.556 58.6021 189.775C59.0954 190.205 59.5825 190.606 59.9906 191.054C60.7488 191.922 61.1931 192.697 61.635 193.323C61.9117 193.73 61.9906 193.96 61.9246 194.016C61.9246 194.016 61.9246 194.016 61.9245 194.016C61.8412 194.084 61.5321 193.882 61.1231 193.395C60.6378 192.83 60.1291 192.143 59.5003 191.547C58.8786 190.974 58.0467 190.448 57.227 189.78C55.4739 188.312 53.1923 187.434 50.7655 185.342C49.9037 184.528 49.4064 183.274 49.3824 182.235C49.1937 175.533 48.9656 172.747 51.6051 164.289C51.9578 163.06 52.3629 161.693 52.9029 160.181C53.9523 157.259 55.225 154.625 57.0113 152.38C59.0569 149.727 61.7379 147.248 64.2202 145.505C66.8176 143.387 69.8077 141.736 72.7093 139.846C75.6754 137.879 79.1444 137.389 82.425 136.468C82.618 136.415 82.8072 136.36 82.9942 136.304C88.2841 134.418 92.5814 132.367 96.9656 131.561C100.769 130.717 104.762 129.963 109.117 128.118C113.833 126.478 118.042 126.478 123.99 126.454C129.674 126.549 134.081 126.807 137.912 127.204C142.656 127.832 145.675 129.797 148.76 131.245C152.83 133.416 157.064 135.248 162.327 140.381C164.018 142.14 165.723 144.234 167.475 146.508C169.392 148.996 171.306 151.436 173.429 153.838C176.483 157.847 181.852 160.604 183.503 168.63C184.15 176.711 184.721 183.599 183.048 191.66C181.508 196.234 179.1 200.087 177.075 203.055C176.149 204.42 175.355 205.821 174.603 207.112C173.059 209.792 171.076 212.92 168.222 215.561C164.489 219.051 160.111 222.688 154.825 225.561C150.972 227.785 146.35 230.797 141.185 232.577C138.048 233.685 134.83 235.007 131.347 236.131C130.463 236.414 129.554 236.687 128.599 236.931C117.669 238.559 106.976 238.725 95.2413 238.037C88.2685 237.364 81.5791 235.822 75.1553 232.624C72.5392 231.26 69.4799 229.998 66.6233 228.279C64.334 226.898 61.8885 225.155 59.961 222.571C55.4814 216.14 48.687 209.111 48.4073 199.194C48.5748 192.392 48.8861 185.77 49.9201 179.949C50.8862 174.704 52.2648 170.225 53.8776 166.905C54.8368 164.964 55.9066 163.265 57.3805 162.036C61.2009 158.083 64.294 154.854 68.7692 153.031C71.4655 151.841 74.4139 150.348 78.3581 148.393C82.5422 146.383 87.839 143.787 93.8196 143.16C97.6395 142.807 101.502 142.845 105.059 143.251C109.567 143.913 108.458 144.102 103.973 144.042C100.193 144.064 96.8093 144.283 93.9987 144.681C91.9602 144.976 90.2509 145.537 88.9566 146.15C82.9392 149.172 80.7064 150.951 72.5789 154.123C71.5698 154.515 70.6308 154.896 69.7495 155.262C63.8573 157.747 63.3267 161.058 59.5815 164.583C59.5379 164.619 59.4931 164.656 59.4472 164.695C57.625 166.907 55.6571 167.238 53.2521 180.458C52.8075 183.519 52.551 187.33 52.5196 192.067C52.502 194.547 52.5315 196.919 52.5777 199.197C53.4436 207.964 60.2096 214.139 64.0798 219.395C67.8444 223.751 73.2861 225.221 77.4528 227.321C77.5687 227.378 77.6855 227.436 77.8029 227.495C81.5793 229.371 88.3306 231.648 95.7362 232.464C103.759 233.237 112.968 233.154 120.798 232.499C122.751 232.315 125.322 232.104 127.203 231.658C130.717 230.692 134.799 228.9 139.268 227.268C143.626 225.73 147.545 223.216 152.119 220.558C156.879 217.982 160.986 214.582 164.382 211.391C166.85 209.078 168.386 206.464 169.613 204.246C170.513 202.607 171.341 201.107 172.199 199.809C175.235 195.127 176.332 193.446 177.875 189.971C178.295 189.091 178.627 186.968 178.802 184.464Z" fill="#FF9500"/>
<path d="M103.651 151.113C103.365 150.682 103.488 152.743 103.179 152.496C102.863 152.25 102.654 151.178 102.361 151.472C102.07 151.76 101.621 151.106 101.502 151.515C101.499 151.523 101.497 151.533 101.494 151.543C101.383 152.008 101.204 150.664 101.035 150.987C100.868 151.309 100.759 151.144 100.554 150.731C100.364 150.302 99.7906 150.084 99.9519 150.629C100.038 150.89 99.963 150.82 99.7994 150.698C99.6399 150.572 99.3972 150.396 99.2786 150.353C99.2047 150.327 99.1182 150.278 99.0315 150.224C98.9948 150.202 98.9298 150.143 98.8692 150.081C98.8692 150.081 98.8691 150.081 98.8691 150.081C98.7936 150.004 98.7256 149.922 98.7274 149.901C98.7366 149.801 98.6939 149.601 98.5829 149.192C98.4203 148.41 98.8957 149.043 99.1255 148.523C99.3796 148.002 99.6044 147.18 100.154 147.584C100.595 147.955 100.528 146.407 100.908 146.819C100.955 146.871 101.01 146.953 101.077 147.072C101.708 148.143 101.448 146.037 101.91 145.681C102.387 145.321 103.256 146.38 103.573 146.248C103.815 146.146 104.121 145.957 104.478 145.97C104.598 145.975 104.722 146.003 104.847 146.065C105.341 146.311 105.891 145.581 106.415 146.066C106.938 146.55 107.637 147.173 107.955 147.594C108.274 148.014 108.35 148.109 108.654 147.851C108.828 147.702 109.068 147.842 109.27 148.387C109.372 148.661 109.349 149.043 109.247 149.226C109.097 149.493 108.974 149.315 108.897 149.792C108.744 150.746 108.68 151.112 108.486 150.557C108.292 150.003 108.205 151.265 108.094 151.12C107.983 150.976 107.976 150.23 107.419 150.81C106.865 151.39 106.575 151.545 106.374 151.689C106.177 151.832 105.725 151.203 105.414 151.456C105.292 151.555 105.118 151.59 104.941 151.621C104.668 151.669 104.373 151.714 104.243 151.962C104.033 152.372 103.932 151.545 103.651 151.113Z" fill="#FF9500"/>
<path d="M119.736 159.083C118.175 157.98 115.709 157.483 112.868 157.102C111.019 158.089 110.237 164.742 98.4237 166.586C97.4268 167.469 97.0921 168.051 98.0627 167.361C99.4347 166.581 102.488 162.98 98.8591 163.425C96.3354 163.57 95.3383 162.675 94.0615 162.301C92.8622 161.882 91.7239 161.754 90.7502 162.429C89.3053 163.877 87.8472 165.69 86.5161 167.868C84.677 170.859 82.9911 172.966 81.9662 174.191C79.8144 176.746 78.9973 177.545 74.8439 185.514C75.5164 184.067 75.537 183.633 75.6049 183.336C75.6481 183.063 75.6243 183.034 75.6055 183.077C75.5612 183.178 75.5207 183.579 75.5515 184.002C75.6077 184.875 75.9184 185.89 76.57 186.698C79.3622 190.062 73.7848 191.655 72.1484 194.817C71.1327 190.536 68.8294 188.97 68.4093 188.615C67.8543 188.224 68.1971 188.424 69.3772 188.801C69.4781 188.835 69.5846 188.874 69.6953 188.917C68.5434 187.783 67.4913 187.342 67.4779 187.153C67.3989 186.957 67.8706 186.895 68.4478 186.851C69.6427 186.772 71.2833 186.853 72.8774 187.113C76.1484 187.628 79.53 188.869 83.4736 190.688C84.5165 191.16 85.7849 191.624 87.3064 192.069C93.446 194.412 104.187 194.192 110.065 188.828C110.637 188.162 112.055 185.18 111.978 183.138C112.005 181.445 112.416 179.909 113.174 178.4C112.568 179.444 112.578 179.97 112.657 179.827C112.759 179.686 112.911 179.049 113.306 177.641C113.075 178.94 113.13 180.947 113.888 182.737C114.627 184.543 115.792 185.737 116.618 186.377C118.346 187.642 119.054 187.614 119.513 187.706C119.955 187.748 120.112 187.673 120.189 187.595C120.262 187.513 120.238 187.414 120.176 187.314C119.898 186.904 119.104 186.489 118.472 186.107C119.664 185.734 120.726 184.774 120.961 184.185C121.236 183.58 121.034 183.336 120.741 183.394C120.457 182.942 119.881 183.08 119.434 183.462C119.318 183.553 119.245 183.51 119.148 183.223C119.051 182.953 118.889 182.327 118.452 181.719C118.02 181.107 117.45 180.76 117.134 180.66C116.803 180.551 116.652 180.592 116.586 180.64C116.502 180.702 116.566 180.8 116.657 180.883C117.715 181.631 119.429 182.417 120.488 183.256C120.963 183.61 121.186 184.348 121.186 185.077C121.186 185.078 121.186 185.078 121.186 185.079C121.185 185.987 120.845 186.88 120.221 186.993C119.537 187.116 118.773 187.286 117.887 187.482C116.948 187.647 116.159 188.002 114.348 187.881C113.634 187.772 112.202 187.563 110.982 185.792C109.885 183.97 110.089 182.654 109.935 182.088C109.734 180.825 109.596 179.268 110.143 177.279C110.393 176.041 111.234 173.032 115.218 171.249C115.582 171.094 115.945 170.964 116.313 170.857C118.119 169.782 119.662 169.109 121.741 168.867C122.819 168.783 123.924 168.687 126.014 169.333C127.057 169.72 128.541 170.189 130.504 172.239C132.585 174.168 133.781 178.876 133.116 181.321C133.077 181.378 133.273 184.046 130.795 188.318C129.768 189.588 128.588 190.994 127.231 192.977C125.711 195.012 124.825 197.385 120.965 201.811C120.556 202.241 120.089 202.689 119.559 203.133C110.775 212.33 100.324 219.195 87.2956 218.678C84.9344 218.54 82.431 218.154 79.6115 217.441C75.7943 216.471 72.7287 216.805 69.4121 217.589C65.9492 217.865 62.8199 221.385 51.3292 216.438C50.5549 216.4 49.2476 216.114 46.9585 214.758C45.0669 213.197 39.6911 211.288 37.0856 199.645C35.3527 192.785 34.4299 188.171 39.8538 175.274C40.5669 173.741 41.1542 172.112 42.9898 169.018C44.3057 169.295 46.1834 165.724 47.5938 162.851C49.0531 159.84 50.2486 156.967 51.2133 154.249C54.1341 146.6 54.2484 140.72 55.2913 134.37C57.3638 128.875 63.6638 121.529 68.7606 117.849C68.858 117.77 68.9514 117.693 69.0297 117.626C70.6515 115.994 79.8318 110.743 86.6338 109.743C93.6985 108.384 99.3432 108.816 104.093 109.552C104.392 110.579 114.499 110.035 126.252 114.704C126.267 115.55 130.628 116.862 136.316 119.352C141.889 121.836 146.474 125.061 149.795 127.739C151.661 129.452 154.347 131.393 156.734 132.905C161.451 136.256 167.816 138.91 175.235 150.642C175.599 151.067 176.997 152.936 178.89 156C180.593 159.241 184.005 163.406 184.66 174.206C184.302 178.53 186.572 182.734 181.018 196.896C180.97 196.799 180.842 196.79 180.582 197.239C180.326 197.673 179.959 198.553 179.519 199.724C179.333 200.213 179.144 200.755 178.951 201.334C178.617 201.86 178.217 203.775 177.449 206.904C176.148 209.997 177.112 215.115 167.104 224.53C168.635 223.287 168.928 222.804 168.953 222.853C168.947 222.903 168.595 223.44 167.975 224.344C166.549 226.066 164.937 229.839 157.177 234.521C158.213 233.939 150.439 240.201 142.016 242.111C133.22 244.433 126.636 244.97 121.32 245.381C120.174 245.28 117.052 245.717 112.543 245.929C111.479 245.972 110.321 246.007 109.074 246.01C99.0649 245.459 88.8848 244.788 75.6818 237.885C68.7244 233.814 64.3854 228.726 61.0558 223.016C60.2849 221.061 55.5257 213.418 55.7107 207.143C55.5847 200.878 57.3734 196.804 58.872 193.646C60.0471 191.333 61.2869 189.339 62.4721 187.686C65.03 184.121 67.4985 181.583 69.2861 179.777C71.8338 177.659 72.3989 174.492 78.5651 170.739C80.7507 169.69 83.0182 168.197 85.6654 165.984C85.8096 165.772 86.1168 165.407 86.5973 164.862C87.8848 163.306 91.9246 159.873 96.9305 159.438C100.211 159.134 103.616 159.297 107.166 160.139C108.945 160.573 110.747 161.162 112.63 162.146C113.573 162.649 114.546 163.239 115.55 164.14C116.521 165.009 117.767 166.488 117.898 168.378C117.874 168.576 117.845 168.771 117.811 168.965C117.306 171.724 115.771 172.53 114.579 172.382C113.336 172.19 112.215 171.368 111.075 170.31C111.058 170.527 111.084 170.766 111.135 170.978C111.244 171.418 111.378 171.666 111.38 171.806C111.389 171.947 111.301 172.005 111.163 172.051C110.881 172.133 110.412 172.156 109.915 172.192C108.907 172.26 107.754 172.338 106.678 172.524C104.508 172.899 102.555 173.68 101.327 175.82C100.673 176.963 100.108 178.022 99.6252 178.986C100.664 183.515 107.102 181.707 98.1942 187.047C96.558 187.702 94.5199 188.092 91.9559 188.191C90.1161 188.261 88.6143 188.617 87.3161 189.187C89.4202 188.083 89.9029 187.52 90.3375 187.563C90.7311 187.583 90.9519 188.025 91.1855 188.619C91.6171 189.843 92.0787 191.629 91.7557 193.831C91.7308 195.412 91.7658 196.294 91.0875 196.837C89.5653 198.09 86.6471 197.252 84.6125 201.169C84.0896 202.079 83.895 203.365 84.1655 203.233C84.2944 203.184 84.379 202.48 84.392 201.901C84.4502 201.39 84.5799 201.143 87.0138 203.54C87.0288 203.555 87.0439 203.571 87.059 203.586C88.5266 204.123 90.4186 204.407 90.6667 203.73C91.1778 203.087 94.2978 203.018 96.657 202.474C99.1486 201.99 101.499 201.377 103.53 200.74C104.666 200.126 108.204 198.708 113.119 197.459C113.349 197.402 113.589 197.346 113.838 197.292C119.114 195.954 126.899 196.293 131.459 196.17C130.341 196.794 128.383 198.661 135.591 194.589C130.972 197.538 131.449 198.477 131.998 197.511C132.891 196.574 133.795 194.261 139.028 189.658C134.131 193.866 134.044 196.089 133.561 196.495C133.087 197.24 133.219 195.421 134.054 190.781C134.546 188.307 135.077 183.778 137.896 177.247C136.543 180.391 136.932 180.657 136.858 179.897C136.868 179.115 136.817 177.372 136.731 175.268C136.802 178.076 137.359 179.408 137.512 179.923C137.696 180.439 137.613 180.249 137.301 179.78C136.667 178.757 135.237 176.85 133.195 173.38C134.018 175.051 133.587 174.474 132.62 174.068C131.654 173.589 130.253 172.988 128.887 172.609C126.201 171.849 124.071 170.608 122.174 168.795C121.576 167.733 121.895 166.36 122.039 164.685C122.079 163.008 122.573 161.146 119.736 159.083Z" fill="#FF9500"/>
<path d="M110.923 169.727C112.817 170.144 109.647 169.479 106.165 169.469C102.687 169.36 98.97 169.737 99.8436 169.507C99.9125 169.815 99.9933 170.13 100.087 170.451C101.188 174.583 104.354 179.424 107.754 181.855C111.151 184.388 114.129 184.925 116.146 184.87C120.197 184.633 121.569 182.667 121.813 182.216C121.791 181.981 121.712 181.988 121.632 182.342C121.433 183.366 121.74 182.319 121.678 181.469C121.671 180.617 121.373 180.038 121.937 181.844C123.286 185.383 119.192 174.673 119.234 177.461C119.46 180.001 118.176 179.459 114.588 177.754C114.727 177.436 114.843 177.106 114.93 176.769C115.321 175.434 115.554 173.761 115.112 172.95C114.707 172.109 113.975 172.13 113.543 172.56C112.63 173.487 112.795 175.459 114.661 177.55C115.764 178.815 115.703 180.344 114.249 182.265L115 180.547C114.327 181.011 112.475 182.906 109.337 184.159C106.137 185.355 104.522 183.988 103.765 183.621C103.021 183.204 102.527 182.473 102.113 181.702C101.94 181.373 101.767 180.653 101.646 179.934C101.646 179.933 101.646 179.933 101.646 179.933C101.497 179.037 101.419 178.145 101.521 178.01C101.741 177.712 102.016 177.196 102.018 176.434C102.043 175.72 101.526 174.52 99.5134 174.481C99.2013 174.458 98.8804 174.449 98.557 174.443C95.8151 174.555 95.434 174.574 95.6311 174.091C95.9066 173.846 96.0428 172.62 96.358 172.429C95.7668 173.912 98.0781 174.263 96.2743 172.374C95.0071 170.892 92.9642 169.104 92.2728 166.075C91.9588 164.55 91.9664 162.642 93.1518 160.182C94.272 157.811 97.1023 154.534 101.415 153.05C101.55 153.169 101.733 153.296 101.958 153.439C106.282 155.857 100.627 138.473 113.784 144.918C122.238 150.989 122.98 142.441 129.827 137.749C132.067 136.823 134.858 134.624 144.551 140.025C151.348 143.587 158.054 155.284 158.188 162.096C158.329 165.315 157.341 168.88 155.773 172.584C153.969 176.529 152.854 179.467 148.062 186.897C145.765 189.798 144.413 190.809 143.672 191.924C141.802 194.601 140.611 196.587 140.15 197.528C139.948 197.942 139.945 198.141 140.577 197.123C140.918 196.041 143.633 193.724 143.202 184.692C142.92 181.699 141.843 178.394 140.437 176.001C137.275 170.256 133.207 168.003 131.378 167.008C129.39 166 128.582 165.828 128.368 165.746C128.184 165.702 128.584 165.8 129.905 166.309C131.208 166.948 133.733 167.466 138.2 171.827C147.662 182.748 144.552 191.923 143.293 196.177C141.567 200.874 139.279 203.666 137.002 205.935C136.275 207.879 129.865 215.404 122.054 215.248C121.922 215.249 121.79 215.25 121.657 215.25C119.436 215.586 117.351 215.738 114.177 215.567C111.168 215.15 105.929 215.549 98.6348 209.475C98.032 207.123 92.2405 199.791 93.3501 191.261C95.1225 188.504 97.0058 184.954 99.0208 182.839C101.341 180.332 103.162 179.072 104.546 177.68C105.389 177.047 105.672 176.057 105.918 174.117C106.183 171.884 109.286 170.027 114.551 172.345C115.912 172.986 116.368 174.413 116.502 175.676C116.661 176.966 117.331 178.013 117.708 178.674C118.803 180.603 117.03 180.211 119.589 183.362C124.76 189.609 127.24 191.454 122.795 189.533C121.369 188.934 121.201 189.278 121.632 189.955C123.712 189.813 128.52 190.361 128.045 189.048C127.651 188.203 125.868 187.494 124.8 187.065C123.741 186.707 123.263 186.573 125.834 188.425C125.891 188.47 125.948 188.516 126.004 188.563C126.715 185.08 125.522 181.426 124.993 179.812C124.421 178.079 124.375 177.433 125.053 177.333C116.735 170.85 112.535 172.164 110.385 171.74C108.126 171.687 107.007 171.79 105.736 171.99C105.164 171.73 104.665 171.583 104.226 171.431C103.663 171.234 103.419 171.974 103.71 172.609C103.853 172.925 104.116 173.215 104.514 173.319C104.929 173.409 105.393 173.378 106.375 172.697C104.631 174.466 102.773 176.638 101.255 180.634C100.534 182.666 99.8293 185.217 99.9755 188.982C100.104 192.619 101.521 198.264 105.904 202.857C109.582 206.557 111.785 207.237 112.898 207.855C114.035 208.385 114.349 208.518 114.22 208.559C114.033 208.57 113.262 208.487 111.149 207.602C109.271 206.646 104.431 204.912 100.107 197.387C97.891 193.763 96.398 187.83 96.8771 182.942C97.2798 178.011 98.7999 174.574 100.021 172.215C102.579 167.56 104.45 165.832 105.75 164.262C108.339 161.388 109.005 160.198 107.514 159.605C106.434 159.186 105.615 160.288 105.412 162.09C104.597 165.02 105.737 166.284 106.902 167.474C108.124 168.603 109.659 169.376 110.923 169.727Z" fill="#FF9500"/>
<path d="M99.9026 204.192C99.3809 200.288 100.029 217.617 99.6106 215.187C99.1522 212.76 98.4492 203.588 98.1455 205.686C98.0601 206.316 97.9188 206.194 97.758 205.818L100.321 205.437C100.601 204.452 100.479 202.111 101.845 204.423C104.068 207.612 99.6326 197.109 101.549 198.95C103.84 200.59 104.272 198.33 102.172 195.125C101.168 193.496 100.11 192.014 99.5926 191.524C99.0958 191.007 99.3469 191.271 101.471 192.113C105.762 193.666 98.279 191.07 96.3968 190.79C95.8205 190.673 95.0397 190.488 94.2302 190.288C93.8869 190.203 93.1774 189.997 92.4796 189.785C92.4791 189.785 92.4787 189.785 92.4782 189.785C91.6094 189.521 90.7596 189.247 90.6583 189.186C90.168 188.886 88.8161 188.281 85.8027 186.913C80.2518 184.206 86.5871 186.54 84.1898 184.178C81.8138 181.834 77.6279 176.08 83.5989 175.923C86.3476 176.17 85.2031 173.063 85.3289 170.041C85.2849 167.122 86.7816 164.435 90.0834 168.493C91.8872 170.846 92.4232 171.259 92.7341 170.432C92.9479 170.798 94.6471 169.732 94.8113 170.123C95.1535 168.252 94.7194 158.688 95.5228 156.938C96.6841 154.48 98.7495 164.25 99.4201 163.416C100.128 162.579 101.178 160.479 102.315 162.843C103.376 165.206 105.11 159.302 106.464 163.618C107.662 167.625 109.077 172.565 110.468 176.703C110.459 177.001 110.445 177.289 110.426 177.564C110.219 181.279 109.772 181.924 111.932 180.584C112.589 180.232 113.175 180.537 113.454 181.677C113.675 182.716 113.813 185.139 111.863 186.97C109.806 188.605 106.2 186.85 105.099 189.016C104.384 190.364 104.761 191.074 104.719 191.612C104.714 192.183 104.458 192.776 103.437 194.526C99.4371 201.573 99.1471 204.944 101.653 200.939C103.891 196.818 99.9159 206.671 100.604 205.624C100.915 205.023 101.678 202.972 102.039 201.991C103.02 201.409 103.482 201.418 103.417 203.624C103.219 208.482 102.963 209.682 102.833 210.841C102.742 211.996 102.62 206.54 102.2 208.499C101.868 210.456 101.063 208.664 100.818 211.892C100.608 215.117 100.386 208.099 99.9026 204.192Z" fill="#FF9500"/>
<path d="M110.284 198.531C108.906 195.02 112.479 210.281 111.546 209.748L116.029 208.27C116.145 208.184 116.245 208.064 116.327 207.909C118.008 204.415 113.146 196.446 114.805 197.863C116.44 199.239 111.986 194.708 113.485 198.247C114.786 201.902 108.778 192.226 108.808 195.079C108.805 195.105 108.803 195.131 108.8 195.157C108.352 198.116 106.669 197.069 105.108 193.702C103.442 190.322 102.19 187.396 103.743 191.689C105.48 195.91 102.428 188.6 101.411 187.002C101.123 186.492 100.741 185.787 100.344 185.054C100.176 184.744 99.8419 184.085 99.5183 183.431C99.5181 183.431 99.5179 183.43 99.5177 183.43C99.1146 182.616 98.73 181.81 98.7008 181.697C98.5608 181.146 98.0548 179.757 96.9706 176.634C95.0728 170.766 97.7623 176.984 97.4033 173.76C97.0428 170.535 96.4149 164.154 97.0784 168.214C97.3974 170.226 95.8463 167.459 93.823 165.643C91.8531 163.704 89.6852 162.75 92.3453 166.891C98.3309 174.57 87.2481 160.229 90.3638 155.663C90.9667 154.888 91.9325 154.339 93.169 154.007C93.7431 154.769 97.1962 151.689 97.6413 152.532C97.832 153.391 99.9245 159.807 99.9554 159.088C99.965 158.235 99.681 156.15 100.857 158.25C102.039 160.349 100.945 154.454 103.006 158.213C105.04 161.978 107.862 166.686 109.329 169.988C110.813 173.284 111.013 174.059 111.204 171.802C111.309 170.505 112.243 171.547 113.139 176.074C113.576 178.353 113.779 181.569 113.904 183.105C114.099 185.35 113.808 183.874 114.436 187.848C115.742 195.784 116.578 198.766 115.625 194.182C114.581 189.62 116.953 199.988 116.702 198.79C116.411 197.601 114.845 191.522 115.752 196.287C116.705 201.043 116.773 202.316 116.881 203.498C117.005 204.675 114.785 199.668 114.839 201.712C114.914 203.75 113.136 202.413 113.428 205.675C113.713 208.94 111.768 202.192 110.284 198.531Z" fill="#FF9500"/>
<path d="M56.4536 231.982C57.6349 229.414 54.6545 226.8 54.5079 223.903C54.5017 223.311 54.5732 222.709 54.7431 222.109C55.8377 218.496 57.6658 217.792 58.9328 215.501C59.5545 214.129 60.8631 212.205 62.8548 210.992C67.1165 208.672 69.7402 209.696 71.8063 209.943C73.8559 210.34 75.3429 210.706 76.297 210.313C78.063 209.497 78.2647 212.514 80.1874 211.709C80.5504 211.509 80.7453 211.341 80.7965 211.267C81.5448 210.741 82.2886 210.659 83.7509 209.865C85.1154 209.261 87.0698 205.865 88.7733 202.754L88.602 203.131C89.0241 201.695 89.296 200.401 89.2229 199.491C89.1402 198.432 89.4583 197.486 89.9325 196.62L89.8437 196.996C90.3731 195.695 91.2956 193.941 91.611 192.801C91.7625 192.231 91.9658 191.779 92.1776 191.433C92.2674 191.286 92.4552 191.218 92.6406 191.218C92.6408 191.218 92.6409 191.218 92.641 191.218C92.8718 191.218 93.0988 191.323 93.1279 191.512C93.2656 192.436 93.6559 193.775 94.4198 195.501C94.8013 196.383 94.924 197.096 94.8732 197.788C94.8531 197.863 94.8163 198.089 94.7852 198.16C94.4689 199.658 93.4012 200.383 93.0243 203.332C92.9746 203.737 92.9409 204.127 92.918 204.505C92.8639 204.628 92.7288 204.994 92.6475 205.101C91.803 207.982 92.6476 210.927 88.3392 215.032C86.7073 216.418 85.4362 217.574 84.0634 218.61C80.4559 220.87 77.4176 221.744 73.1006 219.633C70.566 218.322 68.9448 218.428 68.1105 219.122C67.7173 219.453 67.5692 219.969 67.9794 220.231C68.358 220.544 69.467 220.13 69.9844 219.604C70.0226 220.398 69.9988 221.245 69.8673 222.184C69.7211 223.232 69.5142 224.285 69.3357 225.259C68.4334 231.139 66.1332 236.937 65.8485 240.222C65.6803 242.144 65.5325 244.354 65.2061 246.836C65.0401 248.076 64.8415 249.351 64.5094 250.795C64.3363 251.51 64.1747 252.23 63.741 253.39C63.68 253.549 63.613 253.713 63.5346 253.89C63.445 254.093 63.3102 254.384 63.1321 254.697C63.0305 254.873 62.9707 254.98 62.769 255.276C62.5489 255.59 62.2657 255.965 61.7766 256.415C61.5307 256.639 61.2297 256.881 60.8424 257.122C60.4261 257.391 59.4923 257.851 58.4878 257.988C57.4658 258.152 56.2782 258.011 55.3447 257.637C55.1101 257.546 54.8895 257.443 54.6848 257.334C54.4803 257.224 54.394 257.17 54.2595 257.085C54.0114 256.926 53.7927 256.762 53.5999 256.599C52.8312 255.939 52.4571 255.356 52.1904 254.902C52.1264 254.79 52.0616 254.667 52.0206 254.585C51.9907 254.525 51.9629 254.467 51.9367 254.411C51.8845 254.298 51.8391 254.191 51.7986 254.091C51.6385 253.691 51.5453 253.362 51.4764 253.086C51.3842 252.697 51.3307 252.362 51.2876 252.03C51.2719 251.741 51.2455 251.413 51.2159 251.075C51.0538 249.272 50.3062 247.096 49.4837 244.726C48.7426 242.146 47.4607 240.361 47.634 235.186C47.8333 233.437 48.1752 231.731 48.7078 230.124C50.2152 225.468 52.6599 219.763 54.7672 215.686C55.6463 213.9 56.5543 212.403 57.2986 211.343C59.9285 207.737 60.6288 207.043 62.3011 203.265C63.2772 201.116 65.3516 198.612 67.8576 197.115C69.122 196.358 69.601 197.093 69.1408 198.413C68.4648 200.352 67.2427 201.461 67.53 202.868C68.1154 205.678 68.3399 206.747 66.0642 208.219C63.782 209.745 65.6621 212.029 64.8176 213.063C64.136 213.987 62.7892 213.586 61.8337 217.852C61.666 218.645 61.5063 219.573 61.3762 220.654C60.5025 228.064 60.2966 231.888 60.2202 234.563C60.21 235.097 60.1249 235.733 60.0046 236.449C59.97 236.123 59.8707 236.662 59.9044 237.305C59.9274 237.967 60.0267 238.826 60.184 239.738C60.5004 241.57 61.0344 243.61 61.7647 245.48C62.2045 246.626 62.689 248.089 63.0697 250.058C63.0815 250.106 63.0877 250.101 63.0661 250.002C63.0565 249.958 63.0231 249.822 62.9473 249.616C62.8251 249.371 62.9098 249.256 62.1343 248.197C61.9412 247.955 61.6918 247.68 61.3488 247.39C61.1773 247.245 60.9823 247.098 60.7602 246.954C60.6474 246.881 60.5377 246.815 60.4015 246.739C60.2189 246.639 60.0217 246.543 59.8113 246.457C58.0969 245.654 55.6316 246.107 54.5978 246.818C53.1773 247.703 52.8662 248.425 52.6875 248.656C52.4007 249.129 52.3881 249.231 52.3695 249.257C52.3533 249.295 52.5252 248.664 52.621 248.179C52.8471 247.098 53.0547 245.849 53.2215 244.662C53.5565 242.266 53.7424 240.023 53.631 238.565C53.326 234.706 55.0905 234.927 56.4536 231.982Z" fill="#FF9500"/>
<path d="M163.519 250.84C164.18 249.674 164.499 248.422 164.639 247.11C164.628 244.128 161.999 239.872 161.31 236.729C161.299 236.683 161.289 236.639 161.28 236.596C161.19 235.83 160.888 234.837 160.489 233.933C161.105 234.185 161.183 233.858 160.98 233.595C160.777 233.313 160.321 233.014 159.714 232.785C158.485 232.323 156.629 232.108 153.909 232.446C151.828 232.703 149.687 232.925 147.504 233.084C146.967 233.12 146.497 233.16 146.23 233.19C146.102 233.203 146.024 233.217 146.1 233.175C146.175 233.114 146.433 233.075 147.063 232.465C147.195 232.238 147.955 231.78 148.092 229.797C148.122 228.846 147.742 227.897 147.394 227.407C147.047 226.902 146.772 226.693 146.594 226.557C146.241 226.311 146.191 226.342 146.198 226.354C146.211 226.376 146.31 226.429 146.429 226.48C146.943 226.698 147.774 226.904 148.53 227.04C150.074 227.315 151.555 227.387 152.604 227.217C152.668 227.188 152.727 227.153 152.783 227.111C153.275 226.719 153.742 226.792 154.542 226.863C154.941 226.897 155.393 226.931 156.007 226.878C156.32 226.851 156.663 226.803 157.152 226.716C157.672 226.657 158.188 226.412 159.712 226.536C160.598 226.623 161.408 227.037 161.92 227.475C162.398 227.879 162.682 228.281 162.877 228.602C163.252 229.237 163.395 229.706 163.525 230.114C163.771 230.938 163.907 231.623 164.078 232.355C165.282 238.53 164.587 241.737 163.539 246.616C163.438 247.057 163.335 247.581 163.231 248.176C163.106 248.915 162.995 249.72 162.627 250.823C162.42 251.373 162.189 252.06 161.426 252.839C160.651 253.664 159.334 253.905 158.882 253.902C154.423 254.4 149.642 251.589 146.842 248.871C144.584 246.847 142.747 244.822 141.435 243.591C139.509 241.827 138.236 239.233 137.548 238.664C135.763 237.304 133.238 236.438 131.236 236.044C131.185 236.043 131.044 236.012 130.995 235.999C130.925 235.972 130.854 235.948 130.721 235.868C130.654 235.826 130.563 235.767 130.453 235.642C130.336 235.514 130.185 235.243 130.191 234.939C130.245 234.318 130.497 234.228 130.572 234.134C130.669 234.053 130.733 234.019 130.788 233.989C131.204 233.799 131.365 233.813 131.593 233.775C131.804 233.75 132 233.74 132.19 233.739C132.943 233.736 133.526 233.872 133.995 234.007C134.295 234.095 134.429 234.283 134.43 234.469C134.43 234.469 134.43 234.469 134.43 234.469C134.43 234.7 134.216 234.925 133.846 234.958C133.405 234.999 132.922 235.066 132.44 235.215C132.257 235.272 132.066 235.34 131.896 235.421C131.813 235.46 131.726 235.506 131.695 235.539C131.694 235.535 131.648 235.626 131.856 235.429C131.905 235.366 132.036 235.227 132.036 234.912C132.025 234.588 131.836 234.397 131.765 234.336C131.602 234.205 131.582 234.22 131.559 234.202L131.359 234.165C132.797 234.038 134.565 233.776 136.696 233.831C137.826 233.864 138.828 234.069 139.699 234.389C145.04 237.547 143.161 239.994 148.242 244.262C148.796 244.732 149.352 245.158 149.911 245.555C153.17 247.839 155.618 248.172 158.083 247.628C158.207 247.605 158.158 247.588 157.936 247.645C157.72 247.697 157.323 247.866 157.011 248.115C156.354 248.65 156.263 249.054 156.24 249.08C156.227 249.149 156.35 248.548 156.394 247.928C156.487 246.672 156.629 245.34 156.825 243.91C157.237 240.887 157.043 238.602 156.622 236.56C156.41 235.552 156.14 234.579 155.838 233.736C155.689 233.326 155.522 232.921 155.382 232.742C155.321 232.668 155.239 232.628 155.319 232.915C155.375 233.071 155.451 233.322 155.847 233.816C156.205 234.273 157.285 235.258 158.936 235.414C159.928 235.5 160.163 235.364 160.241 235.382C160.307 235.384 160.19 235.445 160.018 235.536C159.663 235.722 159.072 236.019 158.35 236.312C156.913 236.893 154.776 237.526 152.218 237.276C150.889 237.1 149.517 236.819 147.983 236.375C146.514 235.941 145.185 235.558 143.683 234.972C142.905 234.616 142.16 234.476 140.737 233.221C140.397 232.886 139.96 232.407 139.604 231.616C139.253 230.868 139.103 229.767 139.27 228.92C139.64 227.188 140.354 226.612 140.797 226.124C142.828 224.42 143.673 224.614 144.518 224.317C145.326 224.127 145.972 224.009 146.56 223.882C149.243 223.281 151.52 222.319 154.477 221.514C155.969 221.12 157.623 220.747 159.796 220.637C162.043 220.788 164.475 219.843 169.723 223.612C169.792 223.672 169.861 223.732 169.93 223.794C171.923 225.549 173.803 227.853 175.048 230.871C177.498 237.754 177.604 243.154 175.677 250.231C173.963 255.234 171.349 260.118 169.059 263.539C169.189 263.289 169.181 263.243 169.166 263.262C169.145 263.287 169.109 263.362 169.068 263.473C168.987 263.684 168.899 263.985 168.822 264.296C168.67 264.912 168.547 265.611 168.469 266.222C167.537 273.376 167.643 283.604 165.37 294.959C165.276 295.339 165.191 295.801 165.112 296.328C164.529 298.872 165.487 303.85 161.388 309.307C159.936 311.009 158.346 311.646 156.674 311.895C155.038 312.11 152.854 311.823 150.987 310.169C149.315 308.631 147.326 306.614 146.693 302.79C145.909 296.203 145.038 290.694 147.106 282.664C147.529 281.461 147.983 280.251 148.497 279.035C149.552 276.535 150.948 273.552 152.926 270.814C155.649 267.066 158.819 264.753 160.652 262.609C164.132 258.04 165.306 249.655 164.303 246.442C164.264 246.285 164.222 246.135 164.177 245.992C161.79 239.019 161.035 236.847 157.354 231.478C157.062 231.06 156.756 230.61 156.442 230.142C153.81 226.195 151.21 220.243 150.369 214.713C150.062 211.882 151.012 212.365 152.273 214.671C154.219 218.082 155.303 221.166 157.106 222.523C159.922 224.605 161.432 225.698 162.649 228.239C163.063 229.064 163.448 230.038 163.811 231.214C165.383 236.443 168.827 237.541 169.861 240.462C170.185 241.396 170.245 242.091 170.422 242.997C171.07 245.947 172.726 250.175 170.437 261.731C169.933 263.752 169.378 265.64 168.091 267.768C165.183 272.177 162.902 274.477 162.003 276.423C160.247 279.854 159.545 283.251 158.785 286.171C158.756 286.366 158.704 286.734 158.671 287.115C158.413 289.618 157.858 295.606 158.307 301.298C158.229 300.965 158.121 300.919 158.178 301.045C158.226 301.168 158.408 301.421 158.666 301.67C157.416 300.574 156.1 300.461 155.249 300.57C154.366 300.712 153.543 300.984 152.601 302.064C152.818 301.797 153 301.374 153.097 300.486C153.297 299.189 153.08 296.85 153.635 292.898C155.019 283.784 155.838 270.893 156.282 264.351C156.547 261.827 156.4 260.533 158.215 257.154C159.856 254.788 161.413 254.413 163.519 250.84Z" fill="#FF9500"/>
<path d="M161.868 244.643C161.098 248.539 165.574 251.317 165.106 255.879C164.794 258.881 163.683 260.216 163.171 262.269C163.026 262.619 162.973 263.084 162.914 263.033C162.891 263.006 162.871 262.927 162.751 262.67C162.601 262.431 162.47 261.866 161.307 261.032C160.721 260.627 159.801 260.314 159.024 260.299C158.239 260.273 157.681 260.444 157.33 260.574C156.632 260.858 156.503 261.014 156.407 261.051C156.321 261.096 156.358 261.038 156.424 260.939C158.264 258.58 160.422 254.796 159.775 252.681C159.075 250.543 161.987 250.606 161.543 247.32C161.472 246.806 161.424 246.313 161.4 245.844C161.334 243.398 161.857 241.743 162.26 241.308C162.51 241.889 163.151 242.285 163.346 242.239C163.783 242.18 163.121 241.754 162.215 241.627C161.29 241.468 160.082 241.442 158.771 241.449C156.219 241.317 154.16 243.858 152.81 245.927C152.678 246.086 152.512 246.263 152.246 246.452C151.955 246.639 151.567 246.914 150.71 246.966C150.461 246.988 149.835 246.802 149.601 246.714C148.603 246.302 148.038 245.428 147.816 244.95C147.572 244.431 147.485 244.055 147.417 243.708C147.294 243.029 147.3 242.483 147.339 241.948C147.543 239.677 148.481 237.742 148.773 236.334C148.92 235.646 149.124 235.105 149.335 234.691C149.425 234.516 149.613 234.435 149.798 234.435C149.799 234.435 149.799 234.435 149.799 234.435C150.03 234.435 150.257 234.56 150.286 234.786C150.429 235.877 150.795 237.526 151.667 239.411C152.099 240.337 152.308 241.027 152.407 241.602C152.483 242.037 152.497 242.42 152.501 242.707C152.5 242.844 152.507 242.965 152.47 242.946C152.448 242.935 152.415 242.88 152.307 242.754C152.204 242.634 151.975 242.429 151.716 242.322L150.695 242.091C150.211 242.113 150.03 242.246 149.958 242.285C149.887 242.332 149.904 242.334 149.942 242.309C150.024 242.257 150.191 242.108 150.371 241.918C150.741 241.531 151.194 240.964 151.778 240.249C153.34 238.32 155.386 236.4 158.303 235.782C159.277 235.491 160.347 235.204 161.742 235.1C162.451 235.056 163.223 235.034 164.318 235.224C164.869 235.332 165.524 235.468 166.423 235.928C167.279 236.338 168.718 237.524 169.134 239.212C169.21 239.556 169.257 239.895 169.281 240.22C169.265 243.94 169.067 244.937 169.56 246.339C170.157 248.785 171.406 251.441 168.785 256.922C166.23 261.78 165.593 264.399 164.156 267.824C163.891 268.322 163.659 268.887 162.657 269.784C162.112 270.201 161.381 270.897 159.402 271.19C157.34 271.598 154.451 270.062 153.63 268.925C151.832 266.692 151.856 265.836 151.484 264.959C151.208 264.117 151.038 263.422 150.9 262.736C150.682 261.899 150.504 260.982 150.389 259.933C150.029 256.667 150.188 253.04 150.446 249.629C150.574 247.928 150.725 246.266 150.831 244.788C150.884 244.052 150.924 243.35 150.944 242.787C150.955 242.509 150.959 242.26 150.973 242.137C150.983 242.083 150.99 242.049 151.034 242.14C151.057 242.187 151.087 242.258 151.159 242.417C151.224 242.551 151.343 242.831 151.639 243.262C151.744 243.204 151.501 243.033 152.114 243.379C152.353 243.491 152.555 243.575 152.941 243.658C153.304 243.706 153.792 243.873 155.061 243.519C155.683 243.331 156.572 242.89 157.299 242.091C158.036 241.301 158.429 240.314 158.561 239.634C158.625 239.347 158.61 239.476 158.621 239.631C158.629 239.799 158.639 240.051 158.65 240.339C158.672 240.92 158.702 241.642 158.669 242.535C158.614 243.447 158.605 244.471 158.01 246.18C157.688 247.026 157.176 248.165 155.95 249.325C154.747 250.507 152.763 251.266 151.319 251.326C150.03 251.448 147.773 251.71 145.084 251.087C143.722 250.753 142.013 250.158 140.358 248.667C138.678 247.2 137.621 244.803 137.457 242.965C137.453 242.907 137.448 242.848 137.444 242.788C137.34 241.145 137.098 239.261 137.284 236.818C137.433 234.552 138.402 230.538 141.958 228.206C145.137 226.066 149.697 224.393 154.718 226.151C157.007 226.948 160.343 228.824 161.981 232.182C162.408 233.035 162.725 233.948 162.924 234.852C163.476 237.807 163.281 240.033 162.219 242.974C161.426 245.042 159.762 246.99 158.04 248.043C156.261 249.16 155.261 249.212 154.21 249.441C153.699 249.53 153.215 249.593 152.761 249.641C152.536 249.665 152.313 249.686 152.125 249.7C152.038 249.705 151.933 249.717 151.958 249.696C151.979 249.686 151.972 249.687 152.102 249.639C152.136 249.627 152.176 249.612 152.231 249.589C152.29 249.563 152.332 249.554 152.576 249.427C152.69 249.365 152.836 249.285 153.05 249.125C153.157 249.043 153.282 248.941 153.429 248.793C153.466 248.756 153.504 248.716 153.543 248.673C153.587 248.623 153.603 248.611 153.731 248.448C153.937 248.178 154.182 247.79 154.341 247.225C154.75 246.075 154.137 244.359 153.488 243.802C153.178 243.478 152.905 243.298 152.689 243.171C152.563 243.099 152.526 243.082 152.453 243.046C152.194 242.922 152.016 242.868 151.875 242.827C151.315 242.689 151.337 242.731 151.242 242.715C151.173 242.711 151.125 242.711 151.106 242.712C151.067 242.714 151.053 242.718 151.051 242.722C150.943 242.783 151.255 242.811 151.487 242.812C151.739 242.815 152.019 242.796 152.297 242.766C152.855 242.706 153.414 242.598 153.935 242.466C154.98 242.203 155.88 241.843 156.587 241.496C157.585 241.007 158.305 240.469 158.856 239.915C158.945 239.876 158.909 239.843 158.904 240.241C158.907 240.436 159.01 240.741 159.144 240.898C159.276 241.06 159.373 241.099 159.402 241.107C159.464 241.113 159.348 241.034 159.203 240.976C159.053 240.914 158.858 240.851 158.626 240.777C157.613 240.343 156.308 240.784 153.593 239.87C153.546 239.854 153.499 239.837 153.451 239.82C151.002 238.922 147.699 237.512 144.956 235.407C143.605 234.317 144.258 233.689 145.877 233.818C148.285 233.991 150.047 234.978 151.592 234.482C153.644 233.83 155.015 233.556 156.426 234.2C156.498 234.199 156.508 234.441 157.411 234.973C158.141 235.401 159.119 235.558 160.075 235.712C160.26 235.716 160.569 235.714 161.01 235.764C161.46 235.841 162.046 235.852 163.108 236.55C163.622 236.903 164.303 237.572 164.715 238.526C165.139 239.477 165.189 240.49 165.117 241.179C164.946 242.579 164.616 243.163 164.393 243.695C164.177 244.406 163.848 245.049 163.302 245.526C162.341 246.34 161.582 246.472 160.127 247.202C159.392 247.555 158.48 248.038 157.183 248.657C156.533 248.964 155.787 249.305 154.884 249.657C154.431 249.833 153.938 250.012 153.366 250.186C152.756 250.353 152.265 250.548 151.051 250.634C150.983 250.637 150.91 250.639 150.815 250.639C150.767 250.639 150.67 250.636 150.561 250.628C150.504 250.624 150.439 250.618 150.359 250.609C150.272 250.597 150.049 250.572 149.71 250.478C149.533 250.427 149.311 250.359 148.99 250.206C148.901 250.163 148.848 250.137 148.705 250.056C148.438 249.9 148.104 249.68 147.723 249.284C146.927 248.605 146.172 246.496 146.677 245.088C146.873 244.396 147.175 243.922 147.428 243.592C147.587 243.39 147.598 243.385 147.654 243.321C147.703 243.268 147.75 243.219 147.795 243.173C147.977 242.992 148.131 242.866 148.264 242.765C148.53 242.567 148.713 242.466 148.859 242.387C148.999 242.313 149.132 242.253 149.185 242.23C149.234 242.209 149.277 242.191 149.316 242.175C149.395 242.143 149.458 242.12 149.512 242.101C149.735 242.023 149.764 242.015 149.854 241.986C150.102 241.907 150.193 241.876 150.315 241.833C150.534 241.755 150.716 241.686 150.899 241.611C151.445 241.389 151.912 241.17 152.246 240.967C152.558 240.789 152.818 240.508 152.401 240.706C152.666 240.259 152.489 240.17 152.458 239.909C152.397 239.53 152.173 238.204 151.968 238.153C151.854 238.083 151.831 238.216 151.801 238.268C151.771 238.329 151.694 238.324 151.519 238.284C151.349 238.248 151.084 238.103 150.56 237.876C150.534 237.821 150.473 237.661 150.035 237.61C149.625 237.552 148.845 237.704 148.239 237.995C148.372 237.876 148.531 237.688 148.608 237.545C148.689 237.4 148.695 237.323 148.68 237.36C148.641 237.429 148.586 237.909 148.678 238.479C148.77 239.102 148.909 239.995 149.135 241.185C149.142 240.962 148.899 240.218 148.421 239.752C147.954 239.28 147.642 239.23 147.737 239.241C147.813 239.255 148.167 239.303 148.625 239.297C149.124 239.292 149.54 239.253 150.511 239.166C149.724 239.167 148.315 239.71 147.609 240.454C146.88 241.177 146.718 241.684 146.627 241.883C146.487 242.286 146.571 241.958 146.554 241.582C146.552 241.182 146.524 240.656 146.493 240.03C146.482 239.356 146.369 238.807 146.581 237.262C146.76 236.221 147.33 234.828 148.337 233.761C149.335 232.681 150.524 232.094 151.414 231.811C153.222 231.274 154.192 231.431 154.998 231.501C156.108 231.646 156.862 231.9 157.608 232.225C160.671 233.761 161.263 234.984 162.06 236.263C162.317 236.666 162.48 237.004 162.606 237.299C162.714 237.559 162.779 237.756 162.838 237.952C162.957 238.353 162.988 238.569 163.028 238.831C163.083 239.274 163.078 239.614 163.056 239.914C163.005 240.498 162.884 240.973 162.746 241.435C162.468 242.369 162.121 243.307 161.868 244.643Z" fill="#FF9500"/>
<path d="M84.5896 262.714C85.9225 269.934 88.9949 274.879 87.1269 281.811C86.1718 284.904 85.025 286.662 84.2598 287.808C83.3196 289.752 82.4736 291.765 82.3007 295.581C82.1585 298.841 81.7243 302.015 81.4189 304.887C81.4168 304.882 81.4157 304.86 81.4135 304.803C81.4123 304.763 81.4111 304.699 81.4042 304.591C81.3715 304.478 81.483 304.415 81.1392 303.293C81.1126 303.218 81.0818 303.136 81.0446 303.047C81.0259 303.002 81.0057 302.956 80.9836 302.907C80.9492 302.829 80.8499 302.624 80.7459 302.45C80.396 301.813 79.1259 300.202 76.8232 300.083C74.6279 299.99 73.3944 301.316 73.4009 301.28C73.1311 301.519 72.9572 301.719 72.8226 301.886C72.5588 302.221 72.4427 302.434 72.352 302.598C72.2659 302.758 72.2084 302.889 72.1956 302.918C72.1079 303.12 72.0779 303.216 72.0547 303.286C72.0255 303.38 72.0198 303.411 72.0194 303.42C72.0228 303.442 72.0637 303.32 72.0979 303.216C72.1697 302.996 72.2495 302.736 72.3298 302.478C72.4913 301.958 72.659 301.428 72.8392 300.893C73.2738 299.757 73.3528 298.947 74.631 297.005C76.3054 294.544 79.5764 293.804 81.0347 293.766C85.9673 293.823 85.8739 295.85 87.8721 297.872C88.8244 298.916 89.6732 300.087 90.14 302.132C90.24 302.618 90.299 303.121 90.324 303.616C90.3841 305.804 89.8797 307.069 89.7497 307.819C89.2256 309.935 87.5568 311.236 86.5051 311.749C85.3859 312.312 84.4802 312.495 83.6414 312.621C81.9818 312.846 80.5552 312.732 79.0679 312.618C78.4129 312.567 77.5362 312.554 76.7349 312.654C76.2821 312.748 75.8375 312.831 75.2067 312.849C74.8221 312.85 74.5169 312.862 73.8701 312.679C73.3594 312.556 72.4048 311.948 72.0748 311.149C71.4863 309.566 71.9433 309 72.0832 308.426C72.2885 307.877 72.5153 307.458 72.7459 307.052C73.6841 305.452 74.7344 304.081 75.7387 302.686C77.7105 299.981 79.7228 297.138 80.0514 295.558L79.9449 295.832C79.9614 295.636 79.9681 295.445 79.9656 295.264C79.9598 294.823 79.9759 294.374 80.0163 293.91C80.037 293.676 80.0623 293.445 80.1001 293.188C80.1208 293.054 80.137 292.939 80.1839 292.726C80.1982 292.665 80.2116 292.602 80.2526 292.468C80.2657 292.425 80.2839 292.369 80.3107 292.298C80.3395 292.234 80.3587 292.134 80.5486 291.815C80.5983 291.736 80.6612 291.641 80.7567 291.525C80.8818 291.4 81.2577 290.828 82.3223 290.594C82.8458 290.482 83.5124 290.571 83.981 290.806C84.2579 290.944 84.3073 290.99 84.4375 291.082C84.5498 291.167 84.6448 291.252 84.7261 291.333C85.0482 291.663 85.1714 291.916 85.2606 292.099C85.4334 292.5 85.4148 292.536 85.4429 292.627C85.4619 292.709 85.4732 292.771 85.482 292.825C85.5287 293.155 85.5165 293.175 85.5228 293.264C85.5254 293.341 85.5258 293.38 85.5262 293.436C85.5574 297.199 84.219 301.009 83.8413 303.509C83.6926 304.495 83.4891 305.268 83.2774 305.862C83.1876 306.114 82.9998 306.23 82.8144 306.23C82.8142 306.23 82.8141 306.23 82.814 306.23C82.5832 306.23 82.3562 306.05 82.327 305.727C82.1855 304.157 81.8119 301.81 80.9748 299.04C80.2056 296.494 80.2343 295.064 80.3654 293.436C80.3679 293.418 80.3702 293.407 80.373 293.414C80.381 293.444 80.3614 293.369 80.4132 293.69C80.4231 293.742 80.4364 293.805 80.4612 293.894C80.4677 293.916 80.5013 294.04 80.5661 294.192C80.6354 294.347 80.729 294.559 80.9861 294.856C81.1161 295.002 81.2937 295.17 81.545 295.324C81.8535 295.53 82.4951 295.735 83.0236 295.677C84.1391 295.551 84.5444 294.976 84.7099 294.808C84.8923 294.585 84.9578 294.452 85.0106 294.352C85.1146 294.137 85.1019 294.142 85.1251 294.083C85.1402 294.038 85.1485 294.009 85.1517 293.996C85.1675 293.933 85.1614 293.941 85.1573 293.947C85.135 293.992 85.0952 294.125 85.0589 294.245C84.9841 294.497 84.9038 294.778 84.8187 295.077C84.6465 295.677 84.4632 296.35 84.2111 297.171C84.1889 297.229 84.1293 297.403 84.0996 297.457C83.5358 298.624 82.9257 299.603 82.2381 300.895C80.8975 303.375 79.8907 305.481 79.0298 307.466C78.613 308.435 78.1858 309.466 78.0505 310.083C78.025 310.208 78.0273 310.327 78.0837 310.168C78.1052 310.097 78.157 309.911 78.1388 309.528C78.1262 309.313 78.0867 309.035 77.9771 308.707C77.8596 308.351 77.6358 307.915 77.313 307.541C76.9975 307.169 76.5993 306.869 76.2281 306.68C75.8823 306.504 75.6171 306.428 75.3811 306.377C74.9343 306.289 74.7708 306.314 74.663 306.316C74.4883 306.33 74.5846 306.325 74.7421 306.276C76.7531 305.685 78.4286 305.637 80.106 305.586C81.2684 305.565 82.1903 305.39 82.6257 305.162C82.8388 305.057 82.9016 304.935 82.7436 304.985C82.5942 305.018 82.2229 305.357 82.0457 305.736C82.3276 304.009 82.0468 302.938 81.7534 303.592C81.7287 304.163 81.7323 304.451 82.118 304.915C81.7893 304.783 80.9728 304.343 80.584 304.153C80.3958 304.042 80.2831 304.023 80.6601 303.926C80.8433 303.872 81.1838 303.763 81.5352 303.516C81.8875 303.276 82.1732 302.905 82.2469 302.659C82.4366 302.29 82.3105 302.322 82.2164 302.393C81.8822 302.676 81.5086 303.398 81.23 304.036C81.0865 304.366 80.9574 304.7 80.8334 305.053C80.7706 305.232 80.7116 305.409 80.6349 305.646C80.6171 305.7 80.5922 305.78 80.5653 305.862C80.5532 305.898 80.5311 305.968 80.5083 306.034C80.4861 306.097 80.4556 306.195 80.3727 306.398C80.3517 306.449 80.3269 306.506 80.2948 306.576C80.2376 306.696 80.1585 306.87 79.9698 307.156C79.8718 307.3 79.7449 307.478 79.5234 307.711C79.4118 307.827 79.2753 307.957 79.0946 308.099C78.8259 308.313 78.042 308.862 76.9219 308.951C75.7823 309.079 74.5069 308.524 73.9122 307.957C73.2801 307.388 73.0547 306.919 72.8979 306.595C72.7956 306.37 72.7394 306.202 72.6964 306.059C72.4415 304.99 72.5556 305.142 72.5265 304.951C72.5243 304.687 72.532 304.662 72.5378 304.545C73.2923 297.409 70.7573 294.388 71.2343 285.834C71.3084 285.025 71.3993 284.386 71.5061 283.727C72.1774 279.757 73.168 276.215 73.7821 272.846C74.4986 269.572 74.2363 266.451 74.2704 266.347C74.536 266.62 74.9184 266.869 75.1854 266.966C75.4576 267.07 75.6044 267.06 75.6253 267.031C75.5938 266.926 75.6406 267.089 76.8254 266.695C77.3968 266.49 78.2896 265.899 78.7992 265.134C79.323 264.374 79.4426 263.724 79.479 263.387C79.2964 264.312 79.2043 265.17 79.1933 265.918C79.1779 266.965 79.2282 268.079 79.3644 269.173C79.4807 270.208 79.7928 271.522 79.9517 271.751C79.9786 271.743 79.9916 271.77 80.229 272.011C80.4602 272.247 80.9193 272.648 81.5801 273.2C82.8552 274.282 85.139 276.152 86.5796 279.114C87.3445 280.735 88.6237 282.772 89.8764 285.327C90.3983 286.408 90.9672 287.596 91.4802 289.042C91.8568 290.225 93.9129 293.717 94.5616 297.327C95.3104 301.016 94.9778 304.806 94.1204 308.096C93.0347 312.155 92.0005 318.59 86.106 323.048C84.8001 323.991 83.2596 324.764 81.6511 325.24C80.7884 325.503 79.5332 325.82 77.973 325.668C76.4151 325.54 74.7783 324.766 73.7838 323.889C71.7636 322.072 71.2792 320.479 70.7793 319.106C69.9213 316.367 69.747 314.042 69.603 311.744C69.2943 304.233 69.8639 297.565 70.2413 293.456C70.9875 286.281 71.1928 284.559 70.6539 277.687C70.5446 276.246 70.5238 274.595 70.6057 272.881C70.7588 269.872 71.1636 266.624 72.1264 263.703C72.325 263.126 72.5549 262.709 72.799 262.507C73.0468 262.308 73.2369 262.35 73.3533 262.473C73.57 262.722 73.7558 263.206 73.8772 264.375C74.2585 267.719 73.8739 270.493 74.864 272.25C74.9988 272.483 75.1281 272.712 75.2516 272.938C76.963 275.967 77.5549 277.515 76.4473 281.605C75.2676 285.992 78.0038 288.031 77.7377 290.572C77.5366 293.083 75.6732 293.229 77.7365 305.884C78.0392 307.549 78.349 309.09 78.6775 310.455C79.2091 312.694 79.8878 314.665 80.4637 315.509C80.5954 315.705 80.7125 315.81 80.7187 315.757C80.7234 315.711 80.5986 315.468 80.1553 315.165C79.7267 314.858 78.9606 314.634 78.4667 314.629C77.9626 314.612 77.7464 314.686 77.7668 314.647C78.7919 314.042 79.2579 313.233 79.8035 312.007C80.3539 310.784 81.2799 308.573 82.4644 304.866C83.6909 301.326 83.8607 298.857 81.6047 295.095C81.3283 294.582 80.9918 293.962 80.6209 293.042C79.966 291.422 77.9156 288.682 75.7114 284.542C75.5186 284.165 75.0365 283.605 73.6469 282.454C72.3678 281.356 69.9265 279.401 68.6419 276.202C66.8062 270.834 67.1168 267.926 66.8775 265.338C66.7988 263.851 66.8725 262.642 67.0226 261.626C67.2045 260.146 68.0352 258.051 69.5837 256.654C71.1138 255.243 72.7369 254.772 73.8374 254.605C76.0787 254.332 77.1649 254.783 78.2079 255.175C79.6595 255.775 81.7027 256.851 83.1734 259.15C83.765 260.194 84.2499 261.392 84.5896 262.714Z" fill="#FF9500"/>
<path d="M116 209.777C118.194 209.291 116.302 205.01 118.355 203.717C120.446 202.334 122.516 203.518 123.967 200.849C125.383 198.199 128.41 196.62 128.349 194.966C128.293 193.723 129.735 194.27 130.633 193.738L130.343 194.308C130.58 194.121 130.744 193.831 130.737 193.386C130.694 191.524 131.303 190.636 132.557 189.234C133.878 187.89 135.191 182.671 133.919 180.828C133.552 180.263 133.477 179.684 133.552 179.099L133.582 179.364C133.614 178.81 133.824 178.334 133.942 177.763C134.062 177.196 134.063 176.494 133.998 175.981C133.935 175.516 133.985 175.11 134.087 174.792C134.13 174.658 134.288 174.542 134.461 174.477C134.461 174.477 134.461 174.477 134.462 174.477C134.678 174.395 134.916 174.385 134.991 174.494C135.358 175.09 136.1 175.513 137.461 176.546C138.324 177.259 138.607 177.962 138.697 178.534C138.698 178.586 138.73 178.739 138.726 178.791C138.765 179.772 138.262 180.583 138.739 182.629C139.418 185.744 140.825 187.976 139.016 191.533C137.811 193.765 138.96 195.362 138.654 197.64C138.558 197.804 138.353 198.329 138.231 198.474C137.914 199.539 137.187 200.643 135.432 201.657C130.479 204.407 133.872 207.48 130.855 212.006C127.767 216.532 120.898 219.625 116.654 221.362C114.733 222.246 110.353 223.626 106.121 220.862C102.946 218.621 101.293 215.965 100.731 212.117C100.708 211.913 100.688 211.707 100.672 211.497C100.552 207.774 99.6352 203.236 101.399 198.364C102.108 196.529 102.889 195.5 103.741 194.553C107.499 190.56 112.845 186.572 115.597 184.886C118.338 183.241 118.98 182.865 120.672 180.394C121.651 178.977 123.59 177.552 125.851 177.17C126.984 176.988 127.325 177.765 126.842 178.688C126.159 180.028 125.045 180.545 125.226 181.78C125.586 184.257 125.735 185.205 123.619 185.651C121.496 186.118 122.869 188.612 121.935 189.159C121.02 189.719 119.752 188.608 117.231 193.477C114.795 198.322 113.574 200.871 113.293 202.097C113.251 202.287 113.176 202.475 113.145 202.487C112.57 203.539 111.335 206.198 111.974 208.496C112.082 208.902 112.184 209.375 112.296 209.895C112.353 209.927 112.438 210.153 112.617 210.409C112.768 210.654 113.109 210.938 112.977 210.79C112.832 210.671 112.592 210.542 112.388 210.47C112.182 210.395 112.034 210.366 111.976 210.33C111.86 210.265 112.042 210.119 112.17 209.877C112.878 208.654 113.935 210.084 116 209.777Z" fill="#FF9500" fill-opacity="0.94"/>
<path d="M92.6661 198.658C95.4948 198.03 93.7695 193.432 96.2623 190.976C98.6258 188.516 100.741 188.71 102.662 185.562C102.795 185.343 102.903 185.096 102.972 184.826C103.348 183.269 103.746 182.183 103.452 180.311C103.567 180.613 103.809 180.969 104.018 181.162C104.229 181.363 104.369 181.431 104.408 181.467C104.487 181.527 104.254 181.528 104.034 181.687C102.908 182.438 102.703 179.782 100.087 180.222C100.021 180.239 99.9526 180.264 99.8826 180.297C98.2911 181.135 96.9766 181.487 94.4448 182.149C92.0277 182.671 86.1375 187.467 84.5676 190.558L84.7253 190.367C84.6564 190.549 84.6047 190.719 84.5656 190.883C83.9806 193.353 81.8329 194.676 80.8056 196.332L80.8181 196.253C80.6248 196.603 80.4847 196.897 80.4262 197.16C80.316 197.63 80.2784 198.05 80.2857 198.456C80.2874 198.625 80.182 198.795 80.0328 198.905C80.0327 198.905 80.0326 198.905 80.0325 198.906C79.8484 199.043 79.5842 199.076 79.4308 198.881C78.9232 198.296 78.4899 197.143 78.3243 195.936C78.3273 195.923 78.3312 195.881 78.3351 195.868C78.263 195.234 78.2137 194.523 78.1894 193.753C78.2273 190.309 79.6147 190.008 81.1454 187.742C81.1807 187.703 81.2737 187.574 81.3133 187.539C81.7276 187.077 82.1684 186.514 82.6557 185.779C85.3067 181.926 86.0016 178.573 91.6826 175.783C94.7529 174.462 96.37 172.631 99.7504 171.745C100.673 171.422 101.783 171.131 103.346 171.186C104.909 171.425 106.982 171.056 110.432 174.411C111.304 175.403 111.922 176.719 112.121 177.855C112.523 183.35 113.341 186.63 112.161 191.341C111.93 192.785 111.527 194.416 110.448 196.44C108.218 200.563 104.023 205.588 98.091 208.314C95.1234 209.536 92.4804 210.52 90.7871 211.478C86.6232 213.775 81.1798 217.147 73.6626 218.414C72.1096 218.641 70.4839 218.93 68.3779 218.985C66.4511 218.886 63.0201 219.315 59.6562 215.348C58.5306 214.003 57.8815 211.442 58.1256 209.824C58.3094 208.144 58.8114 207.07 59.2577 206.19C60.9964 202.731 63.2468 199.506 65.9864 197.08C71.6475 191.827 80.9433 186.656 86.2419 185.68C86.3993 185.646 86.5516 185.614 86.6986 185.585C91.4856 184.689 92.5644 184.515 96.9026 182.819C99.3674 181.925 103.401 181.357 106.505 183.268C107.25 183.778 107.314 184.271 107.096 184.515C106.874 184.772 106.422 184.875 105.766 184.942C103.851 185.169 102.078 185.072 101.174 186.218C99.3998 188.573 98.8834 189.488 95.9647 189.068C93.002 188.704 92.6472 191.729 91.0932 191.979C90.3662 192.104 89.8573 191.858 88.8295 191.969C87.7678 192.066 85.88 192.61 82.7902 195.52C77.2131 201.022 74.9686 204.628 73.4283 207.009C72.6646 208.255 71.1207 209.923 69.7171 211.954C69.6617 211.943 69.7449 211.818 69.8003 211.159C69.9052 210.559 69.5194 209.05 68.9929 208.501C68.6632 208.086 68.2348 207.806 67.9938 207.702C67.7438 207.592 67.6579 207.597 67.691 207.602C67.7609 207.622 68.2226 207.62 68.7054 207.499C72.0274 206.985 81.9938 203.151 85.1671 200.504C88.3776 197.935 89.2357 199.389 92.5323 198.674C92.5762 198.67 92.6208 198.665 92.6661 198.658Z" fill="#FF9500" fill-opacity="0.94"/>
<path d="M163.286 207.497C164.687 204.124 164.29 200.539 165.577 195.533C166.062 192.34 164.752 188.746 165.105 182.482C165.194 180.863 165.321 179.424 165.476 178.13C166.173 175.615 165.844 173.674 163.046 168.275C162.33 166.73 161.165 165.011 159.386 162.514C158.842 161.742 158.304 160.926 157.796 160.077C156.116 157.402 150.709 153.988 146.577 151.197C142.263 148.184 139.539 145.743 137.255 144.638C133.715 142.866 133.34 141.029 130.932 138.66C129.996 137.735 128.725 136.749 126.76 135.745C121.979 133.325 118.459 131.376 114.942 128.798C113.497 127.735 112.034 126.632 110.382 125.452C108.732 124.249 105.854 122.639 102.297 120.795C97.5244 118.716 88.9121 119.199 83.2972 119.974C81.4088 120.277 79.8071 121.412 78.7923 122.375C76.4814 124.582 73.9564 127.063 71.2055 129.42L71.2562 129.366C68.1864 132.127 65.196 134.628 63.6076 136.857C63.1798 137.456 62.8328 137.995 62.5202 138.521C62.5167 138.53 62.5034 138.558 62.4992 138.567C62.065 139.207 61.6271 139.67 61.2418 140.056C60.9331 140.361 60.6689 140.417 60.5146 140.315C60.5145 140.315 60.5144 140.315 60.5143 140.314C60.3215 140.186 60.3039 139.809 60.5699 139.347C60.8117 138.923 61.0612 138.458 61.2634 137.952L61.2459 137.991C62.0428 135.461 63.8172 132.504 65.7817 129.149C66.4714 127.979 67.1258 127.007 67.7464 126.168C67.7568 126.158 67.7865 126.125 67.7972 126.114C69.491 123.944 70.9752 122.541 72.9519 120.945C75.054 119.496 77.0493 117.019 82.8352 115.696C83.1065 115.65 83.388 115.603 83.6734 115.555C91.3387 114.586 96.1623 112.625 104.922 115.102C108.318 116.489 112.408 118.243 116.785 121.207C117.459 121.66 118.102 122.086 118.724 122.49C125.067 126.614 129.739 127.313 136.139 131.192C139.485 133.217 143.402 136.169 147.992 140.682C149.199 141.854 150.289 142.829 151.325 143.613C157.239 148.101 161.959 149.372 166.648 154.982C168.351 156.967 170.577 158.765 173.274 162.487C174.562 164.364 176.811 166.203 178.947 171.707C179.666 173.746 180.024 176.043 180.027 178.139C179.738 184.44 181.258 191.525 177.062 200.767C175.526 203.378 175.027 209.134 172.118 215.062C169.923 218.996 167.627 224.676 162.63 227.998C161.86 228.512 161.104 229.061 160.387 229.597C157.581 231.713 153.931 234.371 149.515 236.318C143.915 238.755 137.68 242.556 128.999 244.578C124.45 245.452 120.73 245.541 116.62 245.549C113.574 245.516 110.453 245.476 106.938 245.098C101.731 244.543 96.8356 243.024 92.8325 242.578C88.0914 241.908 84.678 239.955 83.0782 239.785C78.7704 239.026 74.1596 237.523 70.1655 235.14C67.1563 233.35 64.1445 231.529 61.1895 229.433C58.7252 227.63 56.0251 225.787 53.2745 222.504C52.7292 221.584 49.9502 219.6 47.905 216.777C45.7322 213.921 44.675 209.934 44.8467 206.653C45.4365 197.08 45.1488 187.608 48.0343 180.033C48.7714 178.148 49.3944 176.374 49.9725 174.83C51.0335 171.966 52.0078 169.633 52.9325 167.634C55.6718 161.823 57.1597 158.341 60.6509 150.419C62.2535 146.867 64.4856 142.675 67.3834 138.702C69.424 135.922 71.8226 133.274 74.3608 131.23C77.4911 128.803 77.3608 130.039 75.1012 133.097C73.1196 135.868 71.4065 138.328 70.1806 140.527C69.418 141.904 68.8728 143.189 68.6542 144.356C67.596 150.356 67.1947 152.787 63.017 158.814C59.8756 163.436 59.8702 167.035 59.2806 170.091C59.1094 171.025 58.8948 171.908 58.5155 172.796C57.471 175.249 56.6226 175.753 54.5623 182.088C53.5052 184.812 53.1825 189.101 53.6011 196.683C53.7875 200.212 53.9993 203.458 54.1927 206.534C54.7017 210.65 56.333 210.55 61.4837 215.299C65.0388 218.546 70.5127 221.13 74.0883 223.094C74.7808 223.46 75.5413 223.88 76.3612 224.35C78.6145 225.65 81.5322 226.986 85.3941 227.876C90.0697 229.072 92.5744 230.794 94.4292 231.044C99.9848 231.99 104.347 233.512 108.217 233.73C108.39 233.743 108.571 233.754 108.751 233.764C113.009 233.965 120.486 233.851 126.367 232.731C132.056 231.422 138.625 227.868 144.759 225.142C148.219 223.591 150.918 221.485 153.124 219.634C153.945 218.943 154.748 218.294 155.55 217.702C157.271 216.075 158.971 214.026 161.778 210.138C162.252 209.611 162.775 208.751 163.286 207.497Z" fill="#FFC400" fill-opacity="0.94"/>
<path d="M71.1979 253.668C71.0392 253.926 71.0912 254.133 71.2734 254.329C71.2931 254.365 71.2796 254.495 71.2977 254.531C71.9602 255.084 74.7107 255.303 74.3133 256.085C73.8221 257.074 71.5328 257.592 72.2426 258.593C72.9489 259.56 71.6328 260.969 72.6851 261.217C73.7315 261.436 70.9304 262.221 71.7427 262.73C72.5543 263.219 72.3067 263.692 71.6115 264.575C70.8877 265.438 70.9242 267.622 72.2785 267.628C72.4865 267.629 72.6257 267.666 72.7118 267.728L72.0775 266.983C72.1922 266.924 72.0877 267.236 72.0998 267.677C72.1014 268.114 72.174 268.648 72.2995 268.904C72.3926 269.094 72.4471 269.327 72.4714 269.558C72.4817 269.656 72.4404 269.84 72.3818 270.016C72.3817 270.016 72.3817 270.016 72.3817 270.017C72.3086 270.235 72.2091 270.442 72.1496 270.452C71.8517 270.499 71.4052 270.759 70.5253 271.285C69.5629 271.817 69.2003 271.395 68.8879 270.929C68.792 270.764 68.3392 270.438 68.3094 270.25C68.2784 269.935 68.2281 269.582 67.6685 269.232C66.398 268.439 64.5773 268.21 65.0664 266.432C65.6095 264.739 61.31 265.54 63.1939 262.868C65.1505 260.336 60.6713 261.055 59.7325 258.994C59.2805 257.991 59.5904 256.747 60.0015 255.634L60.0367 255.928C60.4924 255.346 60.8941 254.494 60.6645 254.043C60.2329 253.16 59.2039 251.811 59.3749 249.472C59.5085 247.417 58.0742 243.358 60.4303 240.876C60.4534 240.852 60.4766 240.828 60.5 240.803C62.0247 240.065 63.9788 238.284 65.097 237.454C66.2343 236.62 66.5018 236.353 66.1464 235.224C65.9377 234.566 66.3461 233.881 67.5393 233.257C68.1333 232.936 68.9566 232.959 69.3321 233.422C69.8715 234.086 69.4249 234.529 70.3969 234.976C72.3325 235.884 73.0495 236.363 71.7278 236.932C70.4075 237.471 72.9617 238.414 72.545 238.822C72.114 239.224 70.6365 238.788 71.1198 241.419C71.431 243.311 71.3303 244.641 71.1821 245.629C71.2466 245.758 71.3081 245.846 71.3744 245.918C71.4895 246.043 71.2015 246.045 70.9346 246.202C70.6683 246.346 70.446 246.677 70.7353 246.989C71.2377 247.457 71.4388 249.784 72.5822 250.883C73.6939 251.925 71.9761 252.415 71.1979 253.668Z" fill="#FFC400" fill-opacity="0.94"/>
<path d="M169.665 260.314C168.389 261.868 172.563 263.832 171.697 265.829C170.836 267.865 168.478 267.954 168.755 270.519C168.827 271.169 168.762 271.818 168.637 272.439C168.199 274.851 166.985 276.419 167.401 277.565C167.926 279.118 165.139 278.33 165.13 280.176C165.089 282.048 164.28 282.905 162.774 283.829C162.591 283.941 162.388 284.093 162.173 284.276L162.389 283.69C161.524 284.749 160.741 286.916 160.748 288.592L160.764 288.453C160.812 288.964 160.955 289.433 161.198 289.772C162.309 291.3 160.299 293.064 159.82 294.148C159.671 294.484 159.467 294.749 159.255 294.952C159.166 295.038 158.978 295.078 158.792 295.078C158.792 295.078 158.792 295.078 158.792 295.078C158.561 295.078 158.334 295.016 158.305 294.906C158.164 294.368 157.789 293.569 156.957 292.61C155.428 290.805 157.08 290.687 156.454 288.138C156.464 288.101 156.463 287.984 156.475 287.947C156.473 287.932 156.47 287.917 156.468 287.902C156.115 285.859 155.112 284.279 155.79 282.136C155.874 281.944 156.014 281.347 156.141 281.181C156.35 280.858 156.623 280.536 156.981 280.208C159.009 278.228 155.254 276.183 158.47 273.788C159.529 272.929 159.691 272.145 159.419 271.539C158.916 269.907 156.863 268.647 156.751 265.892C156.634 262.959 158.216 259.584 159.376 256.947C159.797 256.134 160.087 255.351 160.111 254.729C160.198 252.588 159.901 249.635 160.548 246.482C161.2 243.3 159.574 239.379 160.253 235.993C160.358 235.473 160.457 234.916 160.546 234.387C160.592 234.131 160.633 233.869 160.674 233.643C160.722 233.436 160.747 233.206 160.85 233.233C160.372 229.087 161.068 226.298 161.416 224.419C162.025 221.842 162.177 221.256 161.437 218.926C161.018 217.595 161.2 215.651 162.346 214.039C162.927 213.23 163.744 213.43 164.146 214.192C164.741 215.308 164.411 216.261 165.465 216.787C167.576 217.836 168.388 218.227 167.324 219.781C166.268 221.35 169.034 221.767 168.816 222.625C168.619 223.457 166.953 223.782 168.856 227.654C169.384 228.661 169.887 229.544 170.219 229.802C171.248 232.072 171.428 232.892 171.758 233.943C172.04 234.909 172.227 235.695 172.393 236.343C172.868 238.189 171.678 241.988 172.167 244.883C172.714 247.809 171.922 253.748 172.329 256.383C172.627 258.097 171.941 258.631 171.074 259.248C170.621 259.494 170.112 259.785 169.665 260.314Z" fill="#FFC400" fill-opacity="0.94"/>
<path d="M59.9927 158.556C59.1267 159.107 59.7489 160.509 59.4301 161.539L59.6755 161.126C59.6475 161.34 59.5709 161.549 59.4217 161.74C58.5946 162.815 57.5043 162.579 57.1173 164.14C56.7391 165.695 55.4963 166.936 55.6893 167.754C55.8869 168.563 54.5726 168.204 54.5561 169.259C54.5496 170.033 54.3733 170.516 54.024 171.012C53.8997 171.189 53.7545 171.367 53.5894 171.561C52.9256 172.282 52.1253 174.95 52.6418 175.972C53.1166 176.967 52.1688 178.066 51.945 178.77C51.8751 178.986 51.7802 179.156 51.6814 179.287C51.6395 179.342 51.5518 179.368 51.4653 179.368C51.4652 179.368 51.4652 179.368 51.4651 179.368C51.3574 179.368 51.2515 179.328 51.2379 179.257C51.1721 178.91 50.9965 178.396 50.6148 177.771C49.9147 176.59 50.703 176.489 50.4675 174.875C50.2616 173.257 49.6937 172.093 50.6242 170.344C50.6597 170.278 50.6915 170.214 50.7199 170.15C51.447 168.588 49.8405 167.533 51.733 165.484C53.7211 163.425 51.8359 162.426 52.6682 159.834C52.8672 159.235 53.1647 158.631 53.5272 158.036C53.582 157.955 53.7085 157.692 53.7741 157.62C55.1408 155.972 56.9905 154.569 57.6663 153.562C58.5426 152.248 59.6858 150.392 61.4767 148.878C63.2065 147.413 64.9203 144.893 67.5243 143.848C67.558 143.835 67.5918 143.822 67.6256 143.81C69.9904 142.92 73.4346 141.847 75.106 141.653C76.7745 141.444 77.1444 141.411 78.5881 140.747C79.4198 140.373 80.7279 140.268 81.8007 140.741C82.3379 140.982 82.2234 141.368 81.7497 141.587C81.0616 141.912 80.4541 141.838 80.1843 142.376C79.6597 143.456 79.5199 143.862 78.5075 143.58C77.4742 143.317 77.4872 144.664 76.9625 144.709C76.4371 144.779 76.1173 144.016 73.9023 145.741C72.2676 147.058 71.2006 147.938 70.4077 148.565C70.1794 148.754 69.9821 148.924 69.8081 149.084C69.1249 149.688 67.1347 150.474 66.139 151.84C65.1388 153.136 62.7913 155.661 62.2552 157.033C61.7146 158.385 61.049 157.891 59.9927 158.556Z" fill="#FFEA00" fill-opacity="0.94"/>
<path d="M148.919 210.111C147.321 211.668 146.084 213.314 144.191 214.79C142.867 215.963 141.576 217.341 139.62 218.624C137.833 219.806 136.612 220.437 135.409 221.096C133.606 222.168 131.706 222.944 128.446 223.779C125.346 224.539 122.415 224.484 120.079 224.677C117.618 224.877 115.54 224.846 114.22 225.019C111.493 225.324 111.285 223.956 107.699 223.56C106.426 223.409 105.399 223.251 104.461 223.118C102.631 222.856 101.063 222.457 99.1193 221.872C96.6865 221.081 90.1304 220.002 85.8538 218.259C85.8289 218.248 85.7607 218.206 85.7378 218.192C84.8721 217.646 84.0743 217.247 83.4494 217.008C81.0713 216.102 78.5309 214.487 76.7627 212.853C76.7592 212.851 76.7494 212.844 76.746 212.841C76.2545 212.359 75.7057 211.931 75.243 211.571C74.6454 211.113 74.2102 210.701 73.8987 210.362C73.7661 210.218 73.746 210.096 73.7957 210.025C73.7957 210.025 73.7958 210.025 73.7958 210.025C73.859 209.938 74.0302 209.93 74.2361 210.057C75.0133 210.557 76.1087 211.045 77.5401 211.735L77.5254 211.725C77.918 211.909 78.3364 212.083 78.7783 212.244C82.2774 213.49 82.5737 214.067 86.8755 216.541L86.7227 216.452C86.8505 216.503 86.9924 216.555 87.135 216.604C91.8795 217.952 95.2136 217.532 101.181 218.976C102.644 219.311 103.848 219.45 104.961 219.506C108.767 219.691 110.851 219.884 116.988 220.502C117.936 220.583 118.798 220.589 119.588 220.549C125.513 220.227 128.018 219.19 131.439 216.366C131.717 216.106 132.011 215.838 132.324 215.563C134.84 213.367 137.855 211.113 141.389 209.424C143.566 208.48 145.528 206.394 146.875 204.319C148.237 202.313 149.046 201.195 149.525 200.008C151.355 195.849 151.608 189.063 151.445 181.82C151.412 180.087 151.272 178.255 151.055 176.333C150.481 171.328 149.511 166.096 147.407 161.965C146.881 160.925 146.43 159.888 146.031 158.875C144.703 155.511 143.483 151.791 141.29 148.931C140.918 148.448 140.866 148.365 140.485 148.163C140.119 147.981 139.558 147.84 138.978 147.742C135.208 147.136 131.83 146.448 129.601 145.887C125.839 144.944 124.166 144.359 121.656 144.058C120.637 143.938 119.477 143.83 118.009 143.717C115.05 143.498 111.027 142.84 107.65 142.076C105.947 141.741 106.311 141.345 108.108 141.264C110.702 141.183 112.775 141.617 114.144 141.29C116.88 140.651 118.051 140.428 121.286 141.414C121.524 141.488 121.763 141.551 121.985 141.604C124.885 142.306 126.491 141.617 128.204 142.057C130.043 142.486 129.85 143.447 139.363 143.943C139.462 143.948 139.557 143.953 139.659 143.96C140.446 144.02 141.275 144.117 142.209 144.474C143.153 144.806 144.09 145.62 144.54 146.127C149.908 152.382 150.771 156.827 152.469 159.245C152.524 159.34 152.577 159.433 152.63 159.526C154.72 162.847 155.788 170.063 156.337 175.784C156.414 176.456 156.491 177.099 156.57 177.711C157.511 183.803 157.355 196.817 154.793 202.322C153.587 205.449 152.496 206.39 151.768 207.15C151.051 207.952 150.274 208.754 148.919 210.111Z" fill="#FFEA00" fill-opacity="0.94"/>
<path d="M139.281 223.554C137.336 224.366 135.863 225.562 134.326 226.84C132.616 228.233 130.778 229.614 128.284 230.597C125.521 231.685 123.989 231.921 122.218 232.459C120.624 232.985 118.784 233.48 116.045 233.928C113.549 234.328 111.252 234.293 109.329 234.501C105.963 234.862 103.068 234.925 101.434 235.293C98.7286 235.869 98.4083 234.577 94.5579 234.78C91.7358 234.882 89.6863 234.607 87.5364 233.975C86.7006 233.728 85.8568 233.401 84.9847 232.956C83.1501 232.179 79.8729 229.678 77.2113 227.186C77.1919 227.17 77.1409 227.118 77.1239 227.1C75.0817 224.762 73.2522 222.281 72.2032 220.897C70.4883 218.721 69.6722 215.801 69.122 213.483C69.1153 213.467 69.1009 213.419 69.096 213.403C68.9733 212.452 68.906 211.585 68.8296 210.867C68.7458 210.075 68.7391 209.449 68.7579 208.966C68.7662 208.761 68.8375 208.656 68.9228 208.641C68.9228 208.641 68.9229 208.641 68.923 208.641C69.0292 208.624 69.1572 208.748 69.2132 208.999C69.4401 210.016 69.8143 211.443 70.518 213.022L70.4947 212.951C70.6711 213.258 70.8534 213.561 71.0494 213.875C73.3182 217.296 72.5586 218.193 75.8962 222.431C76.908 223.626 77.9193 224.59 78.9141 225.518L78.7513 225.359C81.6021 227.286 83.6369 229.066 87.5121 230.416C87.7479 230.496 87.9799 230.564 88.2112 230.623C93.7434 231.777 95.4565 230.127 104.059 230.591C105.92 230.652 107.441 230.557 108.742 230.377C113.513 229.751 115.958 229.194 119.623 227.127C120.251 226.765 120.934 226.395 121.682 226.017C124.819 224.424 128.343 223.006 131.501 221.519C135.283 219.724 138.878 218.083 141.6 216.534C142.891 215.803 143.994 215.126 144.855 214.518C147.905 212.372 151.321 209.469 154.078 205.568C155.381 203.736 156.745 201.88 158.072 200.017C160.788 196.244 162.86 191.87 162.748 187.012C162.763 183.465 162.753 179.91 162.836 176.519C162.908 172.205 163.012 166.211 162.053 162.36C160.631 158.882 158.572 155.894 156.911 153.928C156.64 153.606 156.385 153.31 156.143 153.034C152.472 149.054 151.285 148.05 146.627 146.084C146.535 146.048 146.441 146.013 146.346 145.977C143.491 144.869 139.394 143.527 136.128 141.742C134.499 140.833 135.036 140.638 136.817 141.101C139.431 141.757 141.487 142.587 142.97 142.605C144.977 142.623 146.242 142.7 147.815 143.38C148.579 143.715 149.413 144.201 150.382 144.944C153.306 147.254 155.363 147.409 156.938 148.952C157.741 149.779 157.97 150.31 159.179 151.724C160.242 153.04 162.181 154.962 164.943 159.386C165.195 159.802 165.433 160.217 165.658 160.631C168.899 171.256 168.108 176.132 168.541 180.092C168.625 181.799 168.551 184.298 168.405 187.108C168.319 191.26 166.622 196.057 164.755 199.472C163.402 202.132 161.064 205.504 158.715 208.848C155.383 213.719 150.559 217.362 148.113 219.261C146.609 220.437 145.559 221.068 144.682 221.505C142.989 222.338 141.896 222.452 139.281 223.554Z" fill="#FFEA00" fill-opacity="0.94"/>
<path d="M137.979 133.961C138.785 134.946 140.862 134.022 141.658 135.15C141.85 135.43 141.93 135.682 141.973 135.918C142.24 136.093 142.631 136.829 142.79 137.105C142.625 137.831 142.246 138.375 142.791 139.271C143.529 140.481 143.353 142.046 144.004 142.451C144.652 142.85 143.422 143.428 144.04 144.121C144.657 144.808 144.702 145.353 144.614 146.224C144.583 146.538 144.647 147.037 144.796 147.565L144.708 147.422C145.031 148.183 145.938 148.925 146.562 148.954C147.533 149.002 147.809 150.307 148.191 150.82C148.307 150.978 148.378 151.136 148.419 151.28C148.437 151.341 148.409 151.426 148.362 151.499C148.362 151.499 148.362 151.5 148.362 151.5C148.304 151.59 148.218 151.661 148.159 151.639C147.874 151.536 147.407 151.443 146.75 151.475C145.514 151.512 145.883 150.822 144.557 150.254C143.818 149.915 143.091 149.68 142.45 149.099C142.419 149.04 142.298 148.883 142.278 148.819C141.924 148.403 141.654 147.901 141.56 147.165C141.365 145.529 139.354 145.973 139.582 143.487C139.829 141.021 137.778 141.583 136.722 139.645C136.694 139.593 136.666 139.54 136.639 139.487L137.549 140.809C135.726 139.301 135.299 137.822 134.382 137.718C134.361 137.715 134.34 137.713 134.319 137.71C132.946 137.548 131.149 137.403 129.382 136.705C127.619 136.008 125.215 136.152 123.338 135.182C121.461 134.212 118.797 132.918 117.595 132.203C116.396 131.488 116.088 131.318 114.786 131.291C114.031 131.276 113.08 130.928 112.337 130.234C111.972 129.887 112.123 129.525 112.594 129.428C113.276 129.286 113.77 129.573 114.186 129.174C115.042 128.381 115.396 128.084 116.098 128.812C116.789 129.538 117.461 128.4 117.899 128.651C118.344 128.906 118.163 129.623 120.7 129.643C123.234 129.665 124.578 129.843 125.516 129.929C126.452 130.014 128.189 131.1 129.711 131.219C131.226 131.341 134.171 132.224 135.387 132.056C135.41 132.053 135.431 132.051 135.453 132.048C137.24 132.119 137.073 132.987 137.979 133.961Z" fill="#FFF697" fill-opacity="0.94"/>
<path d="M138.773 170.282C138.738 170.887 139.929 170.598 140.55 170.854C140.656 170.957 140.773 171.385 140.854 171.508C141.021 171.641 141.13 171.811 141.126 172.025C141.097 172.989 140.055 173.337 140.47 174.194C140.879 175.074 140.225 176.04 140.707 176.381C141.188 176.735 139.841 176.884 140.177 177.398C140.511 177.919 140.349 178.259 139.925 178.737C139.505 179.219 139.151 180.618 139.693 181.122C140.237 181.629 139.298 182.209 139.075 182.555C139.006 182.663 138.911 182.748 138.812 182.813C138.77 182.84 138.683 182.853 138.596 182.853C138.596 182.853 138.596 182.853 138.596 182.853C138.488 182.853 138.382 182.833 138.369 182.798C138.303 182.626 138.128 182.369 137.737 182.067C137.008 181.504 137.814 181.44 137.433 180.685C137.05 179.93 136.296 179.504 136.748 178.623C137.19 177.724 135.171 177.667 136.201 176.414C137.203 175.116 135.081 175.245 134.594 174.397C134.467 174.182 134.42 173.944 134.411 173.699L134.721 174.366C134.433 173.48 134.429 172.353 134.063 171.979C133.58 171.481 132.837 170.935 132.408 170.079C131.955 169.193 130.681 169.008 130.226 168.147C130.034 167.794 129.782 167.411 129.518 167.08C129.452 167.032 129.216 166.961 129.16 166.902C128.654 166.193 128.158 165.512 127.889 165.064C127.442 164.325 127.311 164.144 126.552 164.053C126.114 164.003 125.691 163.659 125.418 162.985C125.278 162.647 125.439 162.297 125.756 162.215C126.221 162.099 126.448 162.392 126.827 162.038C127.592 161.337 127.947 161.1 128.161 161.833C128.361 162.562 129.171 161.571 129.368 161.848C129.558 162.126 129.193 162.755 130.752 163.033C131.021 163.081 131.265 163.132 131.488 163.182L131.069 162.975C132.494 163.147 133.201 163.514 133.735 163.73C134.403 164.01 135.04 165.36 135.903 165.906C136.82 166.456 137.941 168.15 138.707 168.581C139.491 169.016 138.811 169.503 138.773 170.282Z" fill="#FFF697" fill-opacity="0.94"/>
<path d="M108.706 193.254C108.162 193.269 109.892 194.399 109.518 194.511C109.137 194.645 108.108 194.271 108.196 194.717C108.204 194.758 108.205 194.796 108.2 194.831C108.15 195.165 107.487 195.341 107.814 195.643C108.176 195.976 106.883 195.567 107.075 195.94C107.266 196.315 107.039 196.431 106.537 196.528C106.037 196.627 105.415 197.226 105.818 197.683C106.221 198.145 105.227 198.108 104.949 198.204C104.862 198.234 104.757 198.244 104.651 198.241C104.606 198.24 104.522 198.214 104.442 198.182C104.442 198.182 104.442 198.182 104.442 198.182C104.342 198.142 104.247 198.093 104.242 198.069C104.216 197.956 104.107 197.759 103.803 197.463C103.237 196.91 104.001 197.169 103.798 196.646C103.595 196.123 102.974 195.643 103.589 195.354C104.208 195.049 102.316 194.318 103.633 194C104.309 193.831 104.127 193.545 103.798 193.173C103.484 192.819 103.034 192.384 103.082 191.929C103.187 190.971 104.784 190.537 104.997 190.066C105.043 189.961 105.091 189.845 105.144 189.724C105.157 189.717 105.174 189.674 105.186 189.667C105.293 189.356 105.412 189 105.808 188.788C106.32 188.502 105.997 187.631 106.689 187.341C107.387 187.05 108.309 186.465 108.862 186.216C109.418 185.968 109.537 185.915 109.48 185.402C109.444 185.119 109.766 184.757 110.431 184.81C110.761 184.856 110.959 185.201 111.061 185.365C111.203 185.614 110.986 185.648 111.372 185.941C112.153 186.514 112.477 186.687 111.872 186.688C111.265 186.7 112.388 187.293 112.196 187.379C112.001 187.471 111.323 187.175 111.534 188.167C111.734 189.173 111.638 189.702 111.608 190.071C111.574 190.452 110.666 190.784 110.57 191.385C110.494 191.884 109.924 192.547 109.705 193.091L109.749 193.031C109.735 193.113 109.739 193.196 109.77 193.279C109.939 193.716 109.242 193.262 108.706 193.254Z" fill="#FFF697" fill-opacity="0.94"/>
<path d="M54.3822 206.763C54.7135 207.867 56.7224 206.97 57.438 207.981C58.207 209.023 57.6924 209.995 59.1039 210.802C59.1389 210.822 59.1735 210.843 59.2077 210.864L58.6048 210.516C60.3367 210.998 61.4112 212.385 62.2499 212.331C63.1114 212.285 62.5307 213.513 63.5703 213.744C64.6093 213.976 65.0554 214.431 65.6122 215.242C66.1138 215.983 68.002 217.392 69.1765 217.524L69.0419 217.475C69.1626 217.474 69.2718 217.463 69.3679 217.44C70.3872 217.189 71.1986 218.26 71.8699 218.57C72.0669 218.665 72.2226 218.779 72.3357 218.892C72.3846 218.939 72.4004 219.029 72.3907 219.115C72.3907 219.115 72.3907 219.115 72.3907 219.116C72.3787 219.223 72.327 219.323 72.2561 219.329C71.9118 219.355 71.3911 219.47 70.7163 219.754C69.6366 220.195 69.4136 219.63 68.4838 219.432C68.4542 219.419 68.3609 219.394 68.3335 219.377C68.1683 219.315 67.9715 219.256 67.7377 219.207C66.186 218.873 65.0015 219.079 63.6751 217.793C62.3587 216.514 61.027 218.057 59.4493 215.927C58.5061 214.678 57.6783 214.82 56.8148 215.067C56.6778 214.99 56.2727 214.804 56.164 214.691C55.4856 214.636 54.7172 214.577 53.8039 213.978C51.4972 212.545 49.8091 208.912 48.9369 207.421C48.3396 206.523 47.6565 205.358 47.2222 203.971C46.9781 203.2 46.7739 202.383 46.6552 201.514C46.3553 199.334 45.0676 196.82 45.1662 194.32C45.239 191.827 45.5576 188.362 45.9413 186.788C46.314 185.211 46.4079 184.848 46.192 183.341C46.0723 182.472 46.2925 181.275 46.9516 180.346C47.2837 179.883 47.647 180.047 47.7721 180.556C47.9579 181.296 47.7374 181.866 48.1898 182.266C49.098 183.054 49.4494 183.344 48.8764 184.241C48.3089 185.151 49.5811 185.574 49.4481 186.096C49.3298 186.621 48.5307 186.659 49.3222 189.318C50.1474 191.955 50.5642 193.368 50.873 194.348C51.1812 195.318 50.9822 197.547 51.6286 199.121C51.9494 199.912 52.2874 201.148 52.67 202.332C52.9749 203.283 53.4522 204.128 53.896 204.504C54.799 205.239 54.1105 205.684 54.3822 206.763Z" fill="#FFF697" fill-opacity="0.94"/>
<defs>
<filter id="filter0_d_7_401" x="0.229324" y="0.276413" width="228.648" height="305.317" filterUnits="userSpaceOnUse" color-interpolation-filters="sRGB">
<feFlood flood-opacity="0" result="BackgroundImageFix"/>
<feColorMatrix in="SourceAlpha" type="matrix" values="0 0 0 0 0 0 0 0 0 0 0 0 0 0 0 0 0 0 127 0" result="hardAlpha"/>
<feOffset dy="4"/>
<feGaussianBlur stdDeviation="2"/>
<feComposite in2="hardAlpha" operator="out"/>
<feColorMatrix type="matrix" values="0 0 0 0 0 0 0 0 0 0 0 0 0 0 0 0 0 0 0.25 0"/>
<feBlend mode="normal" in2="BackgroundImageFix" result="effect1_dropShadow_7_401"/>
<feBlend mode="normal" in="SourceGraphic" in2="effect1_dropShadow_7_401" result="shape"/>
</filter>
</defs>
</svg>
